<?xml version="1.0" encoding="utf-8"?>
<!-- Generator: Adobe Illustrator 24.1.3, SVG Export Plug-In . SVG Version: 6.00 Build 0)  -->
<svg version="1.1" id="drawing" xmlns="http://www.w3.org/2000/svg" xmlns:xlink="http://www.w3.org/1999/xlink" x="0px" y="0px"
	 viewBox="0 0 1920 1080" style="enable-background:new 0 0 1920 1080;" xml:space="preserve">
<style type="text/css">
	.st0{fill:#FEFEFC;}
	.st1{fill:#2A2A2A;}
	.st2{fill:#2C2C2C;}
	.st3{fill:#292929;}
	.st4{fill:#0F0F0F;}
	.st5{fill:#101010;}
	.st6{fill:#111111;}
	.st7{fill:#131313;}
	.st8{fill:#171717;}
	.st9{fill:#CFF9FE;}
	.st10{fill:#AAAAA8;}
	.st11{fill:#EAE200;}
	.st12{fill:#EABDD7;}
	.st13{fill:#9D8192;}
	.st14{fill:#FDFDFB;}
	.st15{fill:#2B2B2B;}
	.st16{fill:#E9E102;}
	.st17{fill:#8DA6AB;}
	.st18{fill:#E9BDD6;}
	.st19{fill:#9D9809;}
	.st20{fill:#FBFBF9;}
	.st21{fill:#FDFCFA;}
	.st22{fill:#E7DF05;}
	.st23{fill:#9C8191;}
	.st24{fill:#EAEAE8;}
	.st25{fill:#333332;}
	.st26{fill:#A9A9A7;}
	.st27{fill:#E5BBD3;}
	.st28{fill:#333434;}
	.st29{fill:#EEEEEC;}
	.st30{fill:#A8A8A6;}
	.st31{fill:#A5A5A3;}
	.st32{fill:#21201F;}
	.st33{fill:#967C8C;}
	.st34{fill:#E3BDD3;}
	.st35{fill:#D8D21C;}
	.st36{fill:#F3F2F0;}
	.st37{fill:#9C9C9A;}
	.st38{fill:#E8E8E6;}
	.st39{fill:#202020;}
	.st40{fill:#535352;}
	.st41{fill:#D0CB2E;}
	.st42{fill:#8C8C8A;}
	.st43{fill:#565655;}
	.st44{fill:#B2B2AF;}
	.st45{fill:#7E7E7C;}
	.st46{fill:#515150;}
	.st47{fill:#8E8E8D;}
	.st48{fill:#3F4242;}
	.st49{fill:#F1F1EF;}
	.st50{fill:#8C8C8B;}
	.st51{fill:#7A7A79;}
	.st52{fill:#B090A3;}
	.st53{fill:#B3B3B1;}
	.st54{fill:#D5D5D3;}
	.st55{fill:#C5C5C3;}
	.st56{fill:#ABABA9;}
	.st57{fill:#474746;}
	.st58{fill:#494949;}
	.st59{fill:#E6E6E3;}
	.st60{fill:#2E2E2E;}
	.st61{fill:#313131;}
	.st62{fill:#555554;}
	.st63{fill:#353535;}
	.st64{fill:#484848;}
	.st65{fill:#3B3B3B;}
	.st66{fill:#3D3D3D;}
	.st67{fill:#2D2D2D;}
	.st68{fill:#141414;}
	.st69{fill:#1A1A1A;}
	.st70{fill:#3E3E3D;}
	.st71{fill:#222222;}
	.st72{fill:#4D4D4C;}
	.st73{fill:#626261;}
	.st74{fill:#373736;}
	.st75{fill:#BEBEBC;}
	.st76{fill:#363635;}
	.st77{fill:#414141;}
	.st78{fill:#626260;}
	.st79{fill:#FCFCFA;}
	.st80{fill:#A7A7A5;}
	.st81{fill:#A6A6A4;}
	.st82{fill:#A1A19F;}
	.st83{fill:#F8F8F6;}
	.st84{fill:#EFEFEC;}
	.st85{fill:#E7E7E5;}
	.st86{fill:#EBEBE9;}
	.st87{fill:#969694;}
	.st88{fill:#BFBFBD;}
	.st89{fill:#EDEDEB;}
	.st90{fill:#3F3F3E;}
	.st91{fill:#414140;}
	.st92{fill:#4A4A49;}
	.st93{fill:#868685;}
	.st94{fill:#E1E1DE;}
	.st95{fill:#DCDCDA;}
	.st96{fill:#D5D5D2;}
	.st97{fill:#979796;}
	.st98{fill:#5C5C5B;}
	.st99{fill:#D7D7D5;}
	.st100{fill:#B3B3B2;}
	.st101{fill:#2B2B2A;}
	.st102{fill:#2C2D2D;}
	.st103{fill:#343535;}
	.st104{fill:#191917;}
	.st105{fill:#454545;}
	.st106{fill:#888887;}
	.st107{fill:#E0E0DD;}
	.st108{fill:#F4F4F2;}
	.st109{fill:#F6F6F3;}
	.st110{fill:#EBEBE8;}
	.st111{fill:#D6D6D4;}
	.st112{fill:#2F2F2F;}
	.st113{fill:#323232;}
</style>
<path class="st0" d="M191.93,1080c-60.56,0-121.11,0-181.7,0c0-357.99,0.03-715.98-0.23-1073.96c-0.01-7.03,3.26-5.88,7.33-5.88
	c274.13,0.01,548.26,0.01,822.39,0.01c354.15,0,708.3,0.02,1062.45-0.17c6.41,0,7.98,1.05,7.97,7.79
	c-0.22,354.75-0.19,709.51-0.19,1064.26c0,2.65,0,5.3,0,7.94c-346.2,0-692.24,0-1038.28,0c-0.46-1.5,0.22-2.71,1.24-3.6
	c10.01-8.68,17.2-20.07,27.85-28.23c8.67-6.64,8.96-9.97,3.31-19.27c-8.32-13.71-12.5-29.33-20.35-43.24
	c-2.39-4.23-4.4-8.68-7.07-12.76c-10.67-16.28-21.17-32.59-26.99-51.49c-2.21-7.18-6.59-13.59-10.94-19.82
	c-1.7-2.44-3.52-4.88-4.16-7.83c-0.92-4.25-2.01-9.04,1.13-12.42c2.84-3.07,6.69-0.19,9.82,0.87c19.1,6.5,35.59-4.93,37.44-25.57
	c1.96-21.84-0.45-43.07-2.78-64.54c-1.78-16.43-4.97-32.56-8.2-48.72c-1.21-6.04-1.63-12.28,3.09-16.81
	c6.39-6.14,6.61-13.25,4.8-20.92c-0.99-4.19-0.61-7.91,1.53-11.67c8.47-14.87,6.75-29.67-1.15-44.02
	c-6.42-11.66-14.65-22.04-24.68-30.89c-3.04-2.68-6.25-5.18-9.11-8.06c-7.32-7.36-11.23-15.61-11.33-26.62
	c-0.17-19.41-1.8-38.82-1.34-58.27c0.1-4.33-0.5-8.99,1.99-12.66c13.85-20.37,14.72-44.18,18.62-67.29
	c3.38-20.03,1.05-39.21-5.69-58.13c-2.35-6.61-5.99-12.6-8.35-19.26c-2.55-7.19-3.17-14.01-1.48-21.22
	c2.85-12.1,5.94-24.14,6.62-36.63c1.02-18.75-0.75-37.24-6.18-55.2c-2.42-8-4.78-16.05-7.61-23.94
	c-10.47-29.21-29.5-49.27-60.59-56.19c-6.47-1.44-12.09-3.97-17.45-7.96c-9.97-7.42-22.17-10.05-33.82-13.16
	c-61.2-16.36-119.76-10.44-175.14,21.67c-24.35,14.12-46.89,30.04-62.44,54.18c-2.19,3.4-4.57,6.97-9.68,5.56
	c-4.93-1.36-7.91-4.46-8.59-9.61c-0.18-1.34-0.48-2.66-0.6-4.01c5.85-23.73,3.68-47.11-2.96-70.33c-3.3-11.54-8.4-22.08-15.31-31.96
	c-9.19-13.15-21.75-18.74-37.37-18.77c-10.18-0.02-19.78,2.09-28.99,6.48c-7.35,3.5-7.86,3.04-11.23-4.54
	c-8.77-19.74-35.9-42.38-60.1-39.78c-8.03,0.86-16.63,0.33-24.95-0.68c-8.51-1.03-16.67,1.09-24.49,4.3
	c-4.26,1.75-8.5,3.47-13.03,4.38c-44.7,9-83.47,29.31-118.22,58.86c-17.64,15-32.03,31.81-43.3,51.73
	c-3.64,6.44-6.75,13.13-7.8,20.32c-3.36,22.93-8.29,45.69-8.01,69.05c0.75,42.82,9.07,83.6,32.23,120.43
	c4.93,7.84,10.72,14.78,17.93,20.72c11.04,9.09,20.16,20.23,30.37,30.22c18.46,18.07,39.59,30.84,63.89,38.55
	c10.42,3.31,15.76,9.39,16.66,20.19c0.49,5.89,1.75,11.75,3.15,17.53c1.45,5.98-1.24,9.1-7.01,10.48
	c-6.86,1.65-13.52,0.29-20.04-1.27c-13.26-3.17-26.72-4.9-40.21-3.54c-33.16,3.36-67.79,24.02-66.48,66.19
	c1.01,32.43,3.66,64.6,7.35,96.78c2.52,21.96,3.51,44.1,6.11,66.05c3.1,26.23,5.56,52.61,12.53,78.24
	c2.68,9.87,7.72,17.8,17.7,21.73c4.01,1.58,6.41,4.65,8.19,8.51c9.18,19.91,14.39,41.28,22.53,61.57c1.98,4.92,1.63,9.91-0.36,14.99
	c-4.44,11.34-4.51,23.25-3.6,35.16c0.38,4.92,1.7,10.19,5.3,13.33c10.69,9.35,11.51,22.21,13.25,34.64
	c2.25,16.04,4.13,32.13,6.52,48.16C194.17,1073.49,194.6,1077.03,191.93,1080z"/>
<path class="st1" d="M464.78,221.77c0.55,2.33,1.03,4.68,1.66,6.99c1.1,4.06,5.06,4.67,8.08,6.02c3.28,1.46,3.67-2.31,4.89-4
	c35.43-49.43,85.28-74.45,143.76-84.63c40.95-7.13,80.59-1.15,119.25,13.1c2.02,0.74,4.38,1.21,5.89,2.57
	c11.46,10.35,26.86,11.21,40.16,17.05c21.11,9.26,35.54,25.53,43.34,46.8c8.24,22.47,15.29,45.29,16.44,69.72
	c0.91,19.57-3.61,38.02-8.25,56.5c-1.2,4.78,2.55,8.32,0.35,13.32c-1.25,2.85,3.44-1.98,5.63,0.59c-4.57,3.69-2.25,7.37-0.12,11.52
	c10.12,19.65,14.81,40.37,11.5,62.53c-2.19,14.66-3.25,29.5-6.76,43.95c-1.08,4.44-1.49,9.54-4.01,13.05
	c-14.52,20.22-10.62,42.97-9.88,65.34c0.21,6.47,1.29,13.06,0.43,19.39c-1.75,12.81,4.21,21.7,12.97,29.61
	c10.22,9.24,20.2,18.67,27.79,30.33c11.66,17.92,16.62,36.34,4,55.88c-1.87,2.89-0.71,5.13,0.05,7.57
	c2.78,8.83,3.19,16.86-5.46,23.14c-5.06,3.67-3.74,9.1-2.46,14.12c6.56,25.72,8.61,52.13,11.74,78.34
	c1.5,12.55,0.44,25.31-0.94,37.97c-2.44,22.37-18.95,33.03-40.27,25.65c-2.53-0.88-5.05-1.79-8.13-2.88
	c-0.89,7.13-0.54,13.33,3.92,19.11c7.31,9.48,12.16,20.28,15.88,31.63c2.53,7.72,6.11,15.02,10.73,21.67
	c12.65,18.24,22.82,37.75,31.23,58.27c2.95,7.2,7.01,13.95,10.73,20.81c2.85,5.26,2.65,10.06-2.36,13.58
	c-13.4,9.4-22.37,23.34-34.9,33.61c-7.57,0-15.14,0-22.71,0c-2.25-4.52,1.39-6.42,4.09-8.28c7.11-4.89,14.03-10.05,21.21-14.83
	c2.47-1.64,4.97-3.25,7.19-5.23c10.19-9.09,10.57-12.87,2.81-23.91c-7.92-11.27-15.17-22.95-20.17-35.85
	c-9.55-24.62-22.22-47.84-32.3-72.23c-2.91-4.03-6.26-4.29-10.53-1.89c-33.75,18.95-70.61,27.71-108.47,33.66
	c-14.42,2.27-28.83,4.26-43.33,5.62c-16.88,1.59-33.3-2.42-49.88-4.35c-1.06-0.12-2.08-0.59-3.13-0.83
	c-19.04-4.28-22.7-1.98-25.09,17.2c-3.51,28.17-8.25,56.07-16.13,83.4c-2.18,7.55-4.36,15.03-7.97,22.03
	c-0.88,2.75-3.21,4.06-5.44,5.48c-2.7,0-5.41,0-8.11,0c-1.22-1.38-1.16-3-0.64-4.57c12.11-36.94,15.32-75.47,21.24-113.59
	c3.1-19.98-0.66-36.49-11.57-52.69c-13.1-19.45-19.9-41.84-28.21-63.5c-0.54-1.42-0.43-3.16-2.1-4.39
	c-6.22,18.53-3.86,36.72,1.03,54.84c1.27,4.69,3.09,9.23,2.86,14.21c-0.33,7.49-3.03,10.1-11.01,10.63
	c-4.91-1.39-8.06-5.17-11.63-8.43c-3.36-3.07-5.41-7.35-9.01-9.94c-0.84,0.07-1.46,0.31-1.52,0.83
	c-3.14,23.67-16.36,44.32-20.12,67.92c-1.47,9.21-1.55,17.39,2.43,25.82c7.81,16.56,15.45,33.2,22.46,50.12
	c2.38,8.07,7.9,14.58,11.12,22.23c1.55,3.67,3.94,7.46-1.02,10.52c-1.62,0-3.24,0-4.87,0c-6.49-3.02-10.19-8.66-13.41-14.62
	c-2.31-4.28-4.76-8.45-7.57-12.43c-2.47-3.78-4.44-7.8-5.97-12.04c-2.01-3.84-2.37-8.9-5.39-11.62c-3.02-2.73-7.22,1.08-11.12,1.24
	c-14.17,0.58-26.75-2.77-37.24-12.61c-4.3-4.03-9.46-6.08-15.16-7.11c-10.38-1.87-20.62-4.16-30.2-8.83
	c-4.98-2.43-10.45-2.6-15.87-2.38c-14.75,0.58-28.95-1.96-42.96-6.54c-17.64-5.76-35.95-6.86-54.38-6.65
	c-3.08-0.34-5.86-1.32-8-3.68c-3.64-6.6,0.57-10.45,5.01-14.22c0.95-0.74,1.4-1.81,1.86-2.87c5.85-7.46,7.69-17.44,15.05-23.97
	c1.83-0.04,3.02,0.87,3.74,2.49c-0.27,10.8-6.3,19.38-10.55,28.73c1.15,0.26,2.72-0.62,4.33-0.43c16.81,0.55,33.35,2.93,49.48,7.71
	c12.01,3.56,24.18,5.61,36.74,5.21c4.58-0.15,9.41-0.77,13.64,1.13c13.42,6.02,27.65,9.1,41.89,12.25c5.97,1.32,10.57,5.27,15.21,9
	c4.44,3.58,9.07,6.79,14.89,7.83c5.09,0.91,7.02-0.52,5.79-6.02c-2.12-9.47-4.07-18.94-4.11-28.79
	c-0.05-11.69,3.26-22.19,8.14-32.65c10.15-21.76,19.6-43.84,23.36-67.83c0.98-3.85,2.31-7.64,2.21-11.7
	c0.88-4.74-0.37-9.12-2.52-13.26c-8.35-16.08-13.32-33.25-16.69-50.96c0.29,1.51,0.73,3.02-0.15,4.49c-1.37,1.21-2.53,0.5-3.21-0.68
	c-4.28-7.4-10.85-8.31-18.38-6.62c-0.73-0.29-1.39-0.68-2-1.16c-2.48-1.79-5.42-3.35-8.25-2.98c-10.24,1.35-20.34-0.57-30.5-0.61
	c-0.81,0.07-1.56-0.12-2.26-0.52c-9.44-6.01-20.31-8.44-30.66-12.16c-2.7-0.97-4.83,0.06-5.69,2.9
	c-2.67,8.78-7.53,16.57-11.28,24.51c0.67,1.66,1.83,1.79,2.86,1.78c16.21-0.09,19.23,11.35,18.21,22.68
	c-0.53,5.91-2,11.62-4.32,17.16c-2.85,6.8-1.79,8.43,4.81,10.82c3.47,1.25,10.27,0.73,8.95,5.66c-1.45,5.42-7.3,2.08-11.14,0.96
	c-3.9-1.14-5.62-0.33-7.12,3.71c-1.88,5.05-3.14,10.16-4.59,15.3c-3.12,11.07-9.14,21.06-13.92,31.54
	c-5.41,5.97-12.32,8.57-20.19,8.64c-7.26,0.06-14.54,0.64-21.76-0.49c-2.26-0.31-3.45-3.87-6.43-2.12
	c-4.13,0.48-7.88-0.84-11.55-2.45c-1.47-0.9-3.09-1.25-4.8-1.3c-2.35-0.47-4.45-2.14-7.05-1.39c-8.54,1.92-17.15,3.43-25.68,5.29
	c-8.75,0.73-5.02,6.73-4.73,11.27c0.29,3.23,0.11,6.48,0.46,9.7c1.37,12.42,1.36,12.39,13.52,14.48c2.58,0.44,5.65,0.49,5.59,4.39
	c-0.48,0.64-1.03,1.54-1.77,1.53c-11.69-0.09-19.93,7.55-29.2,12.9c-4.3,2.48-8.43,2.96-12.55-0.7c-3.87-3.44-8.43-2.71-12.95-1.38
	c-5,0.76-9.99,1-14.98,0.01c-0.88-0.28-1.65-0.76-2.31-1.41c1-5.72,6.5-3.04,9.46-5.09c2.31-0.7,4.65-1.34,7.03-1.81
	c10.05-2,10.14-2.08,8.79-11.97c-0.83-6.15-2.63-12.08-3.98-18.12c-1.03-4.61-3.58-5.49-7.62-4.67c-4.75,0.96-9.54,1.74-14.34,2.38
	c-5.15,0.69-6.22,3.35-4.75,7.85c2.89,8.85,3.2,17.96,2.76,27.16c-0.01,0.86-0.11,1.71-0.24,2.56c-0.12,0.88-0.32,1.73-0.58,2.57
	c-0.76,2.35-1.25,4.86-0.31,7.11c8.05,19.32,4.92,40.08,7.88,60.05c-1.41,11.49,0.37,23.67-7.24,33.83c-1.08,0-2.16,0-3.24,0
	c-2.45-25.73-6.21-51.29-10.24-76.81c-0.34-2.15-0.52-4.34-2.41-5.81c-15.01-11.7-13.87-28.15-12.94-44.45
	c0.21-3.73,0.55-7.85,2.25-11.03c4.74-8.85,2.76-17.11-0.86-25.47c-7.47-17.24-11.5-35.74-19.52-52.8c-1.8-3.82-3.33-7.21-7.86-8.36
	c-10.51-2.67-15.02-11.1-17.82-20.27c-2.9-9.5-5.23-19.18-6.51-29.14c-4-31.04-8.21-62-10.39-93.29
	c-2.56-36.81-8.54-73.34-9.96-110.31c-0.55-14.24,1.13-27.98,5.64-41.42c1.47-4.38,3.6-8.7,6.97-11.74
	c15.44-13.95,32.52-24.69,53.94-26.97c15.03-1.6,29.58,0.6,44.1,3.97c3.15,0.73,6.36,1.31,9.57,1.65
	c12.98,1.36,15.17-1.23,12.44-13.72c-1.38-6.32-2.5-12.73-3.12-19.16c-0.5-5.14-3.39-7.13-7.72-9.04
	c-10.82-4.77-22.24-7.84-32.88-13.24c-21.91-11.12-38.33-28.59-55.48-45.32c-5.02-4.9-9.62-10.25-14.89-14.84
	c-6.62-5.75-11.84-12.46-16.56-19.77c-20.63-31.93-28.42-67.72-31.96-104.82c-0.54-5.62-1.49-11.26-0.36-16.93
	c1.19-0.29,2.38,0.12,2.55,1.23c2.13,13.84,13.27,25.49,9.64,40.81c-0.85,3.57-0.32,7.87,5.44,7.47c5.13,1.62,4.2,6.75,5.93,10.33
	c1.71,3.55,2.02,7.61,3.62,11.09c-0.06-1.19-0.83-2-1-3.02c-2.2-18.35,5.31-33.19,17.99-45.27c9.09-8.66,18.54-6.54,24.45,3.83
	c1.06,2.96,1.87,5.97,1.34,9.16c-2.42,6.28-4.65,3.08-6.9-0.12c-4.88-8.57-9.14-9.02-14.7-1.02c-7.44,10.71-11.8,22.38-9.31,35.77
	c0.69,3.73,0.08,7.56,0.6,11.31c0.94,6.74,3.74,9,10.65,8.79c10-2.14,13.72,1.71,14.09,11.3c0.84,22.06,6.75,42.01,24.3,57.6
	c17.93,15.92,37.54,29.14,58.82,39.79c17.01,8.51,35.31,12.77,54.39,14.68c19.11,1.92,37.58-1.98,56.32-3.53
	c36.77-0.86,71.85-7.51,102.31-29.88c29.42-21.62,48.63-48.6,46.2-87.22c-0.67-10.72,0.63-21.57-3.36-31.97
	c-1.44-3.76-3.04-5.39-7.07-3.04c-13.6,7.94-29.05,7.27-43.94,8.89c-9.36,1.02-18.82,0.57-28.24,0.04
	c-12.11-2.72-19.81-12.24-21.19-26.16c-1.22-12.3-2.04-13.32-14.54-14.02c-15.59-0.88-29.62,4.72-43.35,11.22
	c-3.41,1.62-4.1,4.73-4.16,8.13c-0.1,5.39,0.03,10.78-0.07,16.16c-0.31,15.96-4.42,20.51-20.2,22.36c-2.41,0.28-4.83,0.47-7.27,0.35
	c-27.19,1.77-54.35,4.61-81.6,1.38c-12.44-2.68-15.75-12.63-18.55-23.11c-1.2-4.49-0.4-10.05-6.01-12.44
	c-3.25-1.08-6.16-1.46-7.97,2.48c-3.07,6.69-8.87,10.29-15.35,13.05c-4.41,1.47-5.97-0.7-5.97-4.74c0-1.94,0.55-3.86,1.83-5.23
	c12.7-13.69,10.47-29.42,6.34-45.42c0.19-3.71,0.72-7.49-1.72-10.8c-2.39-4.37-1.8-8.29,1.77-11.76c3.63-3.54,7.6-3.63,11.86-1.23
	c2.24,1.26,4.68,1.63,7.04,0.65c26.05-10.79,51.51-22.54,70.41-44.6c3.11-3.38,5.41-7.44,8.78-10.63c0.97-0.76,2.02-1.31,3.31-1.21
	c1.73,0.77,2.17,2.28,2.3,3.97c-1.72,9.2-8.37,15.39-14.24,23.13c14.43-2.7,25.97-9.27,36.4-18.38
	c16.56-14.46,29.43-31.42,36.81-52.29c0.36-1.02-0.23,0.18,0.33-0.74c1.6-2.61,2.45-7.2,6.5-5.62c3.46,1.34,1.76,5.37,0.8,7.96
	c-6.85,18.49-13.6,37.07-29.1,50.74c22.98-2.45,50.41-19.93,61.52-39.28c2.87-4.99,4.28-10.43,3.99-16.28
	c-0.1-2.06-0.64-4.84,2.46-5.03c2.85-0.18,3.04,2.54,3.57,4.59c1.9,7.33,1.05,14.45-1.93,21.33c-1.93,4.47-4.43,8.63-7.18,12.65
	c-19.34,24.32-45.24,35.5-75.63,37.54c-3.45,0.23-6.11,1.84-8.86,3.53c-11.47,7.07-23.49,12.09-37.43,9.91
	c-3.44-0.54-6.33,0.8-8.99,2.82c-2.27,1.73-4.59,3.38-6.49,3.81c-1.98,0.58,0.06,1.56-0.68,0.77c3.5-1.88,7.43-2.17,11.21-3.11
	c15.04-3.14,30.25-1.35,45.37-1.71c11.83,0.08,19.14,6.15,22.68,17.17c1.98,6.17,3.75,12.41,5.36,18.68
	c1.23,4.82,3.81,6.14,8.31,4.07c1.96-0.9,4.06-1.51,5.98-2.5c12.47-6.4,25.81-7.99,39.42-6.03c7.02,1.01,10.03-1.64,11.45-7.9
	c1.01-4.47,2.51-8.86,3.31-13.36c1.95-10.91,8.87-16.84,18.95-19.9c13.51-4.1,27.25-6.44,41.44-6.55
	c8.83-0.07,17.84,1.63,26.48-1.63C459.57,223.83,462.07,222.53,464.78,221.77z"/>
<path class="st0" d="M834.06,919.67c8.58,22.63,21.08,43.5,29.63,66.16c5.44,14.41,12.96,27.8,21.94,40.33
	c9.81,13.69,9.2,18.34-4.54,28.4c-8.92,6.53-18.18,12.57-27.22,18.93c-2.27,1.6-5.75,2.48-4.91,6.51c-95.72,0-191.43,0-287.15,0
	c1.11-1.6,2.21-3.21,3.32-4.81c4.38-3.21,9.67-3.16,14.68-3.66c5.43-0.54,9.03-2.93,11.29-7.8c11.79-25.33,30.36-45.58,48.95-65.93
	c18.57-20.33,42-29.59,68.38-35.09c29.24-6.1,58.75-11.87,86.67-23.04c12.16-4.86,24.93-8.98,34.07-19.36
	C830.41,918.92,832.16,917.8,834.06,919.67z"/>
<path class="st0" d="M524.55,919.4c9.29-0.44,12.49-4.71,9.01-14.69c-4.51-12.91-6.06-26.11-6.95-39.58
	c-0.72-10.94,2.89-20.87,6.02-31.14c4.19,13.43,9.57,26.17,14.64,39.03c5.04,12.79,10.48,25.37,18.3,36.75
	c9.95,14.47,13.98,29.42,11.33,47.69c-5.25,36.21-8.81,72.65-18.32,108.13c-1.31,4.89-3.24,9.61-4.88,14.41c-11.9,0-23.79,0-35.69,0
	c2.66-3.92,0.85-7.36-1.07-10.88c-3.77-6.94-8.4-13.45-10.67-21.15c-0.31-3.07,0.86-5.76,1.99-8.52c2.79-6.82,4.58-14.11,3.63-21.29
	c-1.62-12.22-0.84-24.03,1.69-36.04c3.45-16.35,3.33-33.18,5.7-49.68C519.94,927.88,518.39,921.93,524.55,919.4z"/>
<path class="st0" d="M195.17,1080c3.16-11.1,4.61-22.46,5.07-33.97c2.37-9.01,2.75-18.06,0.58-27.18c-1-4.21-1.28-8.52-1.51-12.85
	c-0.32-6.03-1-11.5,6.02-15.06c6.53-3.32,10.76-0.16,15.43,3.12c0.78,0.46,1.48,1.01,2.13,1.64c4.98,7.07,11.93,10.24,20.42,11.39
	c18.92,2.57,37.54,6.97,56.45,9.67c5.09,0.73,10.17,0.86,15.27,1.01c3.44,0.1,7.14-0.24,9.41,3.31c1.64,3.92,0.93,7.91,0.41,11.93
	c-1.64,12.84-0.77,25.68,0.11,38.54c1.16-9.04,0.85-18.11,0.95-27.17c0.03-2.42-0.06-4.85,0.39-7.25c0.83-4.51,3.12-5.31,6.73-2.6
	c0.86,0.65,1.69,1.38,2.29,2.27c8.57,12.79,15.2,26.59,20.86,40.87c0.3,0.75-0.09,1.58-0.41,2.33
	C302.24,1080,248.71,1080,195.17,1080z"/>
<path class="st0" d="M493.77,1052.36c6.61,9.11,11.01,19.76,19.37,27.64c-50.29,0-100.58,0-150.88,0c-3.14-1.6-4.27-4.6-5.58-7.6
	c-6.58-15.1-13.77-29.83-25.98-41.45c-2.99-2.85-5.39-6.21-3.01-10.74c4.23-3.89,9.23-1.52,13.94-1.78
	c33.32-1.8,64.53,7.17,95.36,18.33c14.96,5.41,30,10.65,45.99,12.39C486.74,1049.56,490.5,1050.25,493.77,1052.36z"/>
<path class="st2" d="M328.04,1021.77c0.09,1.9,0.32,3.74,1.82,5.16c15.66,14.73,24.42,33.66,32.41,53.07c-2.16,0-4.33,0-6.49,0
	c-9.06-15.45-13.57-33.49-27.3-47.95c0,12.28,0.19,23.38-0.1,34.47c-0.1,3.96,2.01,11.01-2.8,11.04c-5.3,0.03-4.1-7.16-3.99-11.4
	c0.38-14.82,1.21-29.64,1.87-44.45C325.02,1018.9,326.55,1018.91,328.04,1021.77z"/>
<path class="st3" d="M464.78,221.77c-0.51,4.26-3.73,3.74-6.65,3.77c-7.38-5.1-5.98-13.31-7.33-20.54
	c-0.23-2.76-0.52-5.49-3.63-7.12c1.23,1.02,2.11,1.95,2.35,3.33c-0.07,5.39-3.77,6.6-8.09,6.92c-8.38,0.63-16.54-1.06-24.7-2.6
	c-2.11-0.4-4.46-1.21-5.5-3.08c-5.35-9.57-15.83-13.39-23.03-20.83c-2.66-2.01-3.33-5.44-5.75-8.17c-1.44,7.95-3.74,15.4-5.9,22.8
	c-4.45,15.2-14.45,25.59-30.59,29.01c-5.59-3.29-6.51-6.78-1.39-9.89c12.47-7.56,17.37-20.02,22.89-32.27
	c3.64-8.08,5-16.38,3.41-25.17c-0.55-3.04-2.01-7.19,1.95-8.4c3.18-0.97,5.93,2.06,7.71,4.83c3.04,4.74,4.69,10.25,8.51,14.59
	c7.42,8.42,16.03,15.1,27.64,19.47c-2.06-3.15-4.98-4.99-4.93-8.3c0.28-1.33,1.08-2.13,2.4-2.41c9.47,4.58,18.66,9.93,29.46,10.92
	c3.89,1.72,6.96,3.38,6.31-3.8c-1.07-11.77-0.89-23.63-3.78-35.25c-8.04-32.3-33.95-44.26-63.82-29.22
	c-3.13,1.57-6.13,3.4-9.33,4.85c-2.43,1.06-4.93,1.81-7.63,1.57c-3.93-0.6-6.58-2.7-7.69-6.59c0.23-4.8-1.61-8.67-4.47-12.56
	c-4.5-6.11-9.41-11.77-14.73-17.17c-7.84-7.96-17.32-11.57-28.32-11.92c-55.5-1.8-106.13,13.91-152.22,43.92
	c-31.79,20.7-55.81,48.07-66,85.9c-3.71,13.78-9.78,27.02-11.14,41.33c-1.87,19.58-1.27,39.19,2.36,58.61
	c0.46,4.17,3.31,8.3,0.22,12.53c-1.5,2.1-3.5,3.81-6.05,2.71c-2.66-1.15-2.2-4.03-2.21-6.43c-0.02-6.19-0.1-12.38,0.02-18.57
	c0.09-4.56-0.54-8.67-5.26-10.79c-3.15-1.42-2.69-4.19-2.94-6.87c-0.3-3.34,1.38-7.05-1.62-9.96c-1.18-17.94,4.22-35.24,5.25-52.95
	c1.58-27.13,16.9-47.82,31.67-68.74c2.73-3.86,7.09-6.57,10.65-9.85c29.84-27.49,63.08-49.49,101.72-62.69
	c5.34-1.82,10.82-3.31,16.29-4.7c9.88-2.51,19.94-3.93,29.43-8.35c12.42-5.78,26.04-2.79,39.12-2.8c6.91,0,13.94-0.71,20.9,0.97
	c21.91,5.29,36.77,19.37,48.32,37.81c1.74,2.79,1.76,6,1.63,9.71c8.42-3.43,15.35-7.66,23.42-9.12
	c22.94-4.15,42.74,0.36,55.38,21.56C467.67,152.88,474.34,186.13,464.78,221.77z"/>
<path class="st4" d="M915.44,422.26c4.58,0.38,9.22,0.29,11.67,5.48c2.48,5.24-0.57,8.74-3.36,12.35
	c-9.47,12.26-14.82,26.73-21.59,40.42c-4.35,8.8-11.34,12.43-18.61,9.07c-7.33-3.39-9.55-11.57-4.73-20.1
	c8.31-14.7,15.1-30.35,26.91-42.92C908.58,423.54,911.34,421.74,915.44,422.26z"/>
<path class="st4" d="M47.32,405.41c-0.13-7.53,5.65-12.73,11.76-10.86c10.39,3.18,20.22,7.69,26.63,17.09
	c5.91,8.66,11.32,17.66,17.3,26.26c2.81,4.04,2.7,6.68-1.04,10.16c-4.01,3.73-8.33,6.4-12.79,2.7
	c-14.01-11.64-27.38-24.04-38.89-38.24C48.46,410.27,47.26,407.44,47.32,405.41z"/>
<path class="st4" d="M146.39,474.58c0.23,10.57-12.1,23.14-22.91,23.35c-9.55,0.18-21.29-11.07-21.5-20.61
	c-0.23-10.23,9.81-18.5,23.08-19C136.89,457.87,146.18,464.95,146.39,474.58z"/>
<path class="st5" d="M888.16,509.76c0.07,8.67-7.02,15.86-15.76,15.99c-6.98,0.1-13.13-6.05-13.34-13.36
	c-0.23-7.98,7.74-15.92,16.07-16.02C882.55,496.28,888.1,501.97,888.16,509.76z"/>
<path class="st6" d="M869.77,347.85c-4.36-0.09-7.51-4.94-4.74-8.64c8.18-10.89,18.98-18.9,30.77-25.59
	c1.61-0.91,3.25-0.45,4.36,0.93c1.57,1.96,1.28,4.01-0.39,5.82c-3.46,3.75-6.84,7.6-10.48,11.18c-4.79,4.71-9.87,9.13-14.68,13.82
	C873.18,346.75,871.78,347.79,869.77,347.85z"/>
<path class="st7" d="M908.94,348.72c-0.4,1.94-1.79,2.69-3.23,3.48c-8.31,4.57-17.29,7.21-26.47,9.28c-2.95,0.67-5.56,0.17-6.3-3.19
	c-0.76-3.49,1.69-4.74,4.55-5.31c8.96-1.78,17.77-4.04,26.37-7.17C906.5,344.84,908.66,345.49,908.94,348.72z"/>
<path class="st8" d="M897.88,395.33c-0.37,2.86-1.58,3.66-3.93,2.68c-10.32-4.31-19.2-10.87-27.78-17.88
	c-1.13-0.93-1.78-2.1-0.96-3.51c0.84-1.43,2.07-1.48,3.41-0.64c9.13,5.73,18.27,11.43,27.37,17.21
	C896.83,393.73,897.36,394.73,897.88,395.33z"/>
<path class="st0" d="M359.11,120.1c1.53,2.26,2.57,5.11,6.02,5.12c5.11,0.04,7.15,5.48,11.65,6.6c5.3,1,10.68,1.87,16,2.08
	c23.59,0.92,48.64,20.71,54.69,50.41c0.67,3.28,1.28,6.91-4.28,5.78c-10.78-1.02-20.84-3.84-28.89-11.63
	c-1.36-0.57-2.73-1.13-4.12-3.22c1.23,2.2,1.72,3.68,2.26,5.13c2.28,3.76,5.88,6.16,9.41,9.06c-3.02,3.25-6.24,1.18-8.74,0
	c-14.46-6.79-26.66-16.09-33.01-31.48c-1.89-4.58-2.02-4.53-8.51-7.54c5.79,18.9-1.95,34.43-10.12,50.09
	c-3.91,7.5-9.76,12.43-16.56,16.78c-4.45,2.85-4.13,5.26,1.04,6.77c0.81,9.42,2.99,10.5,11.33,5.56
	c8.15-4.83,13.91-11.62,17.85-20.3c4.42-9.74,9.94-18.98,13.1-29.29c7.86,6.41,18.32,9.65,23.21,19.7
	c2.35,4.81,31.13,8.69,35.24,5.1c1.71-1.5,1.66-3.24,0.93-5.15c3.57-1.86,2.94,2.72,4.96,3.23c1.1,7.73,1.05,15.73,5.56,22.62
	c-0.21,5.13-4.17,3.09-6.59,3.13c-16.98,0.31-34.04-0.79-50.77,3.32c-2.62,0.64-5.25,1.2-7.86,1.9
	c-11.46,3.07-19.81,8.63-21.28,21.95c-0.71,6.48-2.38,13.13-5.6,19.21c-1.27,2.41-2.12,3.2-4.68,2.51
	c-18.25-4.9-35.26-0.87-51.42,7.73c-6.97,3.71-9.33,1.37-10.6-5.61c-1.2-6.59-3.4-13.01-5.33-19.45
	c-2.85-9.51-8.94-15.15-19.24-15.48c-5.22-1.61-10.72,0.37-16.5-1.27c2.21-6.14,7.59-6.46,12.31-6.83
	c7.05-0.56,13.86-2.26,20.81-3.2c23.9-3.21,41.81-16.38,57.39-33.68c3.09-3.43,3.12-7.98,5.14-11.77
	c6.82-10.65,12.06-21.69,8.4-34.86c-0.18-0.66-0.55-1.27-0.84-1.93c-0.77,0.31-1.64,0.56-1.62,0.67
	c2.65,15.9-6.53,26.72-16.59,36.59c-15.05,14.77-33.67,22.67-55.01,25.55c17.96-16.7,26.71-38.01,32-61.46
	c-15.77,39.07-39.25,69.74-82.75,79.3c5.39-8.68,13.07-15.67,16.12-25.66c0.65-8.85,5.11-17.12,3.96-25.83
	c-0.05-1.49-1.23,0.03-0.25-0.42c0.86,6.19-0.24,12.05-2.97,17.65c-0.59,0.63-1.64,1.12-2.12,0.64c-6.94-7.01-13.84-3.09-20.65,0.07
	c-5.14,2.38-10.57,4.1-15.54,6.86c-4.86,2.7-8.8,6.27-10.61,11.7c-0.9,2.68-1.55,5.43,2.44,6.3c9.57-0.47,17.14-7.14,26.43-8.44
	c2.81-0.4,5.5-2.27,8.45-0.58c-4.92,8.72-12.77,14.44-20.82,19.78c-16.12,10.71-32.68,20.68-51.1,27.04
	c-2.49,0.86-5.13,2.88-7.98-0.39c-2.85-3.26-6.73-3.35-10.08-0.41c-3.53,3.08-4.13,6.77-1.28,10.74c1.27,3.18-0.26,6.75,1.4,9.87
	c1.14,4.69,2.56,9.33,3.37,14.08c2.12,12.35-0.28,23.51-9.39,32.72c-2.32,2.35-2.72,5.47-1.63,8.22c0.67,1.7,2.83-0.31,4.34-0.14
	c11.02-0.36,17.33-7.61,23.03-15.75c4.71-0.14,6.38,2.21,6.67,6.82c0.42,6.45,2.28,12.66,4.77,18.66c2.12,5.11,6.07,8.06,11.12,9.81
	c3.51,3.13,7.66,5.21,12.29,5.46c19.32,1.07,38.59,0.35,57.8-2.03c5.11-0.63,9.19-4.3,14.34-4.76c22.94-1.65,24.47-3.27,24.49-26.03
	c0.02-20.05-0.01-20.13,18.89-26.82c13.1-4.64,26.35-7.78,40.41-4.14c4.21,1.09,6.45,2.33,6.37,7.27
	c-0.13,7.86,1.26,15.57,5.74,22.38c3.41,5.19,7.62,9.12,14.21,9.55c5.59,0.47,10.8,1.77,16.1,4.07c6.17,2.68,13.22,1.93,19.96,1.01
	c8.55-1.16,17.13-2.04,25.69-3.08c6.85-0.83,8.58,0.85,7.76,7.42c-1.3,10.46-3.79,20.36-9.48,29.71
	c-19.24,31.64-41.82,60.19-72.25,81.85c-16.57,11.79-34.7,20.48-54.27,26.1c-34.82,5.85-69.44,6.8-102.67-7.29
	c-21.62-9.16-41.51-21.58-59.58-36.72c-2.47-2.07-4.59-4.57-7.12-6.55c-13.36-10.47-22.07-24.6-24.11-40.72
	c-0.85-6.71-5.67-13.71-1.82-21.75c2.49-5.2-4.79-9.09-12.25-6.74c-3.17,0.25-3.24-2.29-3.62-4.26
	c-2.84-14.58-1.49-28.94,3.96-42.61c2.31-5.79,5.31-12.55,13.98-11.38c0.64,1.58,0.68,3.92,2.57,4.26c1.5,0.27,0.91-1.86,1.45-2.83
	c0.12-0.8,0.49-1.45,1.14-1.94c6.05,3.34,3.21,8.83,3.1,13.53c-0.1,3.82-1.99,7.69,0.98,13c5.99-17.54,3.42-32.82-3.46-48.57
	c-1.79,2.47-1.84,4.59-1.31,6.85c0.56,2.36,1.13,4.73,0.33,7.16c-0.53,1.15-1.21,2.07-2.68,1.86c-4.88-9.77-13.57-11.43-21.93-2.97
	c-12.17,12.32-18.85,27.22-17.06,45.06c0.22,1.74,2.21,4.05-1.44,4.57c-2.78-8.09-5.56-16.18-8.34-24.27
	c-0.65-4.15-1.3-8.3-1.95-12.45c-7.47-45.48,6.88-85.18,35.13-119.58c14.93-18.18,33.04-34,52.74-47.57
	c24.98-17.21,50.2-33.69,79.51-43.07c20.21-6.47,40.78-12.48,61.81-11.31c14.77,0.83,31.11,3.49,38.85,20.34
	C351.71,112.08,357,114.96,359.11,120.1z"/>
<path class="st0" d="M798.51,269.05c-3.78,1.3-7.58,2.55-11.35,3.9c-3.3,1.18-7.62,2.36-5.9,6.9c1.37,3.62,4.33,6.97,9.29,6.14
	c4.82-0.81,9.63-0.99,14.47-0.24c5.49,13.18,6.26,26.56,1.66,40.15c-7.28,0.95-14.12,2.88-19.13,9.19
	c6.33-1.99,12.38-5.3,19.27-4.23c4.07,8.85,4.95,18.21,4.54,27.78c-2.24,3.89-5.27,1.53-7.81,0.7c-4.62-1.51-8.52-0.62-12.02,2.52
	c-6.72,6.03-7.56,22.63-1.51,29.25c4.68,5.11,10.27,4.63,15.2-1.14c4.19-4.9,4.5-11.51,7.65-16.86c2.63-1,3.41,1.09,4.5,2.67
	c2.17,4.06-1.53,9.75,3.64,12.99c0.98,4.37,3.65,8.73,0.13,13.13c-4.86,3.35-10.59,3.51-16.12,4.45c-2.24,0.38-5.77,0.61-5.53,3.42
	c0.26,3.05,3.8,3.53,6.46,3.44c5.96-0.19,11.44-2.6,17.05-4.35c2.49,2.32,1.95,5.43,2.16,8.34c0.65,8.97-0.36,18-2.23,26.55
	c-5.43,24.79-12.36,49.21-24.4,71.82c-9.67,18.16-26.47,28.75-42.63,39.98c-2.86,1.99-6.16,3.34-8.84,5.66
	c-13.23,6.06-27.37,6.11-41.38,5.33c-26.43-1.48-52.75-3.83-78.4-11.29c-17.28-5.02-32.3-13.53-45.18-25.98
	c-1.77-1.71-3.53-3.39-3.48-6.11c4.09-9.03,9.23-17.53,13.4-26.57c15.56-33.71,10.55-64.8-10.41-94.31
	c-4.19-12.63-6.07-25.58-5.87-38.89c0.14-8.88,0.41-17.78,0.01-26.64c-0.32-7.19,1.81-13.17,6.56-18.44
	c7.21-8.02,14.6-15.86,23.6-21.93c2.36-1.59,5-4.22,7.95-2.17c2.37,1.64,1.84,4.84,1.59,7.54c-0.19,2.06-1.02,4.17,0.58,6.97
	c11.01-7.31,22.99-11.69,35.84-13.4c3.75-0.5,8.13-2.2,10.64,2.71c-0.37,1.85-1.44,3.46-1.94,5.29c-0.6,2.18-0.8,4.33,1.17,5.93
	c1.93,1.57,4.14,1.26,6.08,0.13c5.37-3.14,11.17-5.35,16.7-8.11c13.28-6.64,26.82-12.34,41.07-16.76
	c20.1-6.23,33.7-20.51,43.52-38.75c2.33-4.32,1.78-8.21-0.11-12.3c-0.05-0.84,0.26-1.51,0.93-2.02c5.28-0.9,6.59,3.48,8.86,6.6
	c3.47,6.8,8.27,12.14,15.75,14.68c2,0.68,3.88,1.69,4.77,3.85C798.88,260.71,800.87,265.03,798.51,269.05z"/>
<path class="st0" d="M513.07,884.35c-11.19-17.46-18.64-36.73-26.04-55.89c-12.66-32.75-16.3-67.67-22.79-101.89
	c0.62-14.56-1.74-28.96-2.87-43.4c-2.28-29.02-3.21-57.95-1.78-87.07c1.31-26.65,6.38-53.01,5.63-79.78
	c-0.12-4.33,0.39-8.61,1.22-12.86c2.59-13.27,4.15-26.63,3.61-40.18c-0.48-12.28,2.95-24.65-0.9-36.85
	c17.49-32.59,20.13-66.63,10.01-101.93c7.07-8.47,8.33-19.77,14.29-28.88c17.61-26.94,38.98-49.73,66.02-67.83
	c15.79-10.57,32.42-18.22,50.16-23.73c25.23-7.84,50.6-16,77.02-18.22c22.57-1.9,45.59-7.08,67.88,2.42
	c2.55,1.09,4.72,0.23,6.89-0.97c1.78-0.5,3.4-0.3,4.76,1.05c28.45,6.4,45,24.59,53.81,51.87c6.75,20.9,12.6,41.71,11.92,63.86
	c-0.14,4.57-0.66,9.13-1.01,13.69c-1.48,0.5-2.14,0.11-1.63-1.52c0.12-22.1-4.12-42.77-19.47-59.84c-4.02-3.01-8.32-5.11-13.37-6.25
	c-7.49-1.68-13.29-6.41-17.95-12.47c-2.39-4.96-8.76-6.53-10.4-12.14c-0.25-1.59,0.33-3.04,0.71-4.53c1.19-1.6,1.5-3.51,1.76-4.57
	c-0.03,1.54-1.5,3.43-2.18,5.6c-7.82,18.09-23.09,28.11-40.07,35.64c-10.82,4.8-22.34,8.07-33.84,11.12
	c-11.19,2.97-22.5,5.18-32.93,10.9c-7.91,4.34-17.33,3.28-26.18,3.98c-1.24-0.37-2.22-1.04-2.64-2.33c0.51-3.72,3.71-5.15,6.25-7.02
	c13.94-10.24,28.61-19.37,43.3-28.46c0.85-0.61,1.63-1.33,2.91-2.17c-1.58,0.85-2.53,1.79-3.66,2.48
	c-24.18,14.79-49.06,28.42-72.73,43.99c-27.92,18.38-50.25,41.43-59.78,74.74c-2.82,9.84-7.24,19.19-9.53,29.23
	c-0.7,3.06-2.37,5.18-5.8,5.98c-11.67,2.71-14.86,6.8-15.23,18.9c-0.07,2.16,0.05,4.32-0.33,6.46c-1.6,4.54-4.1,8.69-5.14,13.51
	c-2.87,13.37-0.53,17.65,12.76,22.31c2.97,3.58,4.5,8.75,10.27,9.23c0.89,0.61-0.23-0.11,0.74,0.3c2.87,1.22,5.01,6.58,8.64,3.03
	c3.13-3.06,3.17-7.73,1.11-11.93c-1.16-2.37-3.22-4.26-3.82-6.95c-0.39-1.93,0.08-3.75,0.77-5.52c1.37-3.5,0.21-5.18-3.57-4.9
	c-5.86,0.44-8.72-3.21-10.99-7.84c-3.27-6.66-4.96-13.72-4.73-21.08c0.32-10.53,5.5-13.51,14.74-8.86c1.47,0.74,3.12,0.79,4.69,1.2
	c5.01,3.88,5.12,10.84,9.5,15.12c2.72,4.33,5.47,8.66,8.2,12.98c8.7,13.76,8.25,29.2-1.42,42.33c-4.48,6.08-9.53,11.71-14.64,17.3
	c-9.81,10.75-16.13,22.98-13.69,38.22c0.51,3.17,1.09,6.32,4.25,9.75c-8.14-21.17,0.57-36.54,14.02-50.53
	c8.49-8.82,16.23-18.05,18.73-30.63c1.51-7.56,0.58-14.43-3.56-20.93c-4.05-6.36-8.21-12.66-12.16-19.1
	c-4.03-4.76-5.36-10.95-8.63-16.12c-2.56-10.52,2.52-19.53,5.79-28.87c0.52-1.49,1.52-3.15,3.47-2.78c2.37,0.44,3.44,2.51,4.28,4.52
	c4.17,9.97,8.04,20.07,12.78,29.78c3.92,8.03,7.62,16.1,9.76,24.83c5.98,24.35,5.02,47.6-10.3,68.81
	c-4.9,6.79-9.39,13.87-13.96,20.89c-7.94,12.22-9.47,24.32-0.29,36.87c4.96,6.77,4.19,8.4-4.27,9.48
	c-22.04,2.81-33.68,16.42-39.31,36.66c-2.91,10.49-3.2,21.34-4.53,32.04c-2.13,17.23-7.68,33.09-17.44,47.46
	c-0.45,0.67-0.79,1.43-1.27,2.07c-8,10.61-11.4,21.94-5.51,34.74c-0.18,3.69-2.78,6.37-4.05,9.61
	c-4.06,10.34-1.36,21.13,10.67,21.89c4.91,0.31,7.22,4.15,10.35,7.78c7.86,9.13,9.65,20.27,12.4,31.04
	c2.1,8.23,8.28,14.35,10.1,22.52c-7.87,20.29-11.65,41.21-9.56,63.01C514.11,880.66,514.34,882.54,513.07,884.35z"/>
<path class="st0" d="M256.61,893.8c-34.63-14.87-70.6-26.47-104.16-44.05c-14.5-7.6-21.69-17.72-20.8-33.8
	c-1.67-15.73-5.01-31.21-6.61-46.97c-0.92-9.04,1.26-17.72,1.2-26.59c-0.16-24.26,1.15-48.57-2.89-72.67
	c-0.58-3.47-0.23-7,0.3-10.48c1.47-9.67,1.45-19.35,0.01-29.02c-3.22-21.66,5.9-40.06,15.48-58.3c1.39-2.65,4.11-4.23,6.73-5.68
	c13.44-7.43,26.53-15.55,41.46-19.94c4.87-1.43,9.44-2.72,13.28,1.94c-8.78,14.48-18.43,28.47-25.23,44.09
	c-2.71,6.22-5.37,12.35,3.44,16.07c2.4,9.6,8.53,14.61,18.35,16.08c8.58,1.29,16.75,5.41,25.61-0.05c4.85-2.99,11.58-2.15,16.2-6.36
	c2.12,0.6,4.24,1.2,6.36,1.8c12.86,9.67,25.87,4.88,38.84,0.32c2.18-0.77,3.83-3.1,6.57-2.15c4.79,23.74,5.33,48.26,12.88,71.49
	c6.65,20.47,13.6,40.85,20.39,61.28c0.51,1.52,0.78,3.12,1.16,4.68c1.11,11,0.02,21.52-6.75,30.8
	c-12.46,0.59-17.72,8.83-21.99,19.25c-5.69,13.88-6.22,13.78-20.66,8.65c-16.76-5.95-33.84-10.79-51.18-14.74
	c-7.51-14.55-10.31-30.57-14.48-46.16c-7.1-26.59-15.05-52.95-22.13-79.54c-0.97-3.63-2.77-7.07-2.14-10.99
	c-0.49-0.96-1.11-1.85-1.78-2.71c0.54,0.87,1.2,1.65,1.71,2.55c-0.26,1.67-0.35,3.33,0.02,5c-1.83,29.29,4.81,57.66,9.18,86.27
	c1.72,11.24,0.72,22.52,1.01,33.78c-0.2,1.76,0.12,3.47,0.61,5.16c1.2,6.87,4.89,11.77,11.24,14.83
	c12.03,5.8,19.93,15.77,28.35,25.87c13.23,15.88,19.15,34.13,22.81,53.68C259.5,889.75,261.39,893.03,256.61,893.8z"/>
<path class="st3" d="M482.22,723.41c-6.38-9.99-5.97-20.03,0.72-29.48c15.23-21.51,23.43-45.22,24.15-71.62
	c0.14-5.06,1.52-10.13,2.69-15.1c6.26-26.44,20.75-38.45,47.77-39.73c0.11-0.46,0.45-1.14,0.26-1.36
	c-14.04-16.62-14.77-25.98-3.26-44.35c3.15-5.02,6.19-10.17,9.85-14.81c20.25-25.67,21.56-53.84,10.28-83.09
	c-6.26-16.23-14.62-31.63-21.2-48.16c-3.61,10.14-9.58,19.51-7.54,30.93c0.59,2.08-0.45,2.57-2.26,2.31
	c-3.29,1.7-6.49,3.36-8.41-1.8c-1.36-3.63-3.57-2.57-5.52-0.54c-2.53,2.64-3.89,5.83-3.59,9.55c0.63,7.83,1.71,15.52,5.78,22.5
	c2.19,3.75,4.78,5.83,9.18,3.57c2.04-1.05,4.13-1.75,5.83,0.4c1.88,2.37,0.65,4.67-0.76,6.66c-1.41,1.98-3.35,3.63-2.08,6.42
	c3.01,11.01,1.02,14.8-8.43,16.03c-6.63,0.33-9.83-2.82-9.61-9.45c-0.69-1.92,0.35-2.94,1.9-3.7c1.85,0.1,2.54,1.51,3.27,2.87
	c1.02,1.84,2.45,3.33,4.25,1.21c2.36-2.79,1.6-5.38-1.56-7.21c-1.07-0.45-2.13-0.88-3.2-1.32c-10.95-6.81-15.15-16.85-14.05-29.41
	c0-5.34-1.44-10.84,1.04-15.95c3.05-6.27,6.85-12.04,15.17-10.27c3.96,0.84,3.72-1.65,4.42-3.88c4.37-13.83,7.98-27.96,13.36-41.39
	c10.77-26.88,30.17-47.12,53.88-62.79c24.9-16.45,50.59-31.77,77.06-45.68c1.61-0.6,1.91,0.24,1.76,1.59
	c-16.68,11.5-33.36,23-50.04,34.5c-0.94,2.17,0.31,2.01,1.76,1.65c30.06-4.47,58.06-16.23,86.93-24.87
	c19.87-5.94,35.45-18.7,46.03-36.96c0.64-0.63,1.24-0.57,1.82,0.08c-0.23,1.6-0.45,3.19-0.68,4.79c-0.86,2.07,1.63,4.07,0.12,6.15
	l0.26,0.41c-9.47,15.87-22.71,27.53-39.74,34.65c-5.19,2.17-10.21,4.57-15.16,7.2c-1.12,0.35-2.27,0.54-3.42,0.65
	c-9.83,1.3-19.03,5.11-28.65,7.26c-1.07,0.24-2.01,0.9-1.09,2.27c2.1,1.32,4.03,0.42,5.96-0.32c2.73-0.94,5.19-2.4,7.61-3.97
	c1.18-0.35,2.32-0.26,3.42,0.31c1.37,1.15,2.14,2.5,1.45,4.34c-6.6,6.85-16.04,8.48-24,12.84c-3.49,1.91-7.18,3.78-11.06,4.89
	c-2.78,0.8-5.61,0.84-3.93-3.6c0.18-0.37,0.36-0.74,0.54-1.12c-1-0.2-2.04-0.67-3.01-0.55c-14.51,1.69-28.93,3.67-40.15,14.45
	c-1.5,1.44-3.12,2.39-5.03,1.24c-1.96-1.18-1.53-3.28-1.25-5.12c0.64-4.18,2.99-8.16,1.21-12.98c-14.3,7.45-24.39,19.34-34.29,31.41
	c-0.61,0.74-0.93,1.96-0.89,2.94c0.91,24.46-2.12,49.2,5.21,73.2c7.41,25.3,15.47,50.49,9.29,77.46
	c-2.14,9.33-5.05,18.35-11.33,25.63c-4.83,5.61-6.16,10.85-1.77,17.07c12.19,15.55,28.42,24.92,47.05,30.44
	c28.87,8.55,58.64,10.56,88.5,11.66c10.81,0.4,21.42-1.24,31.64-4.95c16.02-6.37,32.28-12.48,45.47-24.01
	c10.47-9.16,21.63-17.8,28.09-30.77c1.46-2.94,3.21-6.36,7.34-6.79c3.43,2.32,1.13,4.8-0.01,7.01c-1.59,3.1-3.15,6.37-5.43,8.93
	c-5.05,5.67-6.68,10.39,1.4,14.87c3.2,1.78,3.42,5.53,2.23,8.73c-3.59,9.64-5.46,19.51-6.05,29.84c0-12.03,0-24.06-0.01-36.09
	c0-0.21-0.21-0.6-0.34-0.6c-0.45-0.02-0.9,0.09-1.36,0.16c-3.22,6.12-8.32,10.58-13.52,14.85c-16.75,13.75-35.86,22.87-56.76,28.37
	c-9.5,2.5-9.5,2.43-8.62,12.4c0.19,2.16,0.61,4.27,1.11,6.37c0.42,1.86,0.5,3.75,0.58,5.64c0.4,8.96,0.4,8.96,9,8.2
	c5.81-0.51,10.3,3.29,12.41,11.63c2.93,11.55,3.81,23.44,4.54,35.29c1.59,25.8-3.52,49.82-17.86,71.83
	c-5.63,8.64-7.67,18.26,0.27,27.58c2.46,2.88,5.31,6.33,4.27,10.92c-1.83,3.94,0.39,7.61,2.07,10.38
	c14.76,24.26,27.87,49.66,48.05,70.29c2.81,2.88,8.47,5.81,4.8,11.83c-3.97,0.92-5.76-2.31-7.97-4.41
	c-13.98-13.32-23.76-29.83-34.22-45.78c-2.94-4.49-5.71-7.03-11.56-6.45c-7.97,0.78-12.98-5.58-18.96-9.5
	c-2.45-3.26-3.48-7.03-4.03-10.98c-0.25-3.67-0.48-7.36,0.36-10.96c0.78-3.36,2.67-5.68,6.53-5.5c4.86,2.62,3.32,7.37,3.76,11.46
	c0.34,3.15-0.3,6.66,3.13,8.63c1.06,0.61,2.27,0.16,2.87-0.77c2.39-3.71-0.72-6.18-2.51-8.54c-2.62-3.46-3.4-7.9-6.45-11.04
	c-2.11-1.33-2.84-3.87-4.63-5.51c-2.91,0.67-2.61,3.28-3.2,5.07c-9.11,27.89-18.84,55.56-28.39,83.3
	c-5.75,16.68-14.79,31.63-24.73,46.09c-0.78,1.14-1.81,1.98-3.24,2.18c-1.71-4.47,1.66-7.74,2.58-11.59
	c0.74-3.09,4.86-6.47,0.17-9.74c-0.93-2.22-0.1-4.26,0.84-6.19c15.74-32.31,24.43-67.15,36.36-100.83c1.35-3.8,2.5-7.67,3.84-11.46
	c0.73-2.22,2.15-4.5-0.53-6.47c-8.49-3.82-16.63-8.38-25.55-11.16c-1.82-0.57-4.19-0.97-4.91-2.52
	c-4.35-9.31-13.19-12.77-21.43-16.4c-0.04-1.72-1.43-0.12-0.54-0.73c1.53,5.03-1.38,9.31-2.32,13.93
	c-11.24,32.68-25.5,64.24-35.25,97.49c-2.75,9.38-6.28,19.05-14.67,25.54c-1.51-0.01-2.31-0.91-2.78-2.23
	c0.44-11.9,5.41-22.79,7.83-34.26c1.8-8.52,2.2-16.26-2.01-23.97c-3.21-14.75-5.08-29.72-7.44-44.61
	c-1.95-12.25-2.02-11.94-14.32-8.62c-22.12,5.98-44.34,11.62-67.05,14.99c-10.96,1-17.46-3.4-18.64-14.87
	c-0.53-5.17-4.88-5.68-9.05-6.3C493.02,732.48,485.71,731.29,482.22,723.41z"/>
<path class="st0" d="M349.36,522.49c20.18-4.63,39.52-12.55,60.07-15.69c10.11-1.54,20.1-2.39,29.93,2.84
	c6.29,3.34,7.55,7.47,7.71,14.09c0.92,36.32-1.27,72.64,0.48,108.95c1.83,37.91,3.41,75.83,10.26,113.28
	c-4.19,3.46-8.26,0.67-12.27-0.37c-5.46-1.42-11.15-2.33-15.9-5.74c-6.75-13.51-8.57-28.32-10.78-42.92
	c-5.16-34.15-7.36-68.66-11.86-103.02c-0.54,3.47,0.1,6.87-0.34,10.24c-3.08,17.8-4.81,35.66-4.75,53.79
	c0.06,16.94-1.89,33.85-1.59,50.85c0.13,7.27,2.28,14.42,1.13,21.71c-0.21,0.89-0.6,1.72-1.12,2.48c-3.54,2.93-7.1,1.24-10.64-0.04
	c-10.15-3.68-19.81-8.48-29.58-13.03c-11.56-5.39-22.73-7.82-31.24,5.31c-0.73,1.13-2.12,1.61-3.59,1.29
	c-17.06-38.75-22.9-80.4-31.35-121.38c-0.85-2.01-0.72-4.09-0.42-6.17c3.8-2.3,5.15,1.53,7.22,3.08c9.86,7.41,21.01,7.6,31.38,0.75
	c7.66-5.06,15.63-9.63,22.26-16.11c1.58-1.54,3.64-2.61,5.89-2.23c9.83,1.63,15.18-3.38,18.22-11.98
	c10.21-2.43,13-11.16,16.27-19.36c7.28-18.26,6.08-20.28-13.06-24.53c-11.17-2.48-22.27-5.11-33.84-3.44
	C347.38,523.72,348.14,522.98,349.36,522.49z"/>
<path class="st0" d="M613.7,853c12.71-18.53,16.69-40.54,24.42-61.07c7.85-20.84,16.05-41.55,24.09-62.32
	c2.51-1.19,4.92-0.36,6.84,1.02c11.33,8.2,25.91,10.31,36.62,19.75c3.83,3.38,8.72,1.48,13.2,1.06c0.8,0.14,1.5,0.49,2.08,1.06
	c-13.19,40.32-23.6,81.64-43.05,119.71c-5.13,8.84-10.04,17.81-15.43,26.48c-14.64,23.57-41.42,32.25-66.87,21.83
	c-6.17-2.53-10.66-6.91-14.42-12.5c-16.64-24.78-25.14-52.91-32.97-81.16c-5.5-19.83-15.43-37.88-21.25-57.51
	c-0.38-1.28-0.62-2.6-0.92-3.9c3.88-4.39,9.33-3.66,14.31-4.19c14.46-1.55,28.85-4.19,43.4-4.51c17.76-0.39,28.34,8.25,32.1,25.47
	c0.79,3.63,1.48,7.25,2.91,10.69c5.45,7.32,4.94,14.99,2.37,23.34c-3.53,11.49-6.17,23.25-9.19,34.9c-0.35,1.12-0.91,2.24,0.03,3.36
	C612.34,853.76,613.03,853.39,613.7,853z"/>
<path class="st9" d="M410.53,796.2c0.22-0.48,0.5-1.41,0.64-1.39c12.86,2.03,26.03-1.55,38.75,2.23c0.71,0.21,1.06,1.63,1.58,2.49
	c-1.01,4.93-3.24,9.56-3.31,14.74c-0.06,4.95,0.58,9.9,0.13,14.86c0.61-9.18-1.97-18.77,3.44-27.34c4-4.69,16.31-2.72,18.75,2.98
	c0.7,1.64-0.26,3.85,1.76,5.02c2.88,1.8,2.88,5.03,3.73,7.79c4.02,13.12,8.3,26.12,14.57,38.4c4.9,9.59-1.46,16.93-5.22,24.77
	c-2.81,3.59-5.03,7.58-7.64,11.32c-2.96,3.53-6.24,6.96-7.71,11.35c-8.04,24-19.02,47.13-21.17,72.88
	c-0.9,10.73-2.84,11.64-12.67,7.07c-14.95-6.95-31.31-7.94-47.13-11.12c-13.74-2.76-27.46-5.8-41.5-6.91
	c-5.64-0.44-8.22-3.2-6.74-9.26c0.69-2.82,2.13-5.92-0.19-10.45c2.35,14.24-0.61,18.22-12.56,18.24
	c-5.64,0.01-11.36,0.79-16.92-0.93c-4.69-2.89-2.91-6.37-0.61-9.59c9.51-13.28,21.85-20.43,38.73-17.4
	c1.59,0.29,3.19,0.59,4.81,0.44c2.59-0.23,4.71-1.27,5.74-3.79c1.08-2.64-0.16-4.6-1.98-6.47c-1.85-1.91-5.89-2.67-3.85-6.8
	c2.48-13.51,14.33-23.54,13.83-38.42c-0.13-3.83,4.47-7.4,4.76-12.36c0.19-3.15,3.63-0.85,5.34-0.62c4.28,0.59,8.2,3.54,14.29,2.16
	c-4.27-3.48-8.32-3.29-11.93-4.22c-6.81-1.75-8.9-5.11-5.79-11.24c3.72-7.32,5.38-14.74,5.18-23.01
	c-0.28-11.66-3.02-15.17-14.79-16.11c-2.89-0.23-5.76-0.91-10.47,0.76c8.38-11.3,14.03-21.67,16.35-33.57
	c0.35-1.8,1.61-2.64,3.61-1.95c11.35,3.9,22.72,7.72,34.01,11.77c0.57,0.2,0.41,2.41,0.59,3.68c-0.34,2.62-0.74,5.23-1.85,7.67
	c-1.35,5.24-2.85,10.44-4.36,15.64c1.35-4.97,3.08-9.85,4.24-14.87C408.49,801.95,407.9,798.4,410.53,796.2z"/>
<path class="st0" d="M733.59,780.19c1.22,3.12,2.44,6.25,3.66,9.37c3.44,5.18,6.4,10.71,7.57,16.78
	c2.98,15.43,8.8,29.83,14.93,44.18c5.74,13.43,15.53,23.1,28.03,30.09c6.83,3.82,13.86,3.45,20.65-0.92
	c2.82-1.81,5.4-4.67,9.39-3.74c3.45,8.61,0.5,18.29,4.79,26.89c1.68,3.35-2.54,4.11-4.66,5.35c-26.22,15.26-55.05,23.31-84.45,29.01
	c-23.24,4.5-46.59,8.91-70.48,9.07c-15.99,0.11-31.53-2.24-46.93-6.21c-2.82-0.73-5.94-1.1-8.81-0.73
	c-9.03,1.15-17.19,1.43-16.76-12.41c20.45,8.21,40.96,7.9,60.3-4.49c5.32-0.04,9.9,3.32,15.75,2.06
	c14.91-3.2,23.53-13.23,28.69-26.17c9.21-23.08,17.17-46.65,25.24-70.16c3.88-11.3,5-23.18,6.7-34.95
	C727.86,788.56,725.94,781.75,733.59,780.19z"/>
<path class="st10" d="M761.54,188.6c-1.21,4.69-4.52,2.91-6.99,1.9c-16.56-6.82-33.54-5.1-50.88-4.13
	c-39.48,2.2-76.36,14.49-113.41,26.52c-11.29,3.67-20.11,11.32-29.98,17.34c-26.42,16.13-46.1,38.65-63.38,63.81
	c-5.01,7.3-7.49,15.5-10.81,23.41c-1.46,3.47-2.93,6.33-6.92,7.04c-4.24-5.9-6.46-12.18-3.77-19.42
	c-0.65-11.76-2.07-24.03,1.09-35.1c2.7-9.46,10.1-17.61,15.14-26.51c11.02-19.47,26.53-34.27,45.77-45.77
	c13.17-7.87,25.65-16.71,39.83-23.02c22.57-10.04,46.28-14.18,70.58-16.27c11.94,0.02,23.87-0.02,35.79-0.01
	c17.05,1.12,33.74,4.58,49.69,10.42C744.16,172.8,752.62,181.27,761.54,188.6z"/>
<path class="st0" d="M174.09,308.31c5.8,1.81,7.02-2.36,8-6.38c1.73-7.12,2.14-14.47,1.83-21.72c-0.5-11.55,4.91-17.8,15.6-21.32
	c24.5-8.06,49.61-9.92,75.12-8.56c7.25,0.39,12.01,4.19,13.84,11.42c1.78,7.05,3.92,14.01,5.53,21.09c2.5,10.96,7.9,14.03,18.11,8.8
	c10.96-5.62,22.09-9.97,34.6-9.86c1.61,0.01,3.22-0.14,4.82-0.03c15.16,1.03,15.17,1.05,20.51-13.56c1.48-4.05,3.59-8.06,4.08-12.24
	c1.34-11.2,9.21-14.71,18.42-17.48c20.57-6.19,41.73-4.57,62.73-5.1c4.1-0.1,11.03,12.36,10.76,18.7
	c-0.17,4.01-1.31,8.06,0.39,11.97c0.7,1.6,2.2,2.29,3.87,2.6c4.77,12.31,4.14,24.38-1.54,36.25c-4.91,13.92-14.7,22.15-29.25,24.28
	c-14.41,2.11-28.94,3.21-43.5,3.44c-13.06,0.21-18.64-4.54-21.21-17.26c-0.21-1.06-0.19-2.18-0.53-3.19
	c-1.86-5.51,1.87-12.77-3.6-16.75c-7.04-5.12-15.78-7.53-24.36-7.33c-12.97,0.3-25.69,3.05-37.24,9.47
	c-5.34,2.97-8.8,6.84-9.03,13.91c-0.3,9.37-2.53,18.66-3.58,28.03c-0.69,6.17-4.03,8.86-9.92,9.07c-11.31,0.4-22.62,0.91-33.94,1.2
	c-16.72,0.44-33.41,1.35-50.16,0.83c-8.72-0.27-14.43-3.4-15.93-12.48c-0.39-2.38-1.39-4.67-1.63-7.06
	c-0.83-8.19-1.73-16.18-12.94-15.82C172.85,311.57,172.62,309.91,174.09,308.31z"/>
<path class="st10" d="M834.06,919.67c-6.72,4.53-12.46,10.14-19.88,14.04c-22.26,11.68-46.35,17.15-70.41,22.96
	c-16.74,4.04-33.47,8.19-50.35,11.62c-19,3.85-34.33,13.68-47.7,27.16c-21.34,21.52-41.46,43.97-54.12,71.99
	c-1.51,3.35-3.8,5.21-7.22,5.65c-6.4,0.82-12.83,1.42-19.25,2.11c13.08-35.35,19.98-72.07,24.1-109.39
	c1.89-17.07,1.88-17.68,18.84-16.92c11.47,0.52,22.83,3.21,34.28,4.63c26.35,3.27,52.17-1.19,77.98-5.69
	c36.57-6.37,72.29-15.17,104.53-34.67C831.76,908.99,831.02,917.41,834.06,919.67z"/>
<path class="st0" d="M331.89,831.65c6.49,1.74,12.94,3.64,19.48,5.13c2.71,0.62,6.7,1.85,7.53-2.09c1.02-4.89-3.56-4.23-6.54-4.87
	c-0.73-0.16-1.42-0.52-2.17-0.81c4.34-5.84,13.42-8.11,20.67-5.1c6.23,2.59,6.91,8.18,5.92,13.6c-1.28,6.97-3.65,13.89-12.52,14.49
	c-6.99,0.47-14.01,0.44-21.01,0.78c-2.49,0.12-6.23-0.61-6.02,3.29c0.17,3.24,3.51,3.64,6.3,3.69c8.84,0.17,17.65-0.07,26.45-2.14
	c-1.29,16.36-4.09,18.57-19.4,16.95c-3.94-0.42-10.65-3.52-11.42,1.3c-0.95,5.99,6.45,4.27,10.46,5.35c1.8,0.48,3.76,0.35,5.6,0.7
	c2.81,0.54,6.96-2.44,8.11,0.28c1.57,3.74-1.29,7.68-3.49,11.08c-2.23,3.46-5.48,4.23-9.19,2.85c-4.28-1.59-8.45-3.49-12.74-5.06
	c-2.18-0.8-5.01-2.29-6.48,0.52c-1.45,2.78,1.31,4.37,3.22,5.7c4.71,3.27,9.94,5.52,15.67,5.97c3.85,0.3,4.4,1.49,3.01,5.01
	c-2.8,7.13-7.02,11.75-15.31,12.11c-13.02,0.56-25.88,0.03-38.53-3.3c-7.9-2.08-14.55-6.63-21.01-11.27
	c-3.07-2.2-6.01-4.18-9.98-4.81c5.05-5.3,5.69-11.77,6.16-18.26c1.3-18.2,6.52-35,14.43-51.6c4.97-10.42,10.74-20.12,16.6-29.91
	c2.6-4.36,5.95-6.79,11.1-6.43c2.15,8.36-1.72,16.33-1.66,24.57c0.01,1.48-1.44,3.01,0.38,4.32l-0.08-0.12
	C319.52,829.09,325.08,831.64,331.89,831.65z"/>
<path class="st0" d="M753.46,763.76c-4.39-7.08-8.78-14.16-13.17-21.24c-0.54-0.87-1.1-1.73-1.65-2.6
	c7.63-1.93,3.69-9.55,6.91-13.97c18.02-24.76,21.4-52.99,18.37-82.55c-0.91-8.85-1.54-17.76-4.17-26.34
	c-1.22-3.98-2.98-7.71-7.44-8.85c-4.77-1.23-7.48,1.82-9.69,5.61c-5.84-6.64-3.78-14.49-4.18-21.86c0.27-0.47,0.51-1.01,0.92-1.31
	c8.94-6.57,36.06-5.83,44.85,0.82c7.18,5.44,9.03,13,9.98,21.23c2.81,24.19,7.74,47.9,16.06,70.85c3.13,8.63,6.29,17.24,10.55,25.38
	c8.91,17.01,12.89,35.38,15.23,54.23c0.33,2.69,0.61,5.42-1.7,7.54c-12.77-24.11-27.86-46.53-47.26-65.91
	c-4.24-4.23-8.99-7.72-13.79-11.21c-1.48-1.07-2.93-1.39-4.34-0.02c-1.36,1.32-1.28,2.85-0.33,4.39c0.28,0.46,0.54,0.96,0.91,1.34
	c20.02,20.05,7.41,40.23-0.04,60.18c-1.74,4.66-5.45,8.59-8.5,13.24C758.18,769.41,755.82,766.58,753.46,763.76z"/>
<path class="st0" d="M856.92,744.46c7.05,31.09,11.86,62.48,12.23,94.41c0.09,7.42,0.68,15.15-3.16,22.13
	c-4.78,8.7-8.17,9.41-17.81,6.79c-23.12-6.29-39.21-21.52-52.89-40.03c-3.68-4.98-7.03-10.22-10.41-15.42
	c-4.26-6.55-10.22-12.72-12.08-19.92c-1.87-7.26,7.08-11.96,9.64-18.84c5.64-15.17,10.73-30.34,10.99-47.16
	c17.84,24.42,39.08,47.01,37.92,80.28c-0.11,3.21-0.81,6.39-1.23,9.59c-0.5,3.79-3.3,8.56,2.11,10.53c5.17,1.87,6.75-3.24,8.8-6.51
	c10.86-17.31,14.21-36.46,13.21-56.52c-0.29-5.9-1.45-11.76-2.21-17.64c-0.77-1.65-0.86-3.2,1.16-3.89
	C855.14,741.6,856.13,742.96,856.92,744.46z"/>
<path class="st10" d="M834.32,770.71c-1.19-18.36-3.87-36.65-12.14-53.11c-17.54-34.89-26.64-71.94-31.3-110.38
	c-1.26-10.42-9.08-17.99-19.87-18.5c-10.95-0.51-22.07-1.22-32.59,3.24c-2.39-4.42-1.28-9.45-2.51-14.12
	c-1.43-5.44,3.93-4.32,6.34-4.82c22.63-4.7,42.77-14.5,60.67-28.97c5.22-4.22,10.08-8.9,15.1-13.37c0.04,17-0.14,34,0.15,51
	c0.89,52.94,3.57,105.62,21.6,156.25c6,16.84,6.72,34.3,2.66,51.83c-1.01,0.96-2,0.97-2.98-0.05
	C839.66,782.86,834.68,777.41,834.32,770.71z"/>
<path class="st10" d="M323.26,483.17c21.19-10.52,43.25-19.21,62.04-34.37c28.26-22.81,49.06-51.41,67.06-82.36
	c4.12-7.09,3.91-15.6,5.31-23.52c0.82-4.67-2.5-3.17-5.24-2.9c-14.44,1.43-28.71,4.78-43.42,3.38c-2.5-0.24-5.09,0.28-6.39-2.08
	c-2.96-5.35-9.07-2.36-12.88-5.24c19.21,0.96,38.21-1.28,57.21-3.67c7.58-0.96,13.54-5,20.05-9.09c3.39,4.61,5.18,9.85,5.89,15.4
	c2.84,22.14,2.69,44.05-4.5,65.59c-6.99,20.95-22.98,34.52-39.35,47.17C398.06,475.43,361.61,482.86,323.26,483.17z"/>
<path class="st10" d="M200.61,548.21c-11.92-3.8-20.93,4.71-31.23,7.61c-4.02,1.13-7.58,4.05-11.25,6.31
	c-7.84,4.84-17.44,7.2-21.15,17.51c-5.89,16.4-14.36,32.08-11.07,50.51c1.71,9.61,1.62,19.33,0.02,28.95
	c-1.41,8.44,0.64,16.65,1.32,24.92c1.96,23.94,2.18,47.82,0.04,71.76c-1.45,16.21,0.87,32.23,3.6,48.17
	c0.68,3.99,1.41,7.94,0.76,11.99c-5.83-25.51-9.5-51.38-12.7-77.32c-3.57-28.89-7.22-57.77-10.28-86.72
	c-1.44-13.63-2.91-27.35-1.72-41.12c0.74-8.59,0.1-17.21,0.12-25.78c0.07-25.12,21.42-45.85,45.66-49.01
	c16.33-2.13,32.62-4.01,49.12-0.91c5.9,1.11,8.15,2.31,3.17,7.47C203.36,544.26,202.07,546.32,200.61,548.21z"/>
<path class="st0" d="M237.1,540.31c-0.78,12.07,4.54,20.45,14.94,26.45c8.63,4.97,16.63,11.01,25.14,16.21
	c3.47,2.12,4.37,4.05,2.32,7.68c-1.98,3.51-3.44,7.3-5.1,10.99c-6.03,13.4-13.86,16.5-27.74,11.29c-3.8-1.43-3-4.27-3.55-7.16
	c-0.86-4.49,1.41-11.12-4.3-12.85c-6.11-1.84-7.37,5.01-9.92,8.72c-3.44,4.99-6.79,7.65-13.74,6.4
	c-10.33-1.86-20.81-2.97-31.11-5.13c-4.05-0.85-5.12-2.79-3.26-6.67c8.88-18.51,19.19-36.16,30.83-53.08
	c4.23-6.14,9.78-5.83,15.76-4.27c2.51,0.65,5.23,3.02,5.58-1.98C237.01,534.77,236.03,538.79,237.1,540.31z"/>
<path class="st11" d="M492.05,878.92c0.87,8.61-2.19,16.49-4.92,24.32c-4.58,13.15-7.94,27.16-14.94,38.95
	c-13.22,22.26-13.17,44.81-6.74,68.48c2.38,8.77,2.25,9.02-6.77,7.56c-5.35-0.87-10.72-2.21-14.66-6.19
	c-8.13-8.22-17.8-12.81-29.33-13.64c-2.13-0.15-4.4-0.43-6.31-1.29c-30.44-13.75-64.65-8.88-95.82-19.47
	c-8.69-2.95-18.62-2.26-27.98-3.23c-0.08-3.96,3.29-4.67,5.84-5.52c4.33-1.45,8.41-3.42,12.61-5.13c9.68-0.04,19.5,0.37,28.94,1.54
	c7.67,0.95,15.31-0.27,23.04,1.46c7.79,1.74,15.93,2.44,23.82,4.21c8.16,1.83,16.44,3.03,24.65,4.57
	c13.5,2.53,27.26,4.12,39.05,12.14c3.32,2.26,5.02,0.17,6.05-2.65c1.2-3.3,1.94-6.78,2.05-10.28c0.44-14.23,4.26-27.63,9.45-40.75
	c2.97-7.52,5.27-15.29,7.83-22.96c2.33-6.99,5.67-13.39,10.54-18.95c1.53-1.87,2.75-3.94,3.84-6.1c3.04-3.51,2.9-9.53,8.61-10.94
	C492.88,875.86,493.33,877.14,492.05,878.92z"/>
<path class="st12" d="M524.55,919.4c-3.69,9.59-4.12,19.8-4.64,29.79c-0.72,13.69-2.65,27.15-5.31,40.51
	c-1.65,8.3-1.49,16.38-0.44,24.71c1.52,12.04-0.82,23.42-7.88,33.57c-8.56-19.12-17.09-38.26-25.71-57.35
	c-1.27-2.8-2.13-5.77-1.4-8.62c3.58-14.01,3.95-28.85,10.59-42.08c5.13-10.2,8.33-20.99,10.05-32.24c0.52-3.38,1.02-6.76,3.28-10.26
	C510.4,904.89,516.34,913.29,524.55,919.4z"/>
<path class="st12" d="M328.04,1021.77c-1.52-0.75-3.04-1.08-4.58-0.07c-8.85-3.78-18.37-1.14-27.57-3.04
	c-19.85-4.1-40.02-6.64-59.95-10.39c-6.8-1.28-12.1-5.67-14.88-12.42c3.37-3.82,8.08-4.37,12.56-4.15
	c6.37,0.31,11.45-1.78,16.25-5.69c4.68-3.82,9.89-6.51,16.29-4.6c1.93,1.86,4.32,2.61,6.91,2.89c3.28,5.13,7.92,7.63,14.04,8.24
	c21,2.11,41.37,6.98,61.5,13.43c14.38,4.61,29.7,5.52,44.53,8.48c3.46,0.69,6.99,1.15,10.06,2.93
	c14.35,8.33,30.27,12.93,45.52,19.07c8.77,3.53,18.48,3.72,27.57,6.25c4.34,1.21,7.8-4.22,12.27-1.46c1.74,3.7,3.48,7.41,5.22,11.11
	c-20.55-0.23-39.87-6.33-58.46-14.04c-20.87-8.65-43-11.41-64.59-16.76c-12.76-3.17-25.63,0.3-38.37-1.41
	C330.72,1019.94,329.11,1020.27,328.04,1021.77z"/>
<path class="st0" d="M332.93,512.61c2.9,15.66-1.93,27.7-15.58,36.66c-10.12,6.65-19.46,14.49-29.01,21.97
	c-4.19,3.28-7.53,2.72-12.34,0.4c-20.45-9.88-34.87-23.48-34.19-48.21c0.11-4.17-3.24-7.91-2.55-12.37c3.38-2.56,6.14,0.01,8.86,1.3
	c7.04,3.32,13.96,6.89,20.93,10.36c9.14,4.54,18.49,5.09,28.13,1.89c10.4-3.45,21.45-5.2,30.6-11.91
	C329.26,511.61,331.19,510.97,332.93,512.61z"/>
<path class="st10" d="M817.82,875.94c-18.08,14.71-28.69,13.41-48.98-7.88c-13.16-13.82-18.25-32.23-23.17-50.03
	c-2.64-9.55-6.63-18.69-8.42-28.47c3.46,2,7.33,3.32,10.02,6.57c1.25,1.51,3.44,2.5,5.13,1.88c11.56-4.26,14.23,5.1,18.67,11.84
	c10.98,16.65,21.36,33.77,37.32,46.41C815.03,861.14,819.62,867.01,817.82,875.94z"/>
<path class="st0" d="M269.79,908.15c2.5,4.05-0.56,4.26-3.28,4.85c-21.08,4.57-42,9.9-63.4,12.9c-22.03,3.09-17.38,6.11-27.7-16.09
	c-6.91-14.86-9.47-31.34-19.07-47.89c21.64,11.89,42.57,19.18,62.96,27.75c14.36,6.04,29.5,10.42,42.47,19.51
	c1.67,1.17,3.58,1.11,4.95-0.84C267.68,907.17,268.7,907.19,269.79,908.15z"/>
<path class="st12" d="M325.28,726.52c13.77-15.92,18.72-16.76,38.42-7.37c9.45,4.5,19.16,8.44,28.69,12.77
	c2.32,1.05,4.64,1.23,7.07,1.07c5.05,10.12,2.05,20.81,2.11,31.27c0.01,1.84-1.91,2.29-3.64,1.23c-6.6-2.53-11.83-7.34-17.89-10.76
	c-4.19-2.36-8.49-4.69-13.01-6.28c-8.51-3-11.7-0.94-13.66,7.9c-2.66,11.96-3.96,24.24-8.7,37.11c-6.2-14.18-17.26-6.02-26.25-7.19
	c2.25-10.27,4.5-20.53,6.75-30.8c2.68,7.01,5.24,14.07,8.1,21.01c1.1,2.66,2.56,6.17,6.22,5.05c4.03-1.24,2.48-5.11,1.67-7.61
	C336.04,758.05,330.61,742.3,325.28,726.52z"/>
<path class="st3" d="M470.76,302.9c1.25-12.05,2.63-24.1,1.54-36.25c4.49-13.35,9.6-26.28,21.19-35.46c1.55-1.23,3.15-3.75,3-5.53
	c-0.79-9.16,6.05-13.58,11.55-18.26c11.95-10.17,23.65-19.94,39.59-25.14c14.42-4.71,29.19-10.86,41.79-20.39
	c1.16-0.88,3.11-1.32,4.56-1.1c15.55,2.36,29.85-4.92,45.03-5.79c5.61-0.32,11.25-0.46,16.87-0.77c8.03-0.45,16.11,0.79,24.13-1.41
	c3.26-0.89,7.32-1.09,10.42,0.03c18.73,6.76,39.29,7.14,57.27,16.13c8.24,4.12,17.46,8.05,18.51,19.36
	c-1.55,0.09-3.11,0.18-4.66,0.27c-5.84,1.18-8.29-3.63-11.68-6.68c-12.42-11.13-27.9-14.81-43.57-17.95
	c-7.05-1.41-14.18-2.43-21.27-3.63c-12.9-0.88-25.8-0.67-38.7-0.1c-27.01,3.54-53.79,8.15-78.2,21.08
	c-35.34,18.72-66.42,41.72-84.66,79.27c-4.57,9.4-5.97,18.06-5.97,27.71c0,5.69-0.46,11.3-2.09,16.77
	C472.7,306.8,471.04,306.31,470.76,302.9z"/>
<path class="st13" d="M488.55,1041.26c-7.27,5.23-14.76,3.2-22.74,1.59c-22.62-4.55-43.29-13.89-63.97-23.61
	c-9.21-4.33-19.79-4.79-29.9-6c-16.38-1.97-31.92-7.41-47.58-11.95c-13.59-3.94-27.48-4.66-41.19-7.04
	c-6.31-1.1-10.13-3.15-10.09-9.93c20.42-0.98,40.38,1.41,59.85,7.85c12.43,4.11,25.24,5.75,38.33,4.83
	c5.46-0.39,10.9-0.28,15.8,2.42c8.18,4.5,16.97,6.8,26.12,8.15c8.94,1.32,16.81,4.28,23.69,10.96c10.29,9.98,23.73,10.63,37.27,9.53
	c3.28-0.27,4.45-2.64,5.62-5.82C483.81,1028.36,485.87,1034.96,488.55,1041.26z"/>
<path class="st10" d="M733.59,780.19c-4.71,2.62-3.97,7.83-4.14,11.56c-1.15,24.71-10.38,47.18-18.43,69.99
	c-4.21,11.93-8.33,23.91-13,35.67c-5.83,14.68-14.76,25.98-31.7,29.22c-6.45,1.23-11-0.36-15.5-4.21
	c10.6-7.53,19.41-16.58,24.34-28.89c22.92-32.13,33.26-69.68,45.76-106.28c4.05-11.86,7.8-23.83,12.02-36.77
	c3.79,4.13,5.56,7.97,7.3,11.83c0.8,0.71,0.76,1.36-0.14,1.95c-4.5-1.59-5.85,1.32-6.22,4.77
	C733.48,772.72,733.66,776.47,733.59,780.19z"/>
<path class="st10" d="M827.59,497.84c-13.48,23.06-32.03,40.81-55.82,53.02c-7.93,4.07-16.15,7.39-25.08,8.55
	c8.13-6.04,16.57-11.67,24.83-17.51c15.62-11.04,26.05-25.49,32.55-43.03c10.76-29.04,20.98-58.25,18.94-90.01
	c3.29-3.01,6.59-6.02,10.65-9.72C842.86,433.42,840.35,465.92,827.59,497.84z"/>
<path class="st10" d="M256.61,893.8c0.6-0.81,1.84-1.75,1.7-2.41c-6.98-35.12-21.07-65.67-54.44-83.6c-5.84-3.14-8.2-8.2-8.97-14.37
	c1.74-1.56,2.69-0.25,3.67,1c24.34,10.44,50.63,15.18,74.95,25.83c6.28,2.75,7.3,4.31,3.81,10.46
	c-10.28,18.08-13.48,37.92-12.42,58.55C265.38,898.3,265.31,898.31,256.61,893.8z"/>
<path class="st0" d="M342.31,574.86c-14.48,21.28-33.36,10.58-51.64,7.45c7.15-5.56,14.46-11.2,21.72-16.91
	c6.58-5.17,13.18-10.31,19.62-15.64c5.29-4.38,9.8-9.49,10.42-16.71c0.38-4.46,3-4.79,6.08-3.7c11.48,4.07,23.62,5.08,35.37,7.91
	c5.88,1.42,7.83,3.91,4.56,9.42c-0.68,1.14-0.99,2.49-1.49,3.74c-5.51,13.76-5.96,14.07-20.61,14.09c-5.66,0-11.33-0.2-16.99-0.05
	c-3.59,0.09-7.78-1.43-10.2,2.86C336.67,571.7,341.92,573.16,342.31,574.86z"/>
<path class="st10" d="M469.16,426.43c5.16,6.36,6.17,13.26,3.88,21.19c-1.16,4.03-0.7,8.56-0.77,12.86
	c-0.58,32.56-5.18,64.81-7.44,97.24c-2.45,35.2-5.52,70.34-2.41,105.68c1.6,18.23,2.44,36.52,3.45,54.79
	c0.16,2.81,1.03,6.01-1.64,8.37c-4.06-13.49-4.35-27.52-5.35-41.37c-2.27-31.69-5.28-63.34-5.54-95.15
	c-0.01-0.81-0.23-1.71,0.04-2.41c6.36-16.39,3.31-33.6,3.41-50.31c0.12-19.96,2.6-39.73,2.6-59.63c0-12.16,1.85-24.16,2.99-36.22
	C462.96,435.6,464.94,430.56,469.16,426.43z"/>
<path class="st10" d="M332.93,512.61c-10.28,6.51-21.78,9.89-33.24,13.62c-11.16,3.64-21.5,3.26-32.07-1.68
	c-9.48-4.44-18.25-10.38-28.36-13.48c-5.51-19.17-5.4-19.72,13.67-15.79c24.03,4.95,47.71,0.39,71.51-1.21
	c5.39-0.36,8.91-0.8,7.3,6.65C330.93,504.42,332.46,508.63,332.93,512.61z"/>
<path class="st0" d="M827.25,612.42c11.68,13.37,26.66,23.23,36.05,38.31c2.85,4.58,5.6,9.14,7.09,14.43
	c3.22,11.39,1.18,19.28-8.24,26.44c-6.61,5.03-13.84,9.26-21.43,14.27C830.5,675.35,829.46,643.9,827.25,612.42z"/>
<path class="st10" d="M482.22,723.41c6.35,5.32,13.64,8.12,21.97,8.26c4.63,0.08,7.56,1.32,8.04,7.16
	c1.14,13.66,1.53,13.62,15.42,14c-0.23,3.21-2.64,2.7-4.72,2.76c-3.3,0.67-2.12,3.06-2,5.09c0.67,11.05,2.45,22.14,7.09,31.99
	c4.65,9.89,2.73,16.73-5.12,23.06c-9.94-10.45-13.22-23.81-15.88-37.29c-0.72-3.64-2.94-5.86-4.41-8.72
	c-4.66-8.99-10.77-13.96-21.1-15.82c-6.14-1.1-8.06-12.21-4.83-20.71C477.99,729.73,480.34,726.66,482.22,723.41z"/>
<path class="st10" d="M522.93,755.6c1.57-0.92,3.14-1.84,4.72-2.76c27.08-5.37,54.1-11.01,81.05-19.42
	c4.76,19.7,6.17,39.82,10.08,59.49c-2.29-1.51-2.49-4.09-3.09-6.37c-5.82-22-15.93-29.56-38.47-27.43
	c-17.1,1.62-34.11,4.19-51.16,6.34C525.01,762.17,523.97,758.89,522.93,755.6z"/>
<path class="st14" d="M450.15,458.73c0.41,14.28-0.84,27.04-2.98,39.83c-2.49,1.21-3.89-1.04-5.58-1.98
	c-10.11-5.64-20.51-6.81-31.97-4.33c-19.18,4.16-38.63,7.1-57.18,13.9c-1.88,0.69-5.26,4.02-6.2-1.11c-0.7-3.84,0.29-6.32,5.12-7.22
	c23.91-4.46,46.61-13.02,69.4-21.21C431.29,472.84,440.29,466.41,450.15,458.73z"/>
<path class="st10" d="M194.04,790.12c0.68-27.95-4.32-55.17-9.23-82.55c-2.49-13.87-0.67-28.51-0.81-42.8
	c5.22,3.63,5.18,9.77,6.12,14.9c6.08,33.18,15.76,65.5,23.04,98.38c1.44,6.49,5.59,12.36,4.43,19.43
	c-5.74-1.62-11.47-3.24-17.21-4.86C198.01,792.44,195.74,792.01,194.04,790.12z"/>
<path class="st10" d="M353.91,188.01c2.57,13.67-9.01,19.15-16.42,26.08c-18.75,17.54-42.52,22.94-67.43,24.45
	c-3.59,0.22-4.05,0.51-10.08,4.19c4.83,1.72,10.13-0.39,14.78,2.03c-16.23,0.44-32.53-0.63-48.68,1.97
	c-2.03-1.04-3.47-2.48-3.33-4.97c3.39-3.36,6.74-4.6,12.07-3.51c12.66,2.58,23.75-3.09,34.09-9.53c4.99-3.11,9.84-3.56,15.51-4.25
	c25.75-3.15,48.66-12.92,66.13-33.06C351.6,190.2,352.79,189.14,353.91,188.01z"/>
<path class="st15" d="M404.72,603.09c-0.2-4.03-0.44-8.06-0.57-12.09c-0.06-2.03-0.84-4.92,2.3-4.97c2.14-0.04,2.41,2.37,2.63,4.35
	c1.66,14.97,3.44,29.92,5.1,44.88c3.65,32.84,5.8,65.91,14.7,97.97c0.57,2.07,1.27,4.11,1.91,6.16c5.46,7.84,4.94,17.09,5.91,25.93
	c0.25,2.25-0.92,4.96-4.46,3.46c-0.52-0.03-1.05-0.05-1.57-0.07c-4.46-2.56-5.2-7.29-6.59-11.56c-2.81-8.69-4.7-17.63-7.02-26.47
	c-5.68-20.95-8.17-42.44-9.88-63.94c-1.39-17.43-3.34-34.89-2.83-52.46C404.46,610.55,406.24,606.86,404.72,603.09z"/>
<path class="st14" d="M193.54,974.63c0.83-10.59-0.42-21.04-3.62-31.05c-1.68-5.25,0.25-6.09,4.45-6.25
	c0.81-0.03,1.62-0.1,2.41-0.23c7.69-1.28,18.11-6.17,22.34-2.94c4.92,3.75,4.63,14.56,6.2,22.39c2.87,14.31,2.74,14.33-11.64,16.96
	c-1.85,0.34-3.67,0.85-5.5,1.28C203.29,975.17,198.39,976.95,193.54,974.63z"/>
<path class="st12" d="M273.16,966.62c-0.58,0.46-1.16,0.93-1.74,1.39l0.12,0.15c-3.13-6.2-8.96-2.91-13.3-3.1
	c-5.05-0.21-6.29-1.67-6.39-6.32c-0.15-7.15-0.96-14.29-1.49-21.43c1.09-4.46,3.14-8.41,6.4-11.69c9.19-2,18.37-4.01,27.56-6.01
	c3.88,2.25,2.71,5.85,1.36,8.45c-3.67,7.05-4.5,14.74-6,22.29C278.52,956.22,276.03,961.48,273.16,966.62z"/>
<path class="st10" d="M378.47,572.48c0.07,10.01-5.39,15.1-15.65,14.27c-2.4-0.19-4.72-1.29-6.67,1
	c-7.46,8.75-18.41,12.82-27.02,20.1c-6.49,5.48-24.33,1.95-31.27-5.5c-1.27-1.36-2.54-2.72-3.81-4.08
	c-1.74-0.31-2.16-2.09-3.35-3.01c-3.05-4.38,0.55-3.79,2.81-3.43c7.13,1.14,14.28,2.3,21.31,3.94c7.86,1.84,14.9,0.4,21.32-4.23
	c4.35-3.13,8.45-6.6,13.44-8.76c0.96-0.41,2.43-1.15,2.5-1.85c1.25-12.63,10.99-7.16,17.55-8.21
	C372.52,572.26,375.52,572.54,378.47,572.48z"/>
<path class="st16" d="M411.03,785.11c-4.77,4.08-8.86-0.09-12.7-1.62c-7.49-2.99-15.06-5.55-22.8-7.79c-6.21-1.79-9,0.41-9.96,6.45
	c-1.5,9.38-5.61,17.82-9.49,26.41c-3.49,7.72-11.57,11.16-15.56,18.36c-1.32,2.38-4.85,0.7-6.55-0.5c-2.26-1.59,0.19-3.49,1.27-4.64
	c15.85-16.88,21.61-38.03,25.31-59.96c0.85-5.05,2.8-5.23,6.32-3.14c4.86,2.88,9.69,5.83,14.35,9.02
	c7.64,5.23,15.86,9.04,24.91,11.01C409.27,779.7,414.42,779.14,411.03,785.11z"/>
<path class="st17" d="M353.99,919.32c-0.03,2.88,2.45,2.99,4.23,4.07c3.71,2.24,6.17,5.31,4.34,10.02
	c-1.71,4.41-5.19,6.18-9.66,5.38c-4.24-0.76-8.42-1.46-12.76-1.48c-14.88-0.07-22.36,10.62-30.38,20.56
	c-1.1,1.36-0.05,2.48,0.71,3.57c-8.41,2.61-11.11,0.41-9.37-7.75c1.5-7.03,2.27-14.26,5.54-20.82c0.79-2.03,1.71-3.96,3.82-4.98
	c7.52-0.08,15.05-0.3,22.57-0.19C341.24,927.82,348.36,925.5,353.99,919.32z"/>
<path class="st13" d="M419.15,731.3c4.18,12.36,6.04,25.44,11.53,37.4c-10.97-0.47-22.25,2.13-32.74-3.23
	c2.03-0.28,2.24-1.31,2.16-3.34c-0.39-9.71-0.45-19.44-0.62-29.16l0.24,0.1C405.86,728.88,412.64,731.58,419.15,731.3z"/>
<path class="st15" d="M217.59,797.48c-7.22-14.13-8.44-29.95-12.73-44.9c-7.44-25.92-12.57-52.34-17.77-78.75
	c-0.62-3.13-1.11-6.36-3.09-9.06c0.53-1,1.05-2.01,1.58-3.01l-0.13,0.11c8.52,16.75,10.12,35.59,16.05,53.1
	c7.78,22.98,12.47,46.78,19.3,70c1.4,4.76,5.49,8.87,3.81,14.45C222.11,799.35,219.35,800.21,217.59,797.48z"/>
<path class="st12" d="M432.25,768.77c4.52-0.72,2.61-3.99,2.28-6.3c-1.1-7.72-2.46-15.4-3.73-23.09c9.14,1.64,17.61,6.02,27.02,6.57
	c2.65,8.4,4.06,17.06,5.23,25.76c0.25,2.07,2.21,4.79-1.95,5.22c-7.26-2.46-14.79-3.74-22.32-5.01
	C436.33,771.51,433.29,772.14,432.25,768.77z"/>
<path class="st10" d="M130.03,305.14c-8.54,3.28-12.48,10.18-14.23,18.57c-2.75,13.2-5.08,26.45-0.09,39.68
	c-7.29,2.89-11.07-1.67-12.15-7.37c-3.44-18.1-3.53-35.93,8.28-51.76c1.97-2.64,3.94-5.3,6.94-6.61
	C126.17,294.44,128.08,299.93,130.03,305.14z"/>
<path class="st10" d="M238.97,618.04c0.23,1.76-0.42,3.87-1.8,4.13c-8.92,1.64-16.79,7.73-26.05,7.11
	c-6.57-0.44-13.1-2.42-19.52-4.19c-11.46-3.15-12.64-4.91-12.78-16.71c12.82,2.59,25.72,4.87,38.44,7.89
	c9.63,2.28,12.99-5.23,18.18-11.18C236.07,610.15,236.31,614.46,238.97,618.04z"/>
<path class="st13" d="M266.16,981.41c-6.72,1.66-12.96,3.75-18.41,8.7c-7.48,6.79-18.15,1.93-26.69,5.74l0.11-0.27
	c-3.28-2.47-3.62-5.85-2.52-9.37c1.11-3.55,0.09-6.22-2.56-8.51c5.34-1.3,10.83-3.78,14.83,2.74c1.3,2.11,3.57,2.41,5.68,1.04
	c5.08-3.31,11.7-4.27,15.05-10.23c2.36-4.2,6.73-2.39,10.26-2.84c3.17-0.41,6.43-0.18,9.65-0.24l-0.12-0.15
	C270.59,972.84,264.09,975.45,266.16,981.41z"/>
<path class="st18" d="M315.5,823.7c-4.09-6.37-1.83-13.07-0.9-19.65c0.44-3.12,1.44-6.16,2.18-9.23c8.22-1.48,16.81-5.07,23.13,4.14
	c0.27,0.4,1.29,0.53,1.31,0.82c0.51,8.87-5.3,15.03-9.3,22.06c-2.23,3.91-4.64,3.59-7.9,2.12c-2.44-1.1-4.87-2.45-7.45-2.94
	C314,820.53,315.77,822.74,315.5,823.7z"/>
<path class="st10" d="M216.09,977.71c4.43-0.15,7.36,0.71,5.14,6.25c-1.51,3.76-1.89,7.74-0.07,11.63
	c-1.27-0.21-3.19,0.03-3.71-0.71c-2.44-3.47-4.97-5.64-9.29-2.94c-4.14,2.59-8.23,4.01-6.99,11.2c1.35,7.81,1.58,15.86,3.41,23.72
	c1.62,6.91-1.68,13.05-4.35,19.17c-1.61-15.49-3.25-30.98-3.41-46.57c-0.03-3.08-0.58-6.33-2.63-8.28
	c-4.74-4.48-3.3-8.72-0.59-13.25c2.13-0.99,4.17,1.23,6.3,0.18C205.3,977.98,210.69,977.84,216.09,977.71z"/>
<path class="st15" d="M206.31,225.32c-5.21,0.47-5.03-2.75-4.04-6.17c1.84-6.37,5.1-11.76,11.38-14.73
	c6.75-3.19,13.43-6.55,20.31-9.43c6.97-2.91,14.49-7.62,19.58,2.91c1.78,2.31,0.34,3.71-1.42,5.02c-0.76,0.58-1.51,1.15-2.27,1.73
	c-6.28,3.75-13.57,4.6-20.33,6.97C220.82,214.67,213.84,220.39,206.31,225.32z"/>
<path class="st10" d="M816.42,376.4c-0.96-1.05-1.92-2.11-2.87-3.16c-2.95-3.87-5.42-7.87-3.53-13.04
	c-1.06-9.78-2.13-19.55-3.19-29.33c7.47-0.94,10.24,1.73,10.57,9.82c0.56,13.75,4.27,27.04,10.26,39.61
	c5.68,11.92,4.89,14.18-6.5,21.61c-0.47-4.8-0.94-9.61-1.41-14.41c-3.25-4.79,1.4-10.52-1.79-15.2
	C818.4,373.93,817.82,375.31,816.42,376.4z"/>
<path class="st19" d="M302.28,965.24c-4.4,5.94-13.07,3.64-17.69,9.15c-2.02,0.19-4.09,0.8-6.27-0.84
	c5.35-9.43,10.03-19.16,12.14-29.89c-0.75-7.22-0.39-14.23,4-20.45c4.18,0.99,8.36,1.97,12.54,2.96c1.75,1.94,0.54,3.71-0.28,5.51
	c-5.27,7.86-4.57,17.54-7.91,25.99C297.35,961.35,301.95,962.34,302.28,965.24z"/>
<path class="st10" d="M279.64,353.87c-18.04,12.3-38.69,8.5-58.54,9.15c-6.59,0.21-13.35,1.75-20.01-1.02
	c-3.42-1.42-5.46-3.19-5.89-6.8C223.39,357.28,251.5,354.91,279.64,353.87z"/>
<path class="st10" d="M806.69,325.91c0.72-13.44-0.29-26.8-1.66-40.15c12.45,0.96,12.56,0.95,14.12,13.33
	c0.9,7.16,0.67,14.32-0.09,21.57c-0.58,5.55-2.34,7.21-7.6,5.43C810.02,325.59,808.29,325.94,806.69,325.91z"/>
<path class="st20" d="M785.88,718.97c9.73,9.26-0.92,51.85-16.6,66.43c-5.15-6.13-5.28-6.23-1-12.12
	c10.33-14.24,14.23-30.56,15.8-47.67c0.17-1.87,0.4-3.74,0.73-5.59C784.88,719.62,785.5,719.32,785.88,718.97z"/>
<path class="st21" d="M231.28,964.86c-2.07-10.8-4.91-21.41-8.38-31.95c2.09-0.55,4.16-1.18,6.26-1.62
	c14.34-3.05,14.34-3.03,14.99,12.18c2.03,7.64-1.57,13.5-6.14,18.95C236.36,964.4,234.49,966.72,231.28,964.86z"/>
<path class="st22" d="M411.03,785.11c0.81-4-2.47-4.86-4.89-6.39c17.82-1.16,34.81,3,51.64,8.14c0.92,1.9,1.14,3.81,0.01,5.71
	c-12.69-3.07-25.7-1.4-38.52-2.57C415.44,789.66,412.88,788.25,411.03,785.11z"/>
<path class="st20" d="M186.3,981.22c-12.48-11.45-13.76-24.62-8.36-39.05c0.67-1.8,0.78-4.75,3.68-4.67
	c3.05,0.09,2.69,2.95,3.04,4.91C186.92,955.06,190.97,967.64,186.3,981.22z"/>
<path class="st10" d="M290.74,618.01c-10.25,9.11-22.99,9.03-35.52,9.35c-4.91,0.13-6.99-4.47-9.89-7.52
	c3.7,0.52,7.39,1.09,11.1,1.56c16.18,2.06,16.18,2.05,22.99-12.77c1.89-4.12,3.79-8.24,5.97-12.98
	C288.96,603.18,289.71,610.63,290.74,618.01z"/>
<path class="st20" d="M165.88,279.11c-5.8-7.03-5.52-7.85,3.32-9.95c2.35-0.56,4.71-1.13,7-1.9c2.84-0.96,4.1,0,3.88,2.9
	c-0.76,9.89-1.58,19.78-2.34,29.68c-0.26,3.39-1.5,5.11-5.07,3.22c-4-4.41-1.29-10.33-3.41-15.14
	C167.99,285.02,167.98,281.66,165.88,279.11z"/>
<path class="st10" d="M206.31,225.32c10.79-14.73,27.07-17.91,43.55-20.68c-2.24,3.26-3.57,7.2-7.09,9.51
	C230.16,216.38,219.35,224.48,206.31,225.32z"/>
<path class="st8" d="M490.26,875.71c-2.18,3.76-4.37,7.53-6.55,11.29c-4.75-2.33,0.03-4.52,0.1-6.78c0.48-1.18,0.88-2.41,1.46-3.54
	c4.49-8.63,6.72-16.58,1.24-26.47c-6.9-12.48-11.88-26.11-14.23-40.43c0-3.12,0-6.25,0-9.37c0.36-0.07,0.72-0.14,1.08-0.2
	c1.83,6.29,3.79,12.55,5.45,18.88c3.14,11.98,7.09,23.62,12.71,34.73c2.31,4.56,5.88,9.42,2.09,15.04
	C493.57,871.66,492.36,873.91,490.26,875.71z"/>
<path class="st23" d="M273.16,966.62c5.15-12.67,4.02-27.05,10.81-39.36c1.03-1.87,2.47-5.01,0.36-7.63c2.8-0.2,4.41,1.94,6.42,3.28
	c1.25,6.78,1.28,13.36-3.01,19.27C283.07,950.44,279.92,959.61,273.16,966.62z"/>
<path class="st24" d="M861.28,703.6c3.15-0.23,2.81,3.07,3.57,4.96c1.06,2.62,2.31,5.76-1.85,7.33c-4.49,1.69-8.94,3.48-13.42,5.21
	c-1.61,0.62-3.52,2.41-4.69-0.27c-1.02-2.34-3.4-5.95-1.5-7.3C848.81,709.71,854.99,706.98,861.28,703.6z"/>
<path class="st25" d="M779.54,236.73c7.33,6.43,14.16,13.47,25.3,12.98c2.47-0.11,3.72,4.07,4.97,6.68
	c-0.45,0.97-0.89,1.95-1.34,2.92c-1.04,1.04-1.79,0.28-2.56-0.39c-0.98-1.13-1.73-2.64-3.66-2.27c-1.25,0.15-2.51,0.66-3.69-0.19
	c-9.4-3.1-17.56-7.68-21.09-17.75C777,236.83,777.84,236.33,779.54,236.73z"/>
<path class="st26" d="M172.64,319.9c-3.44,11.91-12.18,17.89-23.03,15.75c5.91-3.62,11.74-7.14,13.97-14.5
	C165.47,314.94,169.48,319.42,172.64,319.9z"/>
<path class="st27" d="M231.28,964.86c8.5-4.6,12.1-12.15,12.87-21.39c2.05,4.71,0.86,9.8,1.68,14.65
	c0.91,11.75-3.42,15.52-13.22,11.53C232.17,968.06,231.73,966.46,231.28,964.86z"/>
<path class="st26" d="M806.86,258.01c0.54,0.43,1.08,0.87,1.62,1.3c0.5,0.92,1.05,1.82,1.5,2.77c2.12,4.54,3.05,8.21-4.37,6.9
	c-2.29-0.4-4.73,0.02-7.1,0.07c-0.43-4.2-3.07-8.41,0.07-12.59c1.18-0.46,2.36-0.92,3.54-1.38
	C804.1,255.41,805.52,256.64,806.86,258.01z"/>
<path class="st28" d="M451.77,801.79c-1.74,7.62-2.22,15.2-1.15,23.06c0.57,4.19-0.06,9.05-6.39,12.82
	c4.43-13.42-1.35-26.91,7.28-38.14C451.6,800.28,451.69,801.03,451.77,801.79z"/>
<path class="st29" d="M113.43,387.77c-5.05-4.98-7.82-11.13-11.63-16.69C115.86,374.41,115.86,374.41,113.43,387.77z"/>
<path class="st30" d="M856.92,744.46c-2.59-2.21-4.3-1.88-4.88,1.69c-1.01-3.55-1.63-7.26-3.11-10.6c-2.9-6.53,0.03-8.44,5.97-8.5
	C855.57,732.87,856.25,738.66,856.92,744.46z"/>
<path class="st31" d="M165.88,279.11c8.46,6.22,6.24,15.47,6.79,23.94c-3.95-0.85-5.51-3.1-5.49-7.31
	C167.2,290.19,166.35,284.65,165.88,279.11z"/>
<path class="st32" d="M287.74,942.19c1-6.42,2.01-12.85,3.01-19.27c1.41-2.07,2.62-1.63,3.71,0.31c-0.98,6.89-1.49,13.86-4,20.45
	C289.55,943.18,288.65,942.68,287.74,942.19z"/>
<path class="st1" d="M252.13,202.91c0.47-1.67,0.94-3.34,1.42-5.02c1.62-8.06,3.23-16.11,4.85-24.17
	c0.24,11.17,1.26,22.42-4.77,32.49C253.13,205.11,252.63,204.01,252.13,202.91z"/>
<path class="st33" d="M232.62,969.65c11.28-0.02,12.46-1.05,13.22-11.53c2.69,10,0.59,14.05-8.76,16.71
	C231.97,976.28,233.53,971.87,232.62,969.65z"/>
<path class="st34" d="M331.89,831.65c-8.32,2.84-13.28,0.41-16.47-8.07C320.9,826.27,326.4,828.96,331.89,831.65z"/>
<path class="st35" d="M457.78,792.57c-1.71-1.9-1.3-3.81,0-5.71c4.49,1.33,9.26,2.32,10.19,8.96
	C464.09,795.46,460.82,794.47,457.78,792.57z"/>
<path class="st36" d="M256.77,925.64c-0.35,4.87-3.44,8.24-6.4,11.69C248.67,931.34,246.27,924.96,256.77,925.64z"/>
<path class="st37" d="M174.09,308.31c-0.05,1.64-0.1,3.29-0.15,4.93c-0.53-0.01-1.16,0.17-1.59-0.05c-2.11-1.07-5.97,0.82-6.19-3.35
	c-0.08-1.47,0.32-3.85,1.26-4.33C170.35,303.99,172.15,306.61,174.09,308.31z"/>
<path class="st38" d="M222.75,241.75c2.27,0.88,2.46,3.15,3.33,4.97c-3.99,1.68-8.07,2.18-13.32,1.27
	C216.64,245.57,219.7,243.66,222.75,241.75z"/>
<path class="st39" d="M305.36,930.52c0.55-1.45,1.09-2.89,1.64-4.34c0.92-1.47,1.67-3.85,3.88-2.48c1.69,1.05-0.37,2.74-0.42,4.19
	c-0.59,1.52-1.18,3.04-1.76,4.57c-0.7,1.16-1.71,2.24-3.03,1.44C304.42,933.15,304.64,931.73,305.36,930.52z"/>
<path class="st40" d="M193.54,974.63c4.88,0.05,9.75,0.1,14.63,0.15c-2.58,3.14-6.93,0.27-9.68,2.83c-2.11,2.13-3.4,0.48-4.73-1.02
	C193.69,975.94,193.61,975.28,193.54,974.63z"/>
<path class="st41" d="M490.26,875.71c0.1-2.78,2.05-4.66,3.35-6.86c3.89,4.04-1.15,6.69-1.56,10.07
	C491.82,877.65,491.69,876.32,490.26,875.71z"/>
<path class="st42" d="M829.29,316.23c0.54,0.51,1.09,1.02,1.63,1.52c-0.64,3.31-1.27,6.63-2.17,11.32
	C827.42,323.72,827.37,319.92,829.29,316.23z"/>
<path class="st43" d="M152.92,280.79c-3.31-2.89-1.81-6.46-1.4-9.87C154.79,273.81,153.3,277.37,152.92,280.79z"/>
<path class="st44" d="M290.7,595.26c1.58,0.49,2.74,1.44,3.35,3.01c-0.04,2.29-0.08,4.58-0.12,6.88
	C292.85,601.85,291.78,598.55,290.7,595.26z"/>
<path class="st45" d="M237.1,540.31c-1.11-1.47-1.52-3.8-4.16-3.4c-1.01,0.03-2.32-1.1-2.18-1.12
	C234.26,535.21,238.22,534.37,237.1,540.31z"/>
<path class="st46" d="M194.04,790.12c2.26,0.47,4.61,0.72,6.34,2.5c-0.6,0.59-1.2,1.19-1.81,1.78c-1.22-0.33-2.45-0.66-3.67-1
	C193.47,792.62,193.55,791.43,194.04,790.12z"/>
<path class="st47" d="M839.46,789.71c0.99,0.02,1.98,0.04,2.98,0.05c0,1.77,0,3.54,0,5.58
	C838.86,794.35,839.58,791.83,839.46,789.71z"/>
<path class="st48" d="M410.53,796.2c-1.24,2.78-0.29,6.2-2.53,8.69c-1.09-0.27-1.16-1.29-1.56-2.07c0.89-2.19,0.52-4.86,2.54-6.61
	C409.5,796.1,410.01,796.09,410.53,796.2z"/>
<path class="st49" d="M135.21,304.82c-0.39,0.58-0.77,1.16-1.16,1.74c-0.63-2.71-1.26-5.41-1.89-8.12c0.51-0.64,1.03-1.28,1.54-1.92
	C138.18,298.57,137.43,301.56,135.21,304.82z"/>
<path class="st50" d="M91.73,345.11c0.48-1.52,0.96-3.05,1.44-4.57c0.44,1.51,1.04,3,1.25,4.54c0.13,0.89-0.31,2.67-0.57,2.69
	C92.14,347.87,91.82,346.51,91.73,345.11z"/>
<path class="st51" d="M269.79,908.15c-1.02,0.06-2.04,0.12-3.07,0.18c0.29-1.35-0.96-3.63,0.97-3.83
	C269.2,904.34,269.95,906.39,269.79,908.15z"/>
<path class="st52" d="M461.09,776.94c2.19-1.16,1.27-3.49,1.95-5.22c1.09,2.02,2.33,4.07,0.58,6.25
	C463.46,778.17,461.97,777.31,461.09,776.94z"/>
<path class="st53" d="M513.07,884.35c0.09-1.87,0.18-3.73,0.27-5.6c0.49,2.02,1.67,4.19,1.28,6.03
	C514.13,887.13,513.23,886.03,513.07,884.35z"/>
<path class="st54" d="M193.76,976.59c1.45,0.93,2.99,1.46,4.73,1.02c0.47,0.17,0.94,0.33,1.42,0.5c-2.16,2.18-4.25,1.83-6.3-0.18
	C193.69,977.49,193.74,977.04,193.76,976.59z"/>
<path class="st55" d="M349.36,522.49c-0.5,0.89-1.01,1.77-1.51,2.66c-1.79-0.09-3.47-0.4-4.61-2.66
	C345.49,522.49,347.42,522.49,349.36,522.49z"/>
<path class="st10" d="M359.11,120.1c-5.92-3.6-10.65-8.46-13.25-14.83c-2.39-5.85-6.91-8.43-12.29-10.79
	c-19.36-8.5-38.72-5.59-58.47-1.42c-43.05,9.1-79.68,30.66-113.97,57.02c-12.42,9.55-22.82,21.37-34.34,31.78
	c-19.86,17.94-30.47,40.39-39,64.67c-7.09,20.17-8.19,40.83-6.35,61.86c-2.32-3.04-1.8-6.8-2.06-10.15
	c-1.83-22.77-4-45.5,3.37-67.95c8.49-25.85,14.9-52.69,33.24-73.9c22.02-25.46,49.7-43.28,80.04-57.52
	c21.17-9.93,43.69-15.42,66.2-20.11c18.07-3.77,37.02-4.03,55.6-1.59c14.47,1.9,23.66,12.03,32.31,22.49
	c3.06,3.7,4.86,8.43,8.73,11.55C362.45,114.11,359.41,117.13,359.11,120.1z"/>
<path class="st10" d="M443.19,190.08c2.48-0.39,3.92-1.33,2.96-4.28c-5.39-16.59-12.51-31.53-28.26-41.54
	c-11.11-7.06-23.16-7.74-35.27-9.53c-2.53-0.37-5.49,0.82-7.43-1.91c-3.16-2.42-6.01-4.94-2.97-9.33
	c10.4-6.29,21.04-11.35,33.74-11.37c18.69-0.03,33.97,10.51,40.11,28.6c5.87,17.31,5.66,35.34,6.77,53.37
	C448.61,194.49,446.15,191.7,443.19,190.08z"/>
<path class="st56" d="M388.23,180.03c0.54,4.42-0.32,8.71-2.2,12.61c-3.73,7.76-7.65,15.45-11.87,22.96
	c-4.34,7.73-10.75,13.5-18.68,17.45c-3.32,1.66-6.79,3.78-10.44,0.4c-3.86-3.58,0.07-6.32,0.91-9.39
	c16.49-6.11,27.8-16.34,29.9-35.04c0.76-6.75,5.42-12.84,4.25-21.06C384.98,171.31,386.72,175.59,388.23,180.03z"/>
<path class="st57" d="M372.23,123.5c-0.73,3.66,1.39,6.41,2.97,9.33c-6.12,1.12-5.11-7.18-10.06-7.61
	C367.5,124.64,369.86,124.07,372.23,123.5z"/>
<path class="st58" d="M412.43,180.37c-2.76-2.72-5.55-5.42-5.86-10.71c4.01,2.59,5.81,5.75,7.72,8.8
	C413.67,179.09,413.05,179.73,412.43,180.37z"/>
<path class="st59" d="M452.57,202.92c-1.65-1.08-3.31-2.16-4.96-3.23c-1.24-0.79-2.48-1.59-3.93-2.52
	C449.76,196.92,449.76,196.92,452.57,202.92z"/>
<path class="st15" d="M350.72,399.05c13.78,24.89-4.5,48.81-25.72,56.93c-15.57,5.95-31.62,6.26-47.47,0.19
	c-20.16-7.72-23.97-28.48-7.32-41.91c23.53-18.98,50.16-27.92,80.63-23.13C351.65,393.78,348.69,396.38,350.72,399.05z"/>
<path class="st60" d="M135.21,304.82c0.4-2.93,0.19-5.75-1.51-8.3c-0.75-6.11-4.61-12.43,1.85-18.17
	c9.77,16.01,10.72,33.41,7.23,51.48c-0.43,2.22-1.5,4.4-4.12,4.17c-3.13-0.27-3.64-2.96-3.46-5.44c0.34-4.56,1.25-9.08,1.45-13.64
	C136.81,311.53,137.7,307.89,135.21,304.82z"/>
<path class="st61" d="M321.8,360.42c4.91-1.64,9.95-3.09,14.98-1.04c7.96,3.24,14.47,1.18,20.74-4.17c2.61-2.23,6.82-6.86,9.38-3.43
	c3.27,4.38-3.35,5.92-5.81,8.49c-9.55,10.01-20.37,7.26-31.29,2.76C327.44,361.2,323.35,364.69,321.8,360.42z"/>
<path class="st62" d="M350.72,399.05c-2.85-2.68-1.35-5.3,0.11-7.92c4.96-0.03,9.74,0.76,15.89,2.98
	c-5.19,2.27-8.72,0.29-12.14,0.05C350.14,393.85,350.71,396.43,350.72,399.05z"/>
<path class="st57" d="M321.8,360.42c2.11,2.58,5.92-0.05,8,2.61c-4.44,0-8.88,0-14.44,0C317.87,361.02,319.69,360.38,321.8,360.42z"
	/>
<path class="st10" d="M714.65,272.8c2.84-2.45,5.75-4.57,9.44-5.87c17.79-6.3,32.18-17.06,42.14-33.3c0.89-1.45,1.94-1.6,3.32-1.51
	c4.84,3.98,4.42,8.64,1.84,13.64c-10.93,21.16-27.17,36.32-50.45,42.49c-17.46,4.63-32.63,14.08-48.88,21.25
	c-4.13,1.82-7.96,5.76-12.36,1.35c-4.27-4.28-0.93-8.31,1.26-12.22c0.01,1.71,0,3.53,2.55,2.31c12.05-5.71,24.08-11.46,36.12-17.2
	c1.49-3.04,4.55-4.26,7.06-6.13C709.26,275.87,711.62,273.78,714.65,272.8z"/>
<path class="st15" d="M769.81,478.28c-6.98,1.18-13.92,2.35-21.05,3.56c5.79,6.98,5.91,17.65-1.04,24.95
	c-12.27,12.89-27.71,19.48-45.69,18.11c-11.68-0.89-18.64-6.48-20.17-14.35c-1.83-9.44,3.84-21.1,13.02-26.77
	c8.09-4.99,17.32-6.03,26.38-6.65c15.02-1.04,30.11-1.13,45.18-1.6C767.79,475.49,769.17,475.56,769.81,478.28z"/>
<path class="st15" d="M685.14,415.76c-1.63,8.52-6.21,12.31-11.07,15.63c-24,16.42-56.94,3.56-63.37-24.79
	c-1.86-8.17-2.95-16.54-0.87-24.85c1.05-4.18,0.77-6.98-3.82-8.77c-2.81-1.1-4.41-3.74-3.88-7.17c3.55-1.29,3.96,2.2,5.81,3.22
	c1.31,0.73,2.41,3.71,4.35,0.88c1.18-1.72,1.22-3.36-0.88-4.79c-3.26-2.22-5.06-5.26-4.53-9.57c4.96-0.2,4.01,5.71,7.56,6.33
	c9.46-7.26-5.17-11.93-1.79-18.99c3.9,1.42,3.93,6.13,7.74,8.75c4.33-6.67,9.88-12.21,17.42-15.62c11.4-5.16,22.27-5.22,32.72,2.12
	c1.91,1.34,4.65,2.9,3.4,5.68c-1.47,3.26-4.15,1.16-6.25,0.36c-23-8.69-35.82-3.67-45.63,19.08c-5.37,12.44-7.52,25.47-5.69,39.43
	c3.36,25.74,32.7,38.31,56.1,23.05C676.45,423.14,680,419.84,685.14,415.76z"/>
<path class="st10" d="M579.5,522.26c-7.18-4.37-7.22-8.67-2.03-15.59c17.59-23.46,18.14-49.89,10.7-76.93
	c-2.52-9.14-4.33-18.23-4.86-27.64c11.33,11.79,15.79,26.8,18.76,42.16c5.63,29.1-6.62,53.63-21.14,77.39
	C580.7,522.01,579.98,522.07,579.5,522.26z"/>
<path class="st15" d="M683.75,379.93c0,7.75-0.86,14.12-5.34,19.34c-3.5,4.08-7.9,6.79-13.44,5.85c-5.67-0.97-8.76-5.33-10.23-10.39
	c-2.6-8.91-1.53-17.64,3.4-25.61c3.13-5.06,7.42-9.12,13.88-7.5c6.47,1.62,10.68,5.99,11.37,13.03
	C683.59,376.8,683.68,378.95,683.75,379.93z"/>
<path class="st15" d="M810.02,360.19c1.11,4.36,4.07,8.23,3.53,13.04c-0.65,6.24-2.06,12.26-5.83,17.4
	c-6.99,9.53-17.24,8.4-22.2-2.29c-3.01-6.5-2.98-13.17-0.76-19.71C789.03,356.04,797.04,353.48,810.02,360.19z"/>
<path class="st63" d="M726.44,431.73c3.97,0.39,8.29-0.09,11.84,1.33c8.32,3.34,15.58,2.59,22.59-2.96c1.23-0.98,3.45-2.47,4.99-0.3
	c1.41,2-0.36,3.63-1.63,4.87c-5.52,5.4-12.24,8.52-19.77,6.11c-6.17-1.97-11.65-5.95-18.36-6.98
	C726.22,433.11,726.33,432.42,726.44,431.73z"/>
<path class="st64" d="M651.92,370.43c-4.57,8.22-2.88,16.92-1.67,26.25C641.81,389.66,642.55,379.65,651.92,370.43z"/>
<path class="st65" d="M816.42,376.4c0-3.62,0-7.24,0-10.87c5.91,6.82,5.02,14.34,3.33,21.96c-1.4,0.49-2.21,2.72-4.01,1.73
	c-1.44-0.79-0.71-2.36-0.27-3.49C816.64,382.68,816.71,379.57,816.42,376.4z"/>
<path class="st66" d="M779.54,236.73c-0.69,0.66-1.37,1.32-2.06,1.98c-3.09-1.91-3.41-7.06-8.19-7c-1.27-2.03-2.65-4.05-0.12-6.15
	C772.63,229.28,776.09,233.01,779.54,236.73z"/>
<path class="st67" d="M553.74,421.71c4.42,6.44,9.03,12.76,13.21,19.35c7.38,11.66,4.54,23.3-0.91,34.65
	c-3.8,7.91-10.27,13.82-16.11,20.17c-12.84,13.95-20.97,28.96-11.08,48.15c0.7,1.35,1.58,3.22-0.59,4.06
	c-1.85,0.72-3.05-0.95-3.97-2.16c-6.8-9-6.65-19.04-3.83-29.26c3.11-11.27,10.26-20.04,18.31-28.16
	c5.91-5.97,11.63-12.12,14.52-20.21c3.6-10.08,4.23-19.88-2.44-29.28c-3.41-4.8-6.03-10.17-9-15.28
	C551.34,421.99,552.13,421.47,553.74,421.71z"/>
<path class="st10" d="M516.66,424.74c1.7,6.89,2.42,14.08,6.84,20.07c2.39,3.24,4.71,6.46,8.71,7.89c1.41,4-1.83,4.95-4.24,6.45
	c-0.64,1.05-1.27,2.1-1.91,3.15c-12.09-0.35-16.84-5.53-16.01-17.57C510.55,437.51,512.53,430.76,516.66,424.74z"/>
<path class="st68" d="M520.05,310.93c-0.69,1.37-1.19,2.94-2.15,4.15c-4.92,6.15-11.22,10.68-17.94,14.67
	c-2.67,1.59-5.23,1.52-7.08-1.15c-2.03-2.94-0.32-4.94,2.11-6.67c6.12-4.34,12.11-8.88,18.35-13.03
	C515.73,307.3,518.83,306.05,520.05,310.93z"/>
<path class="st69" d="M514.8,351.69c-6.71-1.01-13.18-1.79-18.93-5.11c-1.68-0.97-3.26-2.39-2.4-4.56c1.01-2.56,2.95-1.58,4.69-0.72
	c5.39,2.69,11.46,2.93,17.09,4.7c1.86,0.58,4.9,0.89,4.52,3.74C519.34,352.86,516.5,351.63,514.8,351.69z"/>
<path class="st10" d="M535.67,471.74c8.49-2.36,8.98-8.92,8.43-16.03c4.19,4.11,7.16,8.44,5.2,14.94c-0.85,2.81-0.28,6.02-4.04,6.97
	c-3.43,0.87-5.59-1-7.49-3.48C537.11,473.3,536.37,472.54,535.67,471.74z"/>
<path class="st70" d="M781.81,221.81c7.34,5.67,12.98,13.36,22.19,16.27c1.19,0.38,1.64,1.65,0.77,2.49
	c-0.59,0.57-1.96,0.76-2.85,0.55c-3.96-0.96-7.48-2.71-10.41-5.7C787.6,231.42,783.92,227.3,781.81,221.81z"/>
<path class="st71" d="M511.84,377.65c-0.26,1.77-1.36,2.05-2.38,1.69c-6.03-2.15-11.63-5.17-16.9-8.76
	c-0.54-0.37-0.61-2.02-0.3-2.86c0.39-1.08,1.68-1.39,2.7-0.83c5.33,2.97,10.63,6.01,15.89,9.12
	C511.4,376.32,511.61,377.24,511.84,377.65z"/>
<path class="st72" d="M553.74,421.71c-0.63,0.67-1.27,1.35-1.9,2.02c-4.12-4.16-5.39-9.89-8.16-14.79c0.75-0.77,1.51-1.54,2.26-2.31
	C548.54,411.66,551.14,416.68,553.74,421.71z"/>
<path class="st73" d="M683.36,246.37c-0.59-0.53-1.17-1.06-1.76-1.59c1.78-2.27,4.06-3.6,7.63-4.49
	C688.46,244.37,685.73,245.2,683.36,246.37z"/>
<path class="st74" d="M769.85,220.77c-0.61-0.03-1.21-0.05-1.82-0.08c1.15-2.96,2.31-5.91,4.24-10.87
	C772.56,215.24,771.13,217.99,769.85,220.77z"/>
<path class="st75" d="M635.08,282.51c-1.41,1.57-3.87,3.03-4.94,1.38c-1.19-1.85,1.67-2.37,3.18-3.03
	C633.91,281.42,634.49,281.96,635.08,282.51z"/>
<path class="st60" d="M302.91,729.93c0.05,4.27-1.93,6.75-6.33,6.51c-3.52-0.19-5.51-2.61-5.44-5.88c0.08-3.73,2.35-5.99,6.36-5.62
	C300.49,725.21,303.72,725.45,302.91,729.93z"/>
<path class="st63" d="M278.08,630.62c1.88,0.38,6.25-0.19,5.21,3.16c-0.83,2.68-2.44,7.47-7.46,6.74c-3.16-0.46-6.01-1.96-5.59-5.54
	C270.71,630.94,274.1,630.37,278.08,630.62z"/>
<path class="st76" d="M287.82,688.97c3.17-0.43,4.51,1.54,4.26,4.2c-0.32,3.4-2.16,6.08-5.99,6.19c-3.2,0.1-5.03-1.89-4.77-4.99
	C281.64,690.69,283.88,688.69,287.82,688.97z"/>
<path class="st77" d="M285.22,665.55c-1.16,3.16-3.29,4.22-5.81,3.94c-2.54-0.28-4.64-1.73-4.38-4.63c0.22-2.39,1.86-3.86,4.41-3.34
	C282.01,662.05,284.36,663.09,285.22,665.55z"/>
<path class="st78" d="M185.58,661.76c-4.55-0.92-3.49-4.86-5.55-9c5.11,2.56,4.89,6.03,5.42,9.11L185.58,661.76z"/>
<path class="st0" d="M599.15,588.7c10.36,6.69,16.35,16.9,21.98,27.37c1.18,2.2,1.5,4.86,0.37,7.07c-3.37,6.6,0.7,10.14,5.27,13.4
	c9.85,7.04,19.8,13.94,30.78,21.65c-4.77,1.59-8.52,2.5-11.98,4.06c-6.99,3.15-8.06,7.62-2.88,13.31
	c3.42,3.76,7.53,6.94,11.56,10.09c2.77,2.16,5.43,4.21,6.63,7.48c-2.1,2-3.98,0.42-5.76,0.75c-4.27,0.79-6.47,3.53-7.56,7.48
	c-1.1,3.98,0.26,7.28,3.8,8.8c4.11,1.76,4.39,3.84,3.35,7.92c-6.3,24.6-18.23,47.04-27.62,71.1c-2.75-10.71-5.51-21.41-8.23-32.13
	c-0.86-3.4-1.43-6.87-2.38-10.24c-2.05-7.27-6.25-14.34-1.27-22.08c0.63-0.98,0.42-2.68,0.22-3.99c-1.24-7.83-3.28-15.37,7.64-18.98
	c3.91-1.29,4.57-7.1,3.03-11.6c-1.13-3.3-2.5-6.56-4.12-9.65c-8.77-16.64-20.26-31.88-25.44-50.37c-0.7-2.51-1.97-6.43-5.79-5.66
	c-3.92,0.79-2.98,4.69-2.9,7.45c0.25,9.04,2.65,17.46,7.35,25.31c6.1,10.17,11.8,20.58,17.78,30.83c2.45,4.19,1.37,5.49-3.09,7.93
	c-22.67,12.37-47.45,17.25-72.37,21.87c-1.57,0.29-3.21,0.25-4.82,0.37c-11.78-9.22-17.6-26.6-11.05-39.82
	c8.24-16.64,11.43-33.89,12.43-52.13c0.81-14.9,12.48-22.31,24.1-28.06C570.87,591.97,584.22,586.39,599.15,588.7z"/>
<path class="st0" d="M702.77,626.12c0.52,7.8,1,15.61,1.6,23.4c0.16,2.01-0.59,4.84,2.24,5.42c3.34,0.69,3.54-2.51,4.53-4.57
	c2.1-4.36,4.21-8.72,6.31-13.09c2.86-3,3.32-7.27,5.59-10.55c1.54-2.22,1.88-5.85,5.85-5.56l0,0c1.76,8.16,0.33,16.43,0.83,24.63
	c0.19,3.15-0.78,6.4,0.76,9.44c4.85-2.65,1.85-8.31,4.53-11.79c3.25-3.76,1.51-8.66,2.94-12.83c0.79-2.29-0.22-5.7,3.74-6.04
	c2.26,7.85,1.33,16.13,3.04,24.15c4.84-9.66,0.84-20.72,5.3-31.69c3.65,6.47,3.24,12.34,3.98,17.93
	c4.34,32.64,0.21,63.78-16.2,92.86c-2.76,4.89-7.2,5.38-10.06,2.78c-4.16-3.77-7.64-2.72-11.74-1.35c-1.79,0.08-2.67-1.11-3.45-2.45
	c-3.51-2.03-8.19-2.39-9.45-7.57c-0.4-1.63-2.72-2.45-4.74-2.58c-7.69-0.49-13.93-3.85-18.94-9.63c-0.34-0.4-0.85-0.87-1.32-0.9
	c-10.83-0.78-8.44-8.38-7.82-15.07c-0.72-2.02-1.32-4.11-1.64-6.19c-1.48-9.79-0.95-10.26,7.02-14.15
	c12.87-6.28,18.7-18.55,21.6-32.17c0.5-2.35,0.35-4.81,1-7.16C699.34,629.28,699.24,626.16,702.77,626.12z"/>
<path class="st10" d="M599.15,588.7c-4.71,4.18-10.67,0.57-15.28,2.1c-10.92,3.62-21.84,7.38-32.01,13.28
	c-16.39,9.5-16.76,25.18-17.34,40.84c-0.33,8.9-2.35,17.28-6.8,24.69c-8.99,14.96-8.33,29.06,1.78,43.03
	c1.26,1.74,2.14,3.75,3.19,5.63c-10.31,2.66-20.77,3-31.28,1.77c-11.54-1.35-15.09-8.43-9.5-18.66c1.55-2.84,3.11-5.69,4.97-8.33
	c14.11-20.01,20.72-42.34,21.48-66.7c0.22-7.23,1.86-14.41,4.21-21.35c6.63-19.55,20.06-28.88,40.55-27.27
	C575.85,578.72,587.95,582.42,599.15,588.7z"/>
<path class="st0" d="M574.63,535.35c15.31,14.04,32.05,25.49,52.92,29.67c1.32,0.26,3.56,0.34,3.42,2.6
	c-0.58,8.88,4.25,16.59,5.3,25.12c0.76,6.16,1.74,12.1-5.38,15.7c-1.97,0.99-3.2,3.44-5.22,5.74c-5.89-27.98-25.43-39.92-50.65-44.7
	c-7.24-1.37-12.54-2.85-11.66-11.55c2.43-5.67,2.87-11.94,5.17-17.62C569.57,537.75,569.74,533.45,574.63,535.35z"/>
<path class="st0" d="M686.88,596.99c-6.39,2.68-5.22,7.97-4.51,13.08c1.24,9.01,3.49,17.98,0.91,27.56
	c-15.65-8.35-29.08-18.87-41.02-31.37c-1.54-1.61-1.1-3.48-1.22-5.31c-0.54-7.79-1.06-15.58-1.59-23.38
	c-1.47-5.16,0.29-6.64,5.15-4.46c1.72,0.77,3.2,1.96,4.68,3.11c7.94,6.13,16.77,10.38,26.32,13.51
	C679.73,591.1,685.44,591.03,686.88,596.99z"/>
<path class="st10" d="M686.88,596.99c-10.2-6.57-23.14-7.03-32.82-14.8c-3.35-2.69-6.97-5.04-10.43-7.61
	c-4.62-3.43-3.47,1.06-4.19,3.01c-2.1-2.77-1.21-6.12-2.4-10.04c24.02,5.59,47.76,7.26,71.57,8.27c1.61,0.07,3.22,0.16,4.83,0.15
	c14.19-0.08,14.19-0.09,15.14,14.61c-4.08,8.61-11.77,9.88-20.13,10.12c-3.49,0.1-6.84-0.94-10.3-0.71
	C694.61,598.22,690.82,597.34,686.88,596.99z"/>
<path class="st14" d="M527.8,731.52c17.4-3.52,34.93-6.37,52.14-10.96c9.69-2.59,18.96-5.81,28.21-11.3c1.24,4.71,1.79,8.79,1.49,13
	c-0.23,3.22-1.39,5.24-4.95,6.31c-26.06,7.82-52.55,13.83-79.25,18.93c-1.28,0.25-2.68-0.08-4.02-0.14
	c-1.42-1.26-2.38-2.84-3.31-4.47c-4.88-8.58-3.9-10.38,5.87-10.64C525.28,732.21,526.64,732.38,527.8,731.52z"/>
<path class="st10" d="M699.88,631.1c-1.19,19.87-8.1,36.07-28.3,43.54c-2.72,1.01-1.81,2.45-1.64,4.36c0.36,4,0.26,8.04,0.35,12.07
	c-3.43-8.25-11.7-11.41-17.77-16.87c-3.58-3.22-4.29-5.25,1.44-6.6c4.31-1.02,8.63-1.24,12.82-0.63c8.99,1.3,14.2-3.14,18.05-10.45
	c6.64-12.62,8.41-25.97,6.24-39.95c-0.61-3.93-1.27-7.86-2.06-12.72c7.15,2.23,10.52,6.48,11.92,12.61
	C700.24,621.32,701.84,626.34,699.88,631.1z"/>
<path class="st14" d="M637.8,613.52c1.38,1.27,2.81,2.45,4.07,3.79c9.72,10.36,21.55,18.03,33.74,24.86
	c4.36,2.44,6.61,2.7,3.74,8.03c-4.45,8.28-4.66,8.9-12.72,3.58c-11.46-7.58-22.59-15.65-33.86-23.52c-1.75-1.22-3.82-2.13-2.25-5.04
	C632.66,621.28,633.9,616.82,637.8,613.52z"/>
<path class="st10" d="M719.08,752.35c-5.43,3.76-11.2,3.15-15.59-0.89c-6.35-5.84-13.98-9.23-21.71-11.65
	c-7.32-2.29-12.21-8.47-19.56-10.2c1.15-4.96,2.3-9.92,3.53-15.23c5.46,2.74,10.62,5.15,15.58,7.92c2.42,1.36,5.15,2.69,5.03,6.47
	c-0.04,1.25,1.77,3.71,2.61,3.65c8.82-0.56,13.79,8.69,22.22,8.58c4.38-0.06,6.03,4.3,9.69,5.2
	C722.25,748.83,721.79,750.92,719.08,752.35z"/>
<path class="st79" d="M698.16,599.99c1.92-2.34,4.53-1.3,6.8-1.16c9.08,0.58,17.05-1.8,23.63-8.25c0.64,5.02,1.29,10.04,1.9,14.79
	c-2.05,1.69-3.39,0.55-4.69-0.24c-5.44-3.3-7.87-0.11-7.99,4.56c-0.23,8.5-3.42,16.22-5.3,24.27c-1.85,1.01-2.19-0.47-2.72-1.65
	C709.11,620.38,707.54,608.78,698.16,599.99z"/>
<path class="st20" d="M569.8,386.14c-3.49-5.49-5.42-11.67-7.21-17.8c-4.18-14.3,0.79-27.88,13.3-37.52
	c-1.38,19.02-6.41,37.78-2.56,56.93c-0.34,0.13-0.68,0.26-1.02,0.39C571.19,387.82,570.58,386.87,569.8,386.14z"/>
<path class="st30" d="M574.63,535.35c-5.47,3.04-5.24,8.72-5.82,13.68c-0.48,4.1-1.52,7.2-5.44,8.9
	c-8.52-11.82-6.6-22.83,2.91-33.38C569.01,528.09,571.82,531.72,574.63,535.35z"/>
<path class="st80" d="M740.09,764.26c0.05-0.65,0.1-1.3,0.14-1.95c3.6,4.99,7.02,10.14,10.87,14.93c3.04,3.77,1.01,5.6-1.96,7.62
	c-3.59,2.45-5.91,1.42-7.61-2.3C738.82,776.63,740.62,770.36,740.09,764.26z"/>
<path class="st81" d="M698.09,281.3c-0.89-0.18-1.79-0.37-2.68-0.55c-2.25,1.64-5.06,2.2-7.33,3.8c-2.65,0.35-5.04,2.73-7.96,1
	c-1.24-0.9-3.14-1.59-3.51-2.77c-0.36-1.13,1.6-1.69,2.86-2.02c10.47-2.7,20.94-5.4,31.41-8.1c0.9,3.79-2.68,3.99-4.48,5.61
	C703.92,280.08,701.52,282.1,698.09,281.3z"/>
<path class="st82" d="M741.69,624.58c-2.86,3.73-1.31,8.48-2.91,12.55c-0.93,2.37-0.83,5.2-3.77,6.32
	c0.19-5.83,0.23-11.66,0.63-17.47c0.14-2.09-1.73-5.44,1.43-6.04C739.34,619.5,740.99,622.14,741.69,624.58z"/>
<path class="st31" d="M728.89,621.18c-4.44,4.93-5.91,11.96-11.44,16.11c2.21-8.38,6.29-16.18,7.26-25.81
	C728.21,614.53,729.12,617.6,728.89,621.18z"/>
<path class="st49" d="M534.33,454.48c3.39-0.97,4.91,0.16,4.87,3.82c-0.04,3.67-0.39,7.17-4.42,8.37c-3.36,1-4.73-1.39-5.35-4.29
	C530.4,459.33,530.09,455.5,534.33,454.48z"/>
<path class="st83" d="M702.74,725.38c-2.1,2.03-4.72,3.67-8.09,3.54c-1.93-0.07-3.87-0.74-3.15-3.47c0.9-3.44,3.37-4.73,6.68-4.58
	C700.57,720.98,702.22,722.18,702.74,725.38z"/>
<path class="st56" d="M527.8,731.52c-2.85,3.8-9.75-1.82-11.19,4.52c-1.04,4.57,5.48,6.54,4.8,11.32
	c-7.89-1.33-6.69-8.12-6.76-13.01c-0.07-4.64,4.85-2.38,7.63-2.84C524.06,731.21,525.95,731.49,527.8,731.52z"/>
<path class="st84" d="M714.67,733.09c-1.94,2.7-4.28,3.9-7.49,2.07c-1.76-1-3.09-2.3-2.31-4.46c1.06-2.93,3.54-2.74,6-2.38
	C713.24,729.03,716.03,729.41,714.67,733.09z"/>
<path class="st31" d="M730.48,655.24c-3.43-3.27-1.33-7.36-1.46-11.05c-0.29-7.66-0.11-15.34-0.13-23.02
	c3.91,7.64,0.63,15.76,1.56,23.62C730.86,648.23,730.49,651.76,730.48,655.24z"/>
<path class="st85" d="M659.22,700.79c-1.04,1.87-0.08,5.57-3.32,5.99c-1.85,0.25-4.09-1.65-3.87-4.18c0.22-2.51,1.48-4.59,4.35-4.96
	C658.44,697.39,659.28,698.52,659.22,700.79z"/>
<path class="st86" d="M727.08,736.79c-0.57,2.91-2.78,3.07-4.96,3.03c-2.44-0.04-3.26-1.61-2.87-3.79c0.4-2.22,1.36-4.42,4.07-3.8
	C725.45,732.71,726.97,734.39,727.08,736.79z"/>
<path class="st87" d="M749.27,792.39c3.25-1.3,4.61-5.63,8.85-3.67c0.79,0.37,1.48,3.16,1.15,3.4
	C756.41,794.26,753.28,795.59,749.27,792.39z"/>
<path class="st88" d="M699.88,631.1c0.2-4.89-1.39-9.91,1.06-14.63c0.53,3.24,2.6,6.18,1.83,9.66
	C701.8,627.78,700.84,629.44,699.88,631.1z"/>
<path class="st89" d="M671.99,707.14c2.91-0.14,3.82,1.22,3.69,3.4c-0.07,1.2,0.12,2.97-1.84,2.64c-1.9-0.32-3.39-1.56-3.67-3.61
	C669.94,707.98,671.04,707.3,671.99,707.14z"/>
<path class="st90" d="M698.09,281.3c2.66-1.32,5.33-2.63,7.99-3.95c1.74-0.8,1.94,0.1,1.67,1.51c-2.5,1.97-4.93,4.06-8.11,4.89
	C699.13,282.94,698.61,282.12,698.09,281.3z"/>
<path class="st91" d="M534.33,454.48c-1.63,2.63-3.27,5.27-4.9,7.9c-0.49-1.08-0.98-2.16-1.46-3.24c1.41-2.15,2.83-4.3,4.24-6.45
	C532.91,453.29,533.62,453.88,534.33,454.48z"/>
<path class="st92" d="M707.76,278.86c-0.56-0.5-1.12-1.01-1.67-1.51c1.27-1.9,4.12-2.19,4.81-4.69c1.25,0.05,2.51,0.1,3.76,0.14
	C712.92,275.47,710.53,277.39,707.76,278.86z"/>
<path class="st93" d="M573.34,387.74c2.36,2.42,0.84,5.44,1.89,8.36c-3.1-0.25-2.68-2.42-3.29-3.84c0.98-1.48-0.37-3.42,0.94-4.84
	L573.34,387.74z"/>
<path class="st94" d="M680.13,285.55c2.73-0.65,5.47-1.3,8.2-1.94c0.45,0.38,0.6,0.75,0.45,1.13c-0.15,0.38-0.3,0.57-0.45,0.57
	C685.62,285.96,683,290.07,680.13,285.55z"/>
<path class="st95" d="M686.73,717.2c-0.57,1.76-2.08,1.23-3.25,1.22c-1.6-0.02-2.33-1.27-2.01-2.58c0.12-0.49,1.76-0.79,2.72-0.84
	C685.59,714.94,686.73,715.5,686.73,717.2z"/>
<path class="st46" d="M613.7,853c-0.39,2.4-1.46,4.32-4.1,6.16c-0.76-3.65,0.63-5.87,2.34-8C612.53,851.77,613.12,852.38,613.7,853z
	"/>
<path class="st96" d="M688.34,285.3c0-0.56,0-1.12,0-1.69c1.9-2.09,4.35-2.82,7.08-2.86C694.61,284.68,690.98,284.22,688.34,285.3z"
	/>
<path class="st97" d="M709.78,632.3c0.91,0.55,1.81,1.1,2.72,1.65c0.21,1.94-0.27,3.48-2.41,4.17
	C709.06,636.18,709.36,634.25,709.78,632.3z"/>
<path class="st98" d="M714.67,733.09c0.4-2.92-2.65-3.08-3.8-4.77c0.56-0.5,1.12-1.01,1.69-1.51c1.47,0.37,2.8,0.93,3.45,2.45
	C716.01,730.69,716.18,732.18,714.67,733.09z"/>
<path class="st99" d="M719.08,752.35c0.6-2.05,1.2-4.1,1.8-6.15c3.46,2.06,1.8,4.18,0.08,6.31
	C720.33,752.45,719.7,752.4,719.08,752.35z"/>
<path class="st100" d="M572.88,387.42c0.23,1.72,0.51,3.45-0.94,4.84c-0.71-2.04-1.42-4.08-2.13-6.12
	C570.83,386.56,571.85,386.99,572.88,387.42z"/>
<path class="st10" d="M419.15,731.3c-2.56,4.6-6.55,0.86-9.82,1.56c-3.08,0.66-6.4,0.19-9.62,0.22c-4.12-32.47,0-64.94,0.29-97.4
	c0.1-10.88,3.07-21.73,4.72-32.59c2.7,15.41,2.51,31.06,3.67,46.6C410.44,677.11,413.1,704.42,419.15,731.3z"/>
<path class="st101" d="M305.36,930.52c0.01,2.53,1.17,3.1,3.33,1.94c-2.13,6.63-2.89,13.78-5.28,20.1
	c-3.33,8.77,1.67,8.38,7.06,8.88c7.26-0.05,14.46,1.05,21.8,0.34c5.05-0.49,7.24-2.07,7.43-7.19c0.11-3.12,1.35-6.2,3.29-9.29
	c-0.29,3.62-0.04,7.4-1.01,10.83c-1.3,4.58-0.05,6.67,4.57,7.04c25.53,2.1,50.27,8.8,75.46,12.85c6.72,1.08,12.96,3.58,18.72,6.96
	c3.52,2.07,5.64,2.26,5.68-2.24c0.21-24.8,10.97-46.86,18.01-69.88c2.47-8.06,6.17-15.45,12.71-21.1c1.57,0.11,2.87,0.67,3.67,2.11
	c-14.55,25.59-24.55,52.72-27.73,82.15c-0.09,0.8-0.1,1.63-0.32,2.4c-1.5,5.09,0.15,12.06-4.4,15.04c-5.25,3.44-8.71-3.55-13.06-5.6
	c-11.65-5.51-24.3-6.9-36.61-8.96c-17.98-3-35.65-7.86-53.98-9.07c-4.27-0.28-6.39,0.3-8.19,4.54c0.28-4.68-1.12-6.49-5.42-5.71
	c-9.68,1.76-19.23-0.4-28.81-1.44c-6.04-1.53-7.91-4.76-4.92-10.66C301.21,946.98,299.06,937.34,305.36,930.52z"/>
<path class="st102" d="M420.68,933.54c-0.72,12.41,1.17,24.95-1.4,39.49C412.08,958,419.08,945.91,420.68,933.54z"/>
<path class="st103" d="M406.44,802.82c0.52,0.69,1.04,1.38,1.56,2.07c-1.52,7.36-3.04,14.72-4.57,22.07
	C399.24,817.99,404.37,810.66,406.44,802.82z"/>
<path class="st104" d="M480.8,891.89c-1.62-0.01-2.93-0.58-3.67-2.11c1.37-3.78,4.18-6.56,6.68-9.56c0.84,2.27-2.62,4.48-0.1,6.78
	C483.55,889.12,482.33,890.59,480.8,891.89z"/>
<path class="st1" d="M646.31,160.24c12.9-1.91,25.8-2.04,38.7,0.1C672.11,160.31,659.21,160.27,646.31,160.24z"/>
<path class="st2" d="M413.83,259.06c15-10.08,27.28-7.29,36.17,8c5.38,9.25,8.05,19.14,8.17,29.78c0.53,2.85-1.81,4.61-2.65,6.94
	c-0.54,1.86-1.91,3.11-3.64,4.71c1.92-1.65,3.35-3.05,3.92-5.1c1.39-2.08,2.31-4.4,3.52-6.58c2.75-13.1,2.6-26.26,0.56-39.42
	c-0.71-4.55-2.69-6.93-8.14-8.04c-17.7-3.59-34.2,1.09-50.85,5.47c-1.81,0.48-3.49,1.43-5.28,1.98c-1.34,0.41-2.82,0.23-3.49-1.16
	c-0.76-1.57,0.61-2.7,1.65-3.25c2.85-1.5,5.77-3.04,8.85-3.88c15.46-4.24,31.25-5.94,47.25-5.3c7.14,0.28,11.5,4.9,12.87,11.47
	c3.34,15.99,3.79,32.08-0.96,47.94c-1.94,6.47-5.48,11.97-12.62,13.48c-18.54,3.92-37.24,5.94-56.2,3.76
	c-3.7-0.43-7.28-1.59-7.93-5.68c-2.68-17-1.96-33.93,1.77-50.76c-0.88,13.8,1.54,27.47,1.29,41.19
	c-0.15,8.54,3.89,11.58,11.64,11.42c4.85-0.1,10.99,1.53,14.3-0.81c8.7-6.14,19.69-3.78,28.26-9.29c5.18-3.33,7.95-7.62,7.85-13.98
	c-0.11-7.4-1.55-14.35-4.88-20.97c-6.45-12.83-16.46-16.19-29.27-9.66C414.17,261.63,413.4,260.92,413.83,259.06z"/>
<path class="st2" d="M282.81,330.91c2.05,8.35-4.75,8.88-9.58,9.65c-17.41,2.8-35,2.57-52.5,0.99c-21.84-1.97-23-3.41-25.4-25.06
	c-1.22-11.01-2.57-22-0.14-33.03c2.43-11.05,7.68-19.43,19.73-21.95c15.35-3.21,30.64-6.21,46.48-3.79
	c14.61,2.23,21.78,9.66,23,24.56c1.1,13.48,1.38,26.95-0.21,40.41c-0.93,0.55-1.69,0.37-2.3-0.52c-3.21-11.24-2.64-22.91-3.76-34.38
	c-1.98-20.22-7.88-24.17-30.5-23.89c-8.75,0.11-17.65,1.87-26.35,3.78c-12.29,2.7-17.28,7.73-18.58,20.04
	c-1.28,12.13-0.15,24.2,2.11,36.18c1.12,5.92,4.84,9.04,10.61,9.24c21.71,0.75,43.53,3.23,64.88-3.23
	C281.26,329.95,282.09,330.29,282.81,330.91z"/>
<path class="st2" d="M430.39,279.92c-0.27,11.66-6.4,20.54-14.13,20.45c-5.54-0.06-9.95-5.22-9.89-11.57
	c0.09-10.35,7.42-19.74,15.4-19.74C427.61,269.07,430.56,272.78,430.39,279.92z"/>
<path class="st105" d="M436.14,275.45c3.87,9.05,1.57,15.33-2.04,21.48C433.32,290.33,434.22,283.91,436.14,275.45z"/>
<path class="st43" d="M413.83,259.06c0.72,0.76,1.45,1.52,2.17,2.28c-2,2.4-4.12,4.63-8.43,5.51
	C409.23,263.24,410.29,260.27,413.83,259.06z"/>
<path class="st106" d="M282.81,330.91c-0.59-0.03-1.19-0.07-1.78-0.1c-1.93-3.1-3.11-6.07,1.46-7.98c0.57-0.05,1.14-0.1,1.7-0.15
	C284.9,325.62,284.31,328.34,282.81,330.91z"/>
<path class="st107" d="M459.33,296.83c-0.09,2.52-0.62,4.86-2.59,6.65c-0.55,0.7-1.06,0.68-1.54-0.08c0.99-2.19,1.98-4.37,2.98-6.56
	C458.56,296.82,458.95,296.81,459.33,296.83z"/>
<path class="st107" d="M806.86,258.01c-2.29,0.16-3.86-0.82-4.74-2.93C805.68,252.85,806.84,254.52,806.86,258.01z"/>
<path class="st0" d="M300.96,453.66c-8.24-0.22-15.95-1.6-23.13-4.85c-12.62-5.71-15.06-18.48-5.16-27.98
	c17.77-17.05,39.1-26.18,63.76-27.51c4.63-0.25,7.29,0.6,8.2,6.02c1.14,6.79,4.85,13.09,3.6,20.37
	c-2.76,16.15-13.71,24.99-27.81,30.7C314.19,452.96,307.31,453.14,300.96,453.66z"/>
<path class="st0" d="M744.89,482.32c-0.43,1.54-1.1,2.62-0.94,3.57c1.91,11.34-3.71,18.18-13.08,23.37
	c-10.81,5.99-21.96,8.83-34.08,5.3c-6.5-1.9-8.18-6.48-5.78-12.65c3.32-8.53,9.87-13.15,18.53-15.23
	C720.85,483.96,732.38,483.06,744.89,482.32z"/>
<path class="st108" d="M678.15,377.31c0.83,6.2-2.07,7.28-5.65,6.9c-4.12-0.43-8.52-1.77-8.2-6.85c0.31-4.9,3.63-9,8.76-8.63
	C678.99,369.15,676.98,375.26,678.15,377.31z"/>
<path class="st109" d="M800.77,374.74c-2.65-0.14-6.16-0.69-6.13-4.27c0.04-3.72,2.93-6.6,6.79-6.68c3.85-0.08,5.3,3,5.6,6.54
	C807.42,374.91,804.19,374.67,800.77,374.74z"/>
<path class="st110" d="M455.21,303.4c0.51,0.08,1.02,0.11,1.54,0.08c-1.67,4.24-3.79,7.93-7.31,8.05
	C450.94,309.41,453.07,306.41,455.21,303.4z"/>
<path class="st0" d="M282.49,322.83c-2.38,2.31-0.76,5.36-1.46,7.98c-12.76,8.34-27.28,4.65-41.02,5.57
	c-9.59,0.64-19.33-1.16-29.01-1.78c-3.97-0.25-6.88-2-7.62-5.94c-2.99-15.89-6.04-31.81-1.75-47.97
	c1.95-7.36,6.24-12.23,13.95-14.03c15.81-3.69,31.62-6.83,47.96-3.92c9.21,1.64,14.71,7.19,15.98,16.61
	C281.47,293.77,282.67,308.26,282.49,322.83z"/>
<path class="st111" d="M425.45,280.6c0.04,2.52-0.87,4.32-3.7,4.08c-2.02-0.17-3.71-1.19-3.65-3.54c0.06-2.36,1.15-4.35,3.67-4.62
	C424.54,276.24,425.49,278.09,425.45,280.6z"/>
<path class="st60" d="M264.68,297.37c-0.02,3.56-0.92,6.91-2.87,9.88c-2.27,3.46-5.6,4.92-9.68,4.28c-3.87-0.6-6.21-2.98-6.92-6.81
	c-0.48-2.62-1.08-5.28-1.04-7.91c0.12-8.2,4.53-14.23,10.1-14.24C260.23,282.56,264.81,289.08,264.68,297.37z"/>
<path class="st112" d="M265.71,278.12c-12.73-9.61-28.68-7.53-37.79,3.85c-1.85,2.3-3.06,5.12-4.93,7.39
	c-1.97,2.39-2.49,8.33-6.56,6.03c-3.12-1.77,0.02-6.42,1.37-9.47c6.64-14.97,22.78-22.61,38.11-18.35
	C260.64,268.89,263.93,271.44,265.71,278.12z"/>
<path class="st113" d="M220.35,315.16c16.06,6.35,31.57,15.98,44.25-3.32c0.88,7.72-4.9,14.06-14.11,16.76
	C240.71,331.48,225.79,325.64,220.35,315.16z"/>
<path class="st113" d="M232.63,303.11c-0.39-3.53,0.51-5.45,1.6-7.31c0.71-1.21,1.72-2.29,3.14-1.59c0.75,0.37,1.59,1.66,1.51,2.44
	c-0.56,5.51,0.87,10.5,3.36,15.31c0.77,1.49,0.95,3.21-0.89,4.05c-1.79,0.81-2.95-0.47-3.95-1.8
	C234.6,310.55,233.37,306.25,232.63,303.11z"/>
<path class="st86" d="M258.59,292.76c0.1,1.53-0.61,2.43-2.18,2.44c-1.44,0.01-2.51-0.64-2.69-2.18c-0.22-1.93,0.9-2.98,2.65-2.96
	C257.84,290.08,258.49,291.33,258.59,292.76z"/>
</svg>
