<?xml version="1.0" encoding="utf-8"?>
<!-- Generator: Adobe Illustrator 24.1.3, SVG Export Plug-In . SVG Version: 6.00 Build 0)  -->
<svg version="1.1" id="drawing" xmlns="http://www.w3.org/2000/svg" xmlns:xlink="http://www.w3.org/1999/xlink" x="0px" y="0px"
	 viewBox="0 0 1895.12 1074.67" style="enable-background:new 0 0 1895.12 1074.67;" xml:space="preserve">
<style type="text/css">
	.st0{fill:#FEFEFE;}
	.st1{fill:#FAD5EA;}
	.st2{fill:#2E2E2E;}
	.st3{fill:#B2B2B0;}
	.st4{fill:#2C2C2C;}
	.st5{fill:#A8929E;}
	.st6{fill:#A48F9B;}
	.st7{fill:#2D2D2D;}
	.st8{fill:#A8919E;}
	.st9{fill:#A9929F;}
	.st10{fill:#302F2F;}
	.st11{fill:#313031;}
	.st12{fill:#A7919E;}
	.st13{fill:#040303;}
	.st14{fill:#FDE3F1;}
	.st15{fill:#F9F6F8;}
	.st16{fill:#E7E7E6;}
	.st17{fill:#FEEAF5;}
	.st18{fill:#FEFDFE;}
	.st19{fill:#F5F2F3;}
	.st20{fill:#F8F8F7;}
	.st21{fill:#FEF9FC;}
	.st22{fill:#F3F1F2;}
	.st23{fill:#F7F3F5;}
	.st24{fill:#CEC3FE;}
	.st25{fill:#76EAFE;}
	.st26{fill:#A3CF2B;}
	.st27{fill:#F5EC00;}
	.st28{fill:#8D87B5;}
	.st29{fill:#FDFDFD;}
	.st30{fill:#EB5720;}
	.st31{fill:#FBA501;}
	.st32{fill:#599EAF;}
	.st33{fill:#FDFDFC;}
	.st34{fill:#A59F0D;}
	.st35{fill:#748E2C;}
	.st36{fill:#B0B0AE;}
	.st37{fill:#F8D4E9;}
	.st38{fill:#A7740F;}
	.st39{fill:#FCFCFB;}
	.st40{fill:#F6D4E8;}
	.st41{fill:#F8D4E8;}
	.st42{fill:#A28D99;}
	.st43{fill:#F6F6F6;}
	.st44{fill:#ABABA9;}
	.st45{fill:#0E0E0E;}
	.st46{fill:#EFCEE0;}
	.st47{fill:#F4D1E5;}
	.st48{fill:#F4D2E5;}
	.st49{fill:#F1D2E3;}
	.st50{fill:#B1B1AF;}
	.st51{fill:#474747;}
	.st52{fill:#F1D1E3;}
	.st53{fill:#F1F1F0;}
	.st54{fill:#CBCBC9;}
	.st55{fill:#965F4A;}
	.st56{fill:#D0D0CE;}
	.st57{fill:#EFEFEE;}
	.st58{fill:#858584;}
	.st59{fill:#ECECEB;}
	.st60{fill:#BFBFBD;}
	.st61{fill:#F0F0EF;}
	.st62{fill:#D6D6D4;}
	.st63{fill:#AAAAA7;}
	.st64{fill:#A9A9A7;}
	.st65{fill:#D0D0CD;}
	.st66{fill:#D4D4D2;}
	.st67{fill:#FEFEFD;}
	.st68{fill:#F4F4F3;}
	.st69{fill:#9E4525;}
	.st70{fill:#E1DDDD;}
	.st71{fill:#FCFCFC;}
	.st72{fill:#2F2F2F;}
	.st73{fill:#303030;}
	.st74{fill:#AAAAA8;}
	.st75{fill:#BFBFBC;}
	.st76{fill:#656564;}
	.st77{fill:#4B4B4A;}
	.st78{fill:#646463;}
	.st79{fill:#313131;}
	.st80{fill:#D9D9D7;}
	.st81{fill:#737372;}
	.st82{fill:#393939;}
	.st83{fill:#F0E3EA;}
	.st84{fill:#333333;}
	.st85{fill:#898988;}
	.st86{fill:#FAFAFA;}
	.st87{fill:#F5F5F5;}
</style>
<path class="st0" d="M946.92,1071.31c-313.66,0-627.33-0.01-940.99,0.12c-4.83,0-5.92-1.09-5.92-5.92
	C0.13,713.39,0.13,361.28,0,9.16c0-4.83,1.09-5.92,5.92-5.92c627.76,0.13,1255.52,0.13,1883.28,0c4.83,0,5.92,1.09,5.92,5.92
	c-0.13,352.12-0.13,704.23,0,1056.35c0,4.83-1.09,5.92-5.92,5.92C1575.1,1071.29,1261.01,1071.31,946.92,1071.31z"/>
<path class="st1" d="M266.9,473.48c20.32-8.68,41.67-13.77,63.26-17.97c8.06-1.57,7.67-1.39,6.22-9.22
	c-3-16.25-9.6-31.38-14.01-47.16c-5.51-19.73-6.23-39.81-2.97-60.21c1.24-7.79,2.35-15.81,0.75-24.16
	c-1.77-9.22,1.9-18.55,2.84-27.87c1.44-14.2,4.49-28.27,4.41-42.58c-0.06-12.03-2.38-23.77-7.07-34.95c-1.35-3.22-3-5.98-6.52-7.52
	c-3.74-1.63-6.6-4.68-9.82-7.16c-11.57-8.9-24.58-10.35-38.31-6.4c-12.02,3.46-24.04,5.94-36.59,3.18
	c-8.92-1.96-17.22-5.52-24.14-11.32c-6.84-5.74-8.35-16.1-3.63-24.82c11.37-20.96,27.22-36.62,51.75-41.18
	c2.31-0.43,2.81-2.02,3.79-3.77c5.73-10.14,12.34-19.86,22.4-26.03c17.63-10.81,33.91-6.45,51.1,6.19
	c9.32,6.85,17.49,14.94,25.8,23.23c12.2-18.5,30.79-25.55,50.63-30.39c5.54-1.35,11.16-2.71,16.98-1.49c2.91,0.61,4.89-1,6.71-2.97
	c16.46-17.86,37.89-26.63,60.56-33.22c9.02-2.62,17.77-6,27.12-7.66c13.81-2.45,27.64-0.61,41.43-1.27
	c18.34-0.88,36.63-2.58,54.96-3.57c6.59-0.36,13.14,1.08,19.65,2.32c18.84,3.59,36.4,10.08,53.47,19.17
	c16.26,8.66,32.07,17.58,46.88,28.61c27.35,20.38,45.7,47.09,58.11,78.38c4.9,12.35,11.61,23.86,16.52,36.24
	c4.42,11.14,6.17,22.71,6.73,34.38c1.05,21.61-0.98,43.08-3.32,64.6c-1.34,12.35-3.56,24.46-5.68,36.63
	c-2.2,12.67-8.86,23.54-14.99,34.56c-12.54,22.53-29.09,42.13-46.05,61.31c-7.63,8.63-17.71,14.76-26.91,21.71
	c-8.55,6.46-16.75,13.34-24.28,20.91c-10.19,10.25-21.25,19.23-33.84,26.35c-1.26,0.71-2.35,1.72-3.95,2.91
	c8.89,1.51,17.12,3.28,25.45,4.24c12.58,1.44,21,8.82,28.03,18.4c5.67,7.72,10.57,15.92,14.32,25.61c2.62-6.35,5.4-11.65,7.03-17.28
	c4.7-16.15,15.84-27.03,28.71-36.71c22.22-16.72,40.36-37.51,58.45-58.39c11.76-13.57,26.61-21.99,44.65-24.12
	c16.58-1.95,29.62,12.46,32.34,27.09c0.65,3.49,2.14,6.82,1,11.6c7.66-5.45,14.15-9.9,21.4-13.11c14.61-6.46,28.39-5.19,36.76,4.69
	c8.33,9.84,10.23,21.37,5.6,33.68c-0.68,1.8-1.21,3.69-2.11,5.37c-1.67,3.12-1.65,4.47,2.54,5.63c14.06,3.9,20.84,18.59,15.35,32.12
	c-0.24,0.6-0.49,1.19-0.8,1.76c-3.19,5.83-4.09,10.37,2.49,15.59c7.81,6.2,7.65,19.98,0.74,28.77c-2.58,3.29-4.6,7.26-8.55,9.46
	c-2.56,1.42-2.36,3.74-1.45,6.19c5.9,15.79-4.76,28.58-21.02,30.78c-17.89,2.42-34.97,8.09-51.93,13.86
	c-10.34,3.52-20.82,6.5-31.25,9.69c-2.73,0.83-4.84,1.39-3.74,5.59c1.88,7.18-1.14,13.91-3.97,20.43
	c-9.66,22.16-12.37,46.08-17.68,69.34c-3.56,15.58-5.48,31.48-9.31,47.04c-2.22,9.03-2.67,18.53-3.5,27.85
	c-2.17,24.31-10.44,46.98-17.68,70.02c-3.93,12.52-12.2,21.31-20.73,30.07c-13.13,13.48-25.41,28.24-42.55,36.89
	c-10.44,5.27-22.08,7.84-33.87,7.9c-5.44,0.03-5.71,1.62-4.77,6.18c4.98,24.09,12.96,47.35,19.41,71.03
	c3.1,11.38,3.81,23.15,3.47,34.96c-0.1,3.37-1.35,4.68-4.81,5.41c-9.61,2-19.25,0.74-28.86,1.06c-2.93-4.28-2.54-9.45-3.74-14.18
	c-9.17-36.19-16.64-72.74-23.42-109.45c-3.65-19.76-8.97-39.14-15.3-58.24c-4.94-14.92-6.37-30.65-10.22-45.84
	c-1.56-6.15,0.61-12.35,1.42-18.49c0.28-2.14,1.5-4.16,4.1-4.31c2.71-0.16,3.56,2.03,4.38,4.01c2.07,4.95,3.98,9.97,5.76,15.03
	c6.13,17.45,17.96,31.05,29.82,44.68c5.22,6.01,10.64,11.58,17.19,16.3c15.91,11.47,37.01,4.23,46.32-4.76
	c10.32-9.96,16.9-22.17,20.16-36.04c7.36-31.33,15.79-62.42,22.71-93.82c5.99-27.2,11.88-54.49,16.39-82.02
	c2.5-15.26,6.14-30.28,10.56-45.1c4.67-15.66,13.93-26.44,30.28-31.25c17.44-5.13,35-8.42,53.19-8.44
	c10.32-0.01,20.52-1.53,30.72-2.94c1.71-0.24,3.36-0.77,4.9-1.54c5.2-2.6,6.08-6.24,2.63-10.91c-2.49-3.37-5.8-5.68-9.66-7.26
	c-2.15-0.88-4.62-1.21-6.12-3.31c-0.89-3.31,1.67-4.17,3.78-5.36c3.5-1.01,7.12-1.51,10.69-2.26c3.6-0.76,7.07-1.92,10.04-4.15
	c3.35-2.51,6.24-5.4,5.83-10.08c-0.44-4.91-4.28-6.63-8.12-8.14c-5.68-2.24-11.75-2.19-17.72-2.82c-2.85-0.3-7.34-0.04-7.83-3
	c-0.54-3.31,4.08-3.61,6.59-4.82c6.74-3.26,14.23-5.02,20.34-9.54c4.03-2.97,10.02-5.63,8.83-11.51c-1.27-6.27-8.1-4.79-12.54-5.16
	c-9.79-0.82-19.75-1.33-29.29,2.22c-1,0.37-2.05,0.65-3.12,0.77c-1.93,0.22-4.32,0.58-5.18-1.43c-0.81-1.92,1.47-2.8,2.77-3.8
	c7.14-5.49,14.48-10.76,19.87-18.14c4.96-6.81,5.62-14.28,2.56-21.97c-2.66-6.7-7.78-8.22-13.92-4.39c-3.64,2.28-6.98,5-10.38,7.61
	c-20.82,15.96-42.83,30.07-66.04,42.28c-4.29,2.26-8.74,4.76-13.99,2.86c-0.92-1.08-1.13-2.35-1-3.7c0.89-4.22,4.54-6,7.47-8.45
	c15.09-12.63,22.18-28.92,21.64-48.45c-0.16-5.86-1.98-11.41-6.42-15.7c-5.99-5.79-12.07-5.9-18.14-0.23
	c-3.35,3.12-5.68,7-7.59,11.09c-6.14,13.21-14.91,24.43-25.31,34.55c-12.43,12.11-24.15,24.97-38.47,35.02
	c-3.91,2.74-5.94,7.31-9.55,10.39c-4.26,4.18-7.24,9.15-9.15,14.78c-3.71,27.72-15.15,53.09-23.98,79.25
	c-2.88,8.55-5.67,17.11-7.15,26.03c-0.21,1.27-0.44,2.55-0.92,3.75c-0.8,2-1.65,4.4-4.17,4.25c-2.32-0.13-2.58-2.66-3.03-4.44
	c-3.06-12.07-5.03-24.36-7.28-36.59c-4.1-22.36-8.66-44.7-18.21-65.51c-7.63-16.62-20.99-25.7-39.45-26.53
	c-9.02-0.4-17.29,2.91-25.42,6.3c-7.93,3.31-15.89,6.51-24.2,8.76c-3.4,0.92-6.73,1.37-9.93-0.71c-2.74-1.79-5.74-1.54-8.72-0.79
	c-4.9,1.23-6.72-1.04-6.78-5.64c-0.1-6.87,0.22-13.74-0.14-20.59c-0.27-5.07-0.1-10.42-4.36-14.35c-1.61-3.72,1.78-5.44,3.18-7.96
	c6.13-4.1,13.34-2.29,20-3.38c26.91-4.41,52.81-12.24,73.99-29.49c14.39-11.72,30.39-20.76,45.05-31.87
	c7.3-5.53,13.12-12.32,19.02-19.12c11.82-13.61,24.41-26.72,33.92-42.06c13.78-22.23,19.79-47.32,24.63-72.75
	c5.74-30.19,0.04-59.2-7.4-88.32c-8.31-32.51-24.21-60.96-44.87-86.82c-11.12-13.91-26.46-23.1-42.01-31.48
	c-18.09-9.75-36.89-17.49-57.98-17.51c-1.96,0-3.84-0.45-5.58-1.37c-4.96-2.28-10.63-0.02-15.72-2.71c0.64,1.35,3.39-0.09,2.49,2.47
	c-4.67,3.3-10.01,2.29-14.93,1.64c-15.03-1.97-29.88,0.95-44.82,0.96c-2.55,0-5.1,0.63-7.66,0.16c-6.41-1.54-12.86-1.31-19.32-0.4
	c-1.67,0.47-3.37,0.86-5.03,1.38c-27.01,2.87-51.23,13.57-74.48,26.82c-8.79,5.01-14.37,13.35-20.47,21.1
	c-1.86,2.36-3.47,4.91-5.57,7.06c-1.18,1.21-2.54,2.81-4.37,1.32c-9.74-7.94-19.22-2.54-28.39,0.9
	c-6.57,2.46-10.89,7.93-14.31,14.19c-7.09,12.96-10.97,27.02-14.32,41.18c-6.52,27.55-10.31,55.52-11.4,83.84
	c-0.24,6.29,0.79,12.38,2.28,18.43c5.33,13.04,3.22,25.29-2.95,37.62c-3.92,7.83-5.7,16.64-7.95,25.13
	c-4.23,15.92,0.34,30.94,5.06,46c11.31,36.15,37.49,58.08,70.43,73.16c10.48,4.8,22.11,6.9,33.19,10.31
	c2.39,0.74,5.21,0.66,6.76,3.2c0.79,0.83-2.97,1.37-0.12,2.47c1.18,0.46,1.78,1.75,2.05,3.05c-1.34,7.98-2.93,16.01-5.6,23.55
	c-3.41,9.65-13.59,8.1-21.23,10.36c-5.24,1.55-9.6-0.61-12.65-5.24c-1.17-1.78-2.37-3.55-3.7-5.21
	c-5.61-7.98-12.61-10.07-22.37-7.66c-22.94,5.66-46.56,7.5-69.94,10.55c-6.76,0.88-11.02,3.83-13.64,9.98
	c-1.94,4.55-3.88,9.12-5.06,13.89c-4.9,19.78-13.59,38.44-17.12,58.61c-1.89,10.78-8.66,19.01-14.64,27.61
	c-15.43,22.22-33.08,42.71-50.07,63.7c-1.22,1.51-2.45,3.01-4.5,3.42c-6.12,0.38-2.11,5.41-3.61,7.91
	c-8.79,16.46-18.22,32.56-27.56,48.7c-8.68,15-13.05,31.13-12.36,48.57c0.32,8.17,3.79,14.93,8.9,20.9
	c14.06,16.42,31.61,26.65,53.57,26.57c16.58-0.06,31.66-4.95,42.53-18.96c10.8-13.92,19.12-29.52,30.09-43.31
	c2.04-2.57,3.93-5.07,7.64-5.2c4.65-0.15,6.5,1.54,5.61,6.09c-2.03,10.32-3.54,20.7-4.46,31.17c-1.6,18.19-0.52,36.42-0.62,54.63
	c-0.02,3.97,3,6.53,4.53,9.79c1.2,11.25,0.24,22.54,0.56,33.8c0.06,2.08-0.66,4.27,0.76,6.19c1.53,1.73,1.86,3.87,1.8,6.03
	c-0.32,12.3,0.96,24.34,5.25,35.98c0.59,1.59,0.89,3.32,0.65,5.06c-0.87,3.71-1.11,7.43-0.21,11.18
	c-0.27,5.12-0.43,10.23-4.67,14.12c-1.47,1.35-2.31,3.71-1.05,5.29c4.75,5.94,1.78,12.78,2.7,19.16
	c-1.91,18.84-3.18,37.72-5.12,56.55c-0.2,1.93-0.48,3.81-1.85,5.32c-7.51,0.01-15.05-0.3-22.54,0.15c-5.54,0.34-7.6-1.17-7.32-7.06
	c0.57-11.95,0.77-23.93,1.2-35.9c0.93-25.64-2.29-51.13-4.78-76.62c-1.61-16.55-2.58-33.16-4.05-49.73
	c-1.2-13.57-2.72-27.11-4.13-40.99c-2.99-0.22-5.14,1.82-7.62,2.71c-11.14,3.99-22.36,4.47-34.04,2.37
	c-11.78-2.12-23.31-5.1-34.91-7.9c-27.23-6.58-42.03-25.17-47.99-51.26c-5.02-21.94,1.16-42.79,9-63.11
	c3.15-8.17,7.33-15.95,10.63-24.08c5.65-13.91,15.73-24.86,23.98-37.05c9.2-13.59,19.48-26.52,26.39-41.59
	c6.5-14.17,15.8-26.44,26.94-37.24c5.34-5.18,9.39-10.46,10.74-18.24c1.7-9.81,6.62-19.03,5.57-29.4
	c-0.82-8.05-2.44-16.05-0.21-24.18c0.69-2.53-1.37-3.29-3.58-3.17c-8.58,0.44-17.08-0.77-25.61-1.24
	c-8.24-0.46-13.04-4.78-13.13-12.57c-0.08-7.17,4.86-11.79,12.83-11.98c9.4-0.23,18.72-2.18,29.63-0.91
	c-3.56-3.26-5.71-5.99-6.9-9.32c-1.26-3.53-1.11-6.72,2.2-9.16c8.18,2.64,16.62,2.15,25.03,2.11c2.43,0.16,4.84,0.06,7.18-0.73
	c11.04-1.39,22.22-2.05,32.73-6.23c5.49-1.71,11.19-1.75,16.85-2.27c2.36-0.21,6.52,0.91,6.11-4.04c-2.03-3.35-5.2-3.31-8.48-2.9
	c-21.16,2.63-42.44,4.16-63.62,6.62C271.56,475.37,268.91,475.72,266.9,473.48z"/>
<path class="st2" d="M624,60.09c16.45,1.54,32.57,4.21,47.8,11.18c30.57,14.01,56.49,32.59,74.78,62.19
	c22.79,36.87,35.6,76.65,38.11,119.17c2.19,37.14-8.02,72.55-25.35,105.57c-6.32,12.03-16.3,21.49-24.63,32.09
	c-13.43,17.1-27.93,33.45-47.46,43.64c-16.29,8.51-27.66,23.4-44.36,31.35c-23.11,11.01-46.96,18.47-72.55,20.21
	c-1.9,0.13-3.77,0.61-5.66,0.93c-1.89,1.74-4.27,1.66-6.62,1.91c-29.28,3.08-58.07-0.53-86.69-6.37c-1.26-0.26-2.52-0.52-3.78-0.73
	c-6.22-1.02-7.55,0.02-7.88,6.51c-0.24,4.7-0.09,9.41-0.07,14.12c0.02,3.9-0.47,7.68-2.04,11.27c1.13,5.94,3.85,11.5,3.83,17.75
	c-0.01,2.73,0.68,5.5,0.59,8.28c-0.11,3.54,0.44,6.66,3.39,9.2c2.88,2.48,3.19,5.47,0.14,8.24c-1.47,1.34-1.59,2.86-1.06,4.66
	c2.1,7.15,2.66,14.64,4.79,21.78c0.07,1.55,0.49,3.04,0.97,4.5c0.21,0.47,0.17,1.02,0.41,1.49c-0.12-0.99-0.47-1.93-0.72-2.89
	c-0.79-2.06-0.39-4.4-1.55-6.37c-0.24-0.84-0.22-1.71-0.38-2.54c-2.2-11.6-0.5-14.96,10.52-19.74c7.7-3.34,15.71-5.97,24.05-7.02
	c16.81-2.13,32.22-8.93,48.24-13.71c3.5-1.05,4.49-3.64,4.95-6.76c0.79-10.82,3.75-21.45,2.62-32.42c-0.11-1.11,0.04-2.17,0.6-3.16
	c0.49-0.61,1.12-0.89,1.9-0.84c3.96-1.28,4.65,1.08,5.24,4.26c2.19,11.68,0.97,23.5,1.52,35.69c5.97-1,11.96-4.25,16.97,1.66
	c0.47,0.55,2.78-0.41,4.22-0.74c10.08-2.3,19.5-6.47,28.96-10.47c32.23-13.64,58.32,1.88,68.32,32.46
	c8.19,25.06,13.72,50.8,17.79,76.86c1.05,6.75,2.75,13.4,4.17,20.16c2.19-0.21,2.47-1.94,2.76-3.52
	c4.78-25.63,15.44-49.37,23.7-73.88c3.7-11,6.27-22.23,7.82-33.71c0.17-1.23,0.16-2.61,1.37-3.46c3.11,5.96,3.01,12.31,1.55,18.52
	c-4.48,19.09-7.03,38.59-12.26,57.51c-0.69,2.49-1.04,5.01-0.33,7.56c-1.82,3.85-3.66,7.68-4.74,11.85
	c-0.84,3.22,0.13,4.77,3.47,5.31c4.64,0.75,9.3,1.42,13.91,2.4c22.56,8.56,41.51,21.82,55.08,43.36c3.14-10.41,3.69-19.03-0.52-28.7
	c-8.56-19.67-24.35-27.62-43.97-30.75c-2.27-0.36-4.8,0.11-6.42-2.18c-1.46-4.01-0.7-7.69,1.56-11.17c2.26-1.86,4.85-1.53,7.37-0.91
	c8.56,2.1,17.01,4.62,24.94,8.53c13.47,6.64,19.4,18.83,23.82,33.46c1.18-4.36,2.01-7.86,2.88-11.34c0.89-3.54,1.95-7.03,3.16-10.48
	c6.16-17.54,17.61-29.01,35.86-34.7c21.64-6.74,43.77-8.23,66.06-9.35c5.74-0.29,11.37-0.97,17.49-2.02
	c-2.96-2.37-6.04-2.55-8.91-3.2c-6.07-1.37-12.23-2.38-18.3-3.75c-4.2-0.95-8.38-2.04-12.25-3.91c-3.72-1.79-7.81-3.98-6.88-8.92
	c0.88-4.69,5.09-6.22,9.36-6.4c11.16-0.47,22.22-1.95,33.33-2.86c5.92-0.49,11.92-1,17.69-4.88c-4.96-2.75-9.8-3.21-14.64-3.06
	c-10.76,0.33-21.44-0.66-32.14-1.45c-2.59-0.19-5.1-0.73-7.57-1.5c-3.41-1.06-5.63-3.06-5.49-6.93c0.14-3.97,2.76-5.53,6.15-6.35
	c1.25-0.31,2.51-0.65,3.78-0.79c16.78-1.91,31.3-10.21,47.03-16.21c-4.65-1.93-7.45-2.02-13.58-0.72
	c-8.43,1.79-16.54,4.64-24.65,7.45c-4.55,1.58-9.17,2.22-13.94,1.89c-4-0.27-7.91-1.02-9.43-5.36c-1.52-4.34,1.07-7.39,3.99-10.11
	c5.08-4.74,11.35-7.7,17.2-11.26c8.72-4.99,16.7-10.87,22.61-19.17c1.5-2.59,2.17-5.35,1.74-8.33c-1.52-4.39-3.83-1.35-5.31-0.28
	c-8.18,5.93-16.53,11.62-25.14,16.84c-19.26,11.67-38.36,23.76-60.43,29.77c-3.35,1.38-6.75,0.89-10.13,0.19
	c-3.48-0.72-4.4,0.55-3.02,3.7c1.84,4.21,1.41,8.87,2.67,13.2c1.32,10.82-0.78,20.87-6.75,30.03c-2.57,3.93-6.12,6.55-10.87,7.26
	c-2.21,0.33-4.42,0.19-5.68-1.97c-1.19-2.04,0.24-3.65,1.38-5.19c0.64-0.86,1.36-1.67,2.17-2.36c9.01-7.76,11.92-17.93,11.57-29.37
	c0.45-5.78-1.99-10.97-3.37-16.37c-2.21-5.52,0.35-9.94,3.41-14.18c2.39-3.3,5.03-6.77,8.48-8.62
	c10.27-5.52,13.83-15.75,18.84-25.02c2.2-4.08,2.58-8.52,2.51-13.04c0.06-0.95,0.23-1.89,0.49-2.8c0.63-2.05,1.45-4.03,2.23-6.03
	c1.22-3.1,1.17-5.99-1.91-7.95c-3.02-1.92-5.76-0.84-8.19,1.34c-7.09,6.37-13.17,13.78-17.56,22.05
	c-9.67,18.2-23.03,32.78-39.48,44.98c-7.9,5.85-14.84,13-23.75,17.48c-2.19,1.1-4.17,3.35-7,1.47c3.97-5.64,8.67-10.57,14.2-14.72
	c15.52-11.64,28.8-25.68,42-39.76c7.81-8.33,13.49-18.22,18.45-28.5c3.62-7.49,8.55-14.24,17.84-13.13
	c9.41,1.13,13.07,8.86,15.2,17.11c1.07,4.14,1.79,8.44,0.89,12.72c-3.6,17.06-9.22,32.96-24.88,43.12c-1.93,1.25-3.48,3.09-5.2,4.66
	c-0.23,1.34-3.3,2.81,0.18,3.99c6.49,0.09,12.01-2.74,17.43-5.83c23.12-13.18,45.58-27.37,66.5-43.88c0.51-0.4,0.98-0.84,1.52-1.19
	c4.57-2.92,8.82-7.87,14.97-4.31c6.58,3.81,7.62,10.57,7.35,17.38c-0.23,5.92-2.42,11.28-6.62,15.66c-6.52,6.8-13.52,13-21.76,18.03
	c2.95,1.77,5.6,0.05,8.12-0.82c12.64-4.39,25.4-3.41,38.13-0.85c6.74,1.36,8.18,6.65,3.58,12.01c-3.84,4.48-8.69,7.61-14.07,9.94
	c-7.2,3.12-14.41,6.2-22.15,9.54c7.95,1.05,15.17,1.87,22.34,3.02c2.49,0.4,4.96,1.39,7.23,2.52c7.83,3.89,8.93,10.88,2.78,17.22
	c-4.54,4.68-10.37,6.65-16.65,7.61c-2.75,0.42-5.49,0.89-8.24,1.34c-3.88,0.69-7.55,3.14-11.74,1.31c2.63,0.93,5.66,0.08,7.96,2.12
	c6.39,1.88,12.67,3.73,17.07,9.47c5.13,6.7,4.08,12.14-3.96,14.78c-9.44,3.11-19.4,3.59-29.24,3.86
	c-19.58,0.52-38.76,2.66-57.76,8.05c-16.76,4.76-25.95,15.42-30.67,31.36c-7.49,25.33-11.2,51.46-16.57,77.24
	c-2.75,13.21-5.6,26.41-8.26,39.64c-6.99,34.8-17.07,68.86-24.62,103.53c-2.63,12.07-8.13,22.96-16.35,32.4
	c-10.93,12.55-24.71,17.87-40.87,14.52c-10.53-2.18-18.39-9.4-25.7-17.3c-18.14-19.61-32.87-41.15-40.42-67.08
	c-0.22-0.74-0.91-1.35-2.01-2.9c-3.82,7.73-5.13,15.4-3.64,22.71c4.97,24.31,10.52,48.44,18.15,72.19
	c6.56,20.42,8.97,42.04,13.14,63.15c5.69,28.76,12.63,57.27,18.95,85.9c0.5,2.27,0.41,4.67,0.6,7.01
	c-11.53,0.2-11.77,0.25-13.97-11.06c-6.25-32.03-14.74-63.5-23.37-94.93c-1.29-4.68-2.42-9.5-5.29-13.6
	c-5.09-7.23-5.22-7.66-14.02-4.83c-21.72,6.97-44.1,8.26-66.66,9.35c-21.62,1.05-43.14,3.88-64.62,6.7
	c-2.34,0.31-4.66,0.82-7.01,0.08c-1.01-0.36-2.06-0.92-2.41-1.87c-1.61-4.3-4.66-6.7-9.1-7.63c-1.2-0.25-2.22-1.15-2.52-2.54
	c1.14-2.4,3.46-2.2,5.54-2.5c25.07-3.66,50.23-6.77,75.48-8.7c12.83-0.98,25.68-1.69,38.51-2.78c13.64-1.16,26.24-6.43,39.42-9.4
	c3.88-0.87,4.24-3.68,3.23-7.03c-2.1-6.99-4.65-13.84-6.68-20.85c-3.47-11.98-5.98-24.17-8.15-36.43
	c-1.12-6.35-4.37-11.08-9.02-15.76c-15.73-15.81-31.44-31.79-42.04-51.78c-6-11.31-8.84-23.72-11.22-36.17
	c-0.91-4.78-2.86-6.92-7.87-7.4c-9.35-0.9-13.32-4.87-14.85-14.09c-1.47-8.9-2.46-17.85-2-26.92c0.39-7.65,2.11-14.5,9.88-18.12
	c2.56-1.19,3.08-3.34,2.5-5.94c-3.69-16.44-3.13-33.28-4.39-49.94c-0.91-11.97,0.83-23.97,2.49-35.87c0.18-1.28,0.53-2.53,1.13-3.68
	c1.39-2.69,3.42-4.56,6.66-3.89c3.42,0.71,4.18,3.3,3.92,6.39c-0.6,7.06-1.6,14.07-2.17,21.13c-1.4,17.15-1.51,34.28,0.09,51.4
	c0.38,4.07-0.01,8.17,0.63,12.21c0.41,2.61,1.04,5.28,4.29,5.62c3.44,0.37,6.97,0.26,9.89-1.85c1.38-1,0.68-2.81,0.23-4.22
	c-6.9-21.63-7.03-43.95-6.81-66.3c0.08-8.18,1.53-16.22,2.37-24.32c0.78-7.49-0.53-8.3-7.66-5.89c-6.94,2.34-13.64,7.07-21.52,2.76
	c-1.23-0.67-1.8,0.66-2.04,1.75c-0.44,1.93-1.26,3.64-2.64,5.07c-9.91,6.74-21.17,8.76-32.83,9.01c-4.56,0.1-7.84-3.1-10.98-6.04
	c-7.34-6.88-14.18-14.23-20.33-22.11c-1.08,0.08-0.29,0.84-0.42,1.27c0.35,2.23,0.42,4.44,0.41,6.67
	c-0.13,14.77,0.19,29.58-4.28,43.93c-1.87,5.99,0.49,11.91,0.47,17.88c-0.04,13.51-0.03,27.02-0.01,40.53
	c0.02,10.28-0.26,20.56,1.12,30.82c0.57,4.21,0.51,8.59-0.89,12.75c-1.26,3.75-3.54,6.65-7.87,6.22c-4.15-0.41-6.21-3.43-7.1-7.3
	c-0.24-1.05-0.34-2.15-0.12-3.2c2.4-11.59-0.11-23.1-0.76-34.59c-1.55-27.45-2.22-54.81,3-81.99c0.49-2.53,1.24-5.17,0.2-7.62
	c-4.04-9.48-6.91-19.32-8.83-30.21c-5.66,3.52-9.23,8.01-13,12.21c-2.58,2.88-4.49,6.27-6.74,9.41c-6.22,8.7-9.99,9.15-18.19,2.38
	c-11.15-9.2-13.04-8.72-17.69,4.47c-1.14,3.23-2.08,6.55-3.69,9.6c-3.26,6.16-7.81,10.73-15.05,11.86c-2.1,0.31-3.17,1.37-3.86,3.58
	c-7.41,23.68-10.1,48-10.12,72.69c0,2.14,0.2,4.33-0.33,6.39c-1.21,4.65,0,7.4,4.77,9.42c5.97,2.52,6.18,8.71,7.08,14.2
	c-0.37,3.97,0.76,7.78,1.29,11.65c0.14,2.85,0.04,5.7,0.03,8.55c0.02,0.7,0.02,1.4,0,2.11c-0.27,11.56-3.22,14.43-18.38,17.97
	c-2.17,0.15-3.91,0.92-4.54,3.25c-4.81,8.62-7.62,18.21-12.87,26.61c-3.07,1.01-2.34,4.18-3.41,6.28
	c-7.84,15.33-11.65,32.19-18.05,48.08c-1.06,2.64-0.84,5.49-0.87,8.27c-0.04,3.56-0.83,6.8-3.63,9.27c-0.6,0.41-1.22,0.46-1.88,0.16
	c-4.2-1.12-4.8-4.5-4.93-8.05c-1.14-30.45-1.82-60.88,6.09-90.68c-5.59-2.14-8.75,0.13-11.76,4.67c-9,13.58-18.49,26.82-27.69,40.27
	c-16.41,24-49.59,26.74-71.17,16.99c-8.83-3.99-16.83-9.3-24.08-15.83c-15.37-13.84-18-30.91-13.11-49.93
	c1.43-5.58,2.83-11.33,5.36-16.45c10.24-20.72,22.21-40.5,34.14-60.29c3.65-2.48,6.91-2.05,9.77,1.3c0.33,0.61,0.54,1.28,0.64,1.97
	c-0.49,6.82-5.91,11.43-7.89,17.59c-6.45,12.43-14.47,23.97-20.78,36.48c-6.05,10.57-8.85,22.19-10.53,34.05
	c-1.34,9.45,3.16,17.33,9.42,23.58c8.66,8.65,18.7,15.56,31.25,17.67c10.61,2.16,21.06,1.43,30.92-2.97
	c8.48-3.79,14.39-10.88,19.32-18.4c7.88-12.03,16-23.88,24.3-35.62c7.79-11.02,17.75-20.46,23.8-32.75c0.75-1.53,2.09-2.82,3.62-3.6
	c7.88-4.02,9.01-11.11,8.03-18.67c-1.16-8.94-0.68-17.99-2.25-26.88c0.65-8.89,1.3-17.78,3.33-24.09
	c-10.96,24.25-22.32,50.97-37.84,75.63c-7.25,12.14-13.17,24.98-19.55,37.58c-1.26,2.48-2.41,5.03-4.53,6.95
	c-4.33,3.93-9.03,3.74-12.98-0.52c-3.73-4.01-3.59-7.16,0.84-11.54c2.02-2,3.59-4.22,4.84-6.73c7.22-14.59,15.11-28.8,23.94-42.48
	c2.13-3.3,1.89-5.26-1.15-8.1c-8.52-7.94-17.89-13.88-29.61-15.56c-5.73-0.96-11.42-0.7-17.12,0.21c-4.01,0.64-8.07,1.22-11.42-2.01
	c-1.42-2.78,1.15-3.65,2.49-5.07c2.11-2.24,4.89-3.98,5.39-7.4c5.6-2.44,11.24-1.53,16.89-0.31c14.47,0.88,25.15,8.71,34.74,18.74
	c7.37,7.7,7.5,7.57,12.81-1.29c4.57-7.63,4.29-10.02-2.59-15.74c-6.27-5.21-13.29-9.41-20.07-13.93c-4.35-2.9-9.79-1.04-14.09-3.75
	c-0.73-4.88,2.48-7.86,5.29-11.05c1.18-0.64,2.46-0.86,3.78-0.89c5.23,0.11,9.53,2.71,13.27,5.88c6.84,5.78,14.2,11.03,19.5,18.52
	c3.27,4.62,4.94,4.16,7.14-1.18c1.16-2.81,0.8-5.35-0.38-8.04c-5.47-12.52-15.21-19.22-28.54-21.03c-2.73-0.37-5.68-0.05-7.41-2.92
	c-0.46-4.78,1.74-8.14,5.61-10.63c14.85-0.39,27.69,8.19,34.34,22.7c1.05,2.3,1.06,6.93,4.38,5.95c3.45-1.02,4.64-4.93,4.27-9.11
	c-1.59-17.79-13.83-26.04-28.4-32.31c-1.46-0.49-2.95-0.93-4.19-1.92c-1.88-4.38,1.61-7.49,2.65-11.18
	c0.54-0.34,1.12-0.55,1.75-0.66c14.63,2,24.6,10.58,31.45,23.02c2.35,4.26,3.82,4.05,6.83,0.89c10.77-11.29,19.91-23.61,25.53-38.32
	c1.3-3.4,2.64-6.83,5.16-9.58c0.91-0.99,2.15-1.63,3.47-0.98c1.39,0.68,1.52,2.13,1.05,3.36c-3.23,8.38-4.17,17.59-9.09,25.37
	c-1.47,1.95-1.35,4.37-1.99,6.57c-14.45,27.92-18.59,57.99-18.52,88.93c0.01,6.66,0.04,6.3,6.78,6
	c10.01-0.45,10.22,0.29,10.22-11.33c-0.01-17.09-1.39-34.2,1.24-51.24c0.98-6.37,1.93-12.77,4.2-18.78
	c2.15-5.69,3.25-10.73-3.12-14.38c-0.26-2.11,0.04-4.09,1.4-5.8c2.77-3.95,6.76-2.96,10.54-2.46c9.35,1.25,11.7-0.06,15.07-8.81
	c0.85-2.2,1.7-4.4,2.57-6.59c3.6-9.05,3.39-9.93-4.4-16.22c-3.01-2.43-6.03-4.83-8.39-7.92c-1.22-1.59-2.18-3.52-0.76-5.29
	c1.63-2.03,3.48-0.6,5.14,0.35c0.74,0.43,1.37,1.04,2.12,1.45c1.73,0.95,3.53,3.41,5.48,0.78c1.74-2.34,2.33-5.12-0.05-7.63
	c-2.98-3.14-6.73-5.28-10.11-7.91c-1.45-1.13-3.47-2.4-2.04-4.69c1.23-1.97,2.97-0.84,4.58-0.29c1.84,0.63,3.97,3.04,5.57,0.26
	c1.46-2.53,1.13-5.55-0.92-7.8c-3.1-3.4-7.06-4.67-11.66-3.88c-4.01,0.69-7.94,1.92-12.03,2.06c-2.83,0.1-6.04,0.01-6.85-3.37
	c-0.82-3.39,1.9-5.24,4.61-5.97c7.84-2.12,15.65-4.51,23.79-5.31c4.32-0.43,8.02,0.87,10.98,4.15c3.47,3.83,7.72,6.78,11.58,10.18
	c1.45,1.29,2.97,2.52,4.98,2.76c2.17,0.26,4.57,0.3,6-1.47c1.66-2.06,0.12-4.1-1.15-5.8c-3.2-4.3-5.97-8.9-9.15-13.21
	c-1.39-1.88-3.02-3.68-2.73-6.3c3.39-2.44,5.9-5.67,8.1-9.16c0.33,0.26,0.68,0.5,0.99,0.78c3.24,2.86,3.71,9.29,8.76,9.25
	c8.1-0.06,16.06-2.15,23.59-5.39c1.67-0.72,1.42-2.46,1.77-3.87c2-8.05,4.02-16.1,6.04-24.15c-0.38-1.3-0.63-2.64-1.07-3.93
	c-10.41-3.18-20.95-6.01-31.22-9.61c-38.8-13.61-67.07-37.7-81.12-77.81c-8.39-23.96-7.56-46.65,2.44-69.21
	c5.69-12.83,9.5-25.35,4.13-39.1c3.67,0.03,4.3,3.98,6.95,5.33c0.91,0.66,1.87,1.12,3.04,0.74c2.7-2.04,4.61-4.73,5.18-7.96
	c2.62-14.74,7.32-29.12,7.56-44.27c0.06-3.89,0.81-7.69,1.94-11.39c0.52-1.72,0.96-4.31,3.33-3.96c1.85,0.27,1.95,2.67,1.99,4.35
	c0.14,5.78,0.33,11.55-0.44,17.34c-0.78,5.89-2.5,11.75-1.44,17.8c-0.7,7.19-2.09,14.24-4.55,21.06
	c-12.6,23.16-25.2,46.3-31.23,72.31c-1.24,5.35,0.7,8.24,5.86,9.35c1.91,1.38,1.99,3.17,1.15,5.14c-2.98,0.68-2.86,3.09-2.82,5.33
	c0.22,14.09,6.23,26.11,14.12,37.21c3.85,5.42,7.86,10.76,10.74,16.7c3.12,6.44,7.69,8.82,14.53,7.25c4.3,0.52,7.23,3.55,10.6,5.78
	c7.66,5.08,14.67,11.34,24.03,13.36c32.92,10.94,66.57,18.3,101.15,21.45c16.75,1.53,33.33-0.66,49.99-1.35
	c18.24-0.76,35.57-5.15,52.58-11.45c29.07-10.77,50.06-30.86,66.09-56.73c3.39-5.47,6.47-11.14,10.01-16.51
	c2.71-4.1,4.18-8.01,3.03-13.21c-1.3-5.88,2.66-9.25,8.76-8.47c0.64,0.08,1.28,0.19,1.89,0.39c12.7,4.17,19.87-0.68,22.64-15.03
	c2.06-10.68,2.43-21.51-7.14-29.71c-1.8-1.54-2.97-3.64-3.07-6.18c-0.25-5.92,3.25-8.37,8.56-5.78
	c11.7,5.71,16.02,16.13,17.47,28.16c0.43,3.6,0.36,7.28-0.25,10.9c-0.11,0.57-0.24,1.15-0.49,1.68c-0.24,0.54-0.55,1.04-0.83,1.56
	c0.53-0.26,0.54-0.89,0.92-1.31c2.45-6.7,5.74-13,8.36-19.57c7.76-19.48,11.85-39.78,13.57-60.67c3.02-36.8-6.65-71.05-21.14-104.15
	c-5.83-13.32-13.93-25.67-22.17-37.72c-10.28-15.04-25-25.19-40.26-34.55c-25.53-15.65-53.09-22.65-83.06-19.22
	c-4.54,0.52-8.92-1.17-13.46-0.99c-15.85,0.62-31.71,1.12-47.54,2.31c-5.09,0.38-10.28,1.15-15.28-0.81
	c-0.75-5.27-2.55-9.76-8.46-11.12c1.4-0.4,2.8-0.8,4.2-1.2c6.42-1.01,12.85-0.71,19.29-0.2c15.17-0.69,30.34-1.55,45.52-2.01
	c7.63-0.24,15.3,1.66,22.93-0.25C614.63,59.02,619.31,59.03,624,60.09z"/>
<path class="st3" d="M500.21,960.29c15.73-1.71,31.44-3.64,47.2-5.08c20.46-1.86,40.94-3.51,61.44-4.88
	c11.7-0.78,22.53-4.92,33.72-7.64c9.5-2.31,9.53-2.32,10.87,7.68c-25.17,4.77-49.78,12.17-75.27,15.46
	c-21.4,2.76-42.65,6.85-64.09,9.09c-35.09,3.66-69.23,13.63-104.59,15.24c-1.55,0.07-2.94,0.39-4.13,1.46
	c-13.72,12.28-27.98,24.03-39.29,38.71c-7.97,10.34-12.91,22.19-15.97,34.77c-0.96,3.94-2.55,5.27-6.48,5
	c-4.92-0.34-9.87-0.15-14.8-0.19c5.35-15.34,1.65-30.64-0.21-45.95c-1.73-17.13,1.7-34.15,1.06-51.26c-0.1-2.69,1.02-5.27,4.43-5.13
	c10.44,0.43,20.97-1.28,31.33,1.19c2.72,1.64,5.56,1.6,8.47,0.57c21.64-0.05,43.07-3.03,64.61-4.42c17.93-1.16,35.8-3.09,53.6-5.51
	C494.92,959.02,497.64,958.82,500.21,960.29z"/>
<path class="st4" d="M366.2,970.82c-10.82-2.36-21.82-0.6-32.7-1.55c-2.01-0.17-2.07,1-1.98,2.34c1.2,17.81-2.13,35.51-1.33,53.31
	c0.75,13.65,0.95,27.29-0.97,40.88c-0.21,1.5-0.84,2.87-1.79,4.08c-3.81,0.03-7.62,0.06-11.43,0.09c0.51-21.1,3.5-42,5.19-63
	c0.67-14.1,4.21-27.94,3.94-42.13c2.97-3.26,2.94-6.31,1.05-10.54c-4.48-10.05-5.36-20.7-4.61-31.82c0.95-14-0.48-28.06-2.48-41.98
	c-0.15-1.07-0.85-1.94-1.39-2.86c-0.91-2.33-1.75-4.67-0.52-7.15c2.63-4.36,3.02-9.15,2.64-14.07c-0.36-4.57,3.02-7.85,4.12-11.95
	c4.2-15.62,10.52-30.48,16.78-45.35c0.61-1.46,0.62-1.45,2.38-0.68c0.98,3.16-0.56,5.89-1.59,8.65
	c-5.46,14.67-10.01,29.63-14.69,44.56c-2.51,8.01-3.49,15.78-1.22,23.91c0.57,2.05,0.96,4.18,1.06,6.33
	c0.04,2.74-0.05,5.49,0.88,8.13c0.57,2.8,0.53,5.65,0.55,8.48c-0.12,3.18-0.31,6.36,0.75,9.45c0.51,5.38,1.11,10.75,1.79,16.12
	c-0.16,2.56,0.09,5.06,0.99,7.48c1.35,6.53,3.9,12.72,5.58,19.14c0.98,3.76,3.26,5.17,6.96,5.28c26.57,0.84,53.11,1.77,79.61-1.92
	c11.86-1.65,23.91-2.11,35.88-3.03c2.35-0.18,4.72-0.11,6.99-0.88c6.76,0,13.5-3.9,20.3-0.16c1.41,0.43,2.85,1.31,4.21,1.2
	c6.72-0.53,7.69,4.43,9.07,9.09c-42.39,5.56-84.9,9.62-127.67,10.7C370.41,971.62,368.29,971.87,366.2,970.82z"/>
<path class="st2" d="M479.86,1044.76c-0.06,6.63-0.17,13.25,0.26,19.89c0.2,3.03-0.02,5.97-4.68,5.45
	c-3.34-0.37-6.75,0.74-6.46-4.88c0.68-13.2-2.59-26.44,0.33-39.64c0.8-3.6-0.12-5.35-4.42-5.43c-10.7-0.2-21.39-1.05-32.09-1.45
	c-3.57-0.13-6.89-0.81-6.86-4.9c0.03-4.07,3.42-4.71,6.94-4.93c22.53-1.41,44.97-0.68,67.31,2.56c3.9,0.57,7.99-1.68,11.79,1.38
	c2.26,1.82,2.49,2.93,0.72,5.11c-2.74,3.37-6.49,4.14-10.36,4.12c-5.99-0.03-11.99-0.37-17.95-0.88c-3.46-0.3-4.9,0.36-4.64,4.32
	C480.16,1031.9,479.86,1038.34,479.86,1044.76z"/>
<path class="st5" d="M323.73,478.81c-10.57,5.19-21.98,5.94-33.46,6.39c-2,1.29-4.39-0.02-6.44,0.96
	c-5.3,0.11-10.61,0.11-15.91,0.37c-3.92,0.19-6.95-1.43-9.64-4.02c-1.13-6.83,3.46-8.21,8.63-9.04c15.76-1.4,31.54-2.71,47.29-4.25
	c8.72-0.85,17.38-2.32,26.11-3.09c3.97-0.35,7.98,0.36,7.99,5.91c-1.74,3.22-5.03,3.15-7.9,3.31c-20.96,1.22-41.86,3.59-62.91,2.76
	c-3.4-0.13-6.82-0.07-11.6,1.01c17.07,0.79,32.59-0.27,48.09-1.82C317.32,476.96,320.83,476.03,323.73,478.81z"/>
<path class="st6" d="M327.43,1069.88c0.92-14.99,1.84-29.97,2.76-44.96c2.09,4.77,1.64,9.98,2.35,14.96
	c0.69,4.82,0.15,9.76,1.27,14.66c1.36,5.91-1.46,10.84-5,15.36C328.35,1069.9,327.89,1069.89,327.43,1069.88z"/>
<path class="st7" d="M281.05,634.85c-2.2,3.09-4.39,6.17-5.09,10.02c-0.66,0.77-1.53,1.05-2.5,1.09c-1.29-0.01-2.5-0.44-3.72-0.8
	c-10.62-3.08-10.62-3.08-17.28,7.03c3.6,0.33,6.88-0.11,10.1,0.2c2.13,0.2,4.89-0.67,5.78,2.52c-1.75,3.46-3.5,6.93-5.25,10.39
	c-0.34,0.58-0.82,1-1.44,1.26c-6.22-0.03-12.62,3.75-18.65-0.75c-2.21-1.65-1.73,0.93-2.22,1.51c-4.27,5.08-8.11,10.51-12.43,15.56
	c-1.19,0.69-2.5,0.94-3.83,1.09c-3.38,0.12-6.37,1.86-9.65,2.34c-2.01,0.3-4.57,0.84-3.3-2.84c1.15,0.34,1.95,0,2.73-0.99
	c19.89-25.25,40.88-49.62,58.75-76.47c6.22-9.34,7.5-19.84,10.67-29.97c6.31-20.2,12.89-40.31,19.4-60.45
	c2-6.19,6.41-9.06,12.84-9.94c26.32-3.57,52.81-5.99,78.78-12.04c7.73-1.8,12.55,3.9,16.56,9.74c-0.41,4.87-1.94,8.76-7.78,8.88
	c-0.65,0.37-1.3,0.38-1.96,0.04c-3.07-3.11-6.52-4.26-11.02-3.32c-22.21,4.68-44.75,7.37-67.28,9.83c-5.86,0.64-8.75,3.33-10.69,8.4
	c-4.26,11.17-6.94,22.97-13.09,33.4c-1.1,1.92-2.14,3.87-3.09,5.86c-1.01,1.88-1.94,3.8-2.7,5.79c-5.06,10.06-5.5,21.95-12.41,31.3
	c-1.48,2-0.51,3.02,1.75,3.34c2.54,0.37,5.1,0.18,7.66,0.4c1.34,0.22,2.63,0.5,3.37,1.82c1.76,3.96-2.59,6.33-2.58,9.84
	c-2.47,2.81-5.81,1.65-8.83,1.94c-2.34,0-4.67-0.37-7.01-0.47c-2.82-0.11-8.01,5.39-7.72,7.98c0.15,1.32,1.23,1.57,2.2,1.96
	c3.17,1.26,6.39,2.38,9.7,3.24C280.34,633.86,280.76,634.29,281.05,634.85z"/>
<path class="st3" d="M560.89,493.57c-0.35,0.21-0.69,0.43-1.04,0.64c-12.41,6.85-22.72,16.73-34.7,24.17
	c-14.52,9.02-30.32,12.36-47.3,9.44c-9.45-1.63-17.6-5.29-22.43-14.19c3.59-6.85,2.13-14.28,2.25-21.47
	c0.24-14.54,0.1-14.69,13.84-12.14c16.01,2.97,32.07,5.56,48.28,7.16c12.89,1.28,25.66-1.44,38.53-1.03
	c2.13,0.07,4.26,0.18,6.38,0.28C565.08,489.7,561.25,490.72,560.89,493.57z"/>
<path class="st7" d="M518,63.77c9.34,0.37,10.81,2.25,8.04,10.23c-0.37,0.6-0.89,1.04-1.54,1.31
	c-27.24,2.17-51.87,12.54-76.12,24.14c-11.12,5.32-19.53,13.85-27.58,22.79c-3.62,4.03-6,7.26-13.19,5.41
	c-11.73-3.02-24.78,5.55-30.17,17.38c-3.38,7.43-5.94,15.18-8.08,23.04c-6.75,24.85-11.88,50-13.69,75.75
	c-1.74,10.85-4.32,21.58-2.09,32.76c0.65,3.27,1.38,7.26-1.81,10.18c-2.06-2.15-4.12-4.29-6.18-6.44
	c-4.08-12.14-2.5-24.38-1.55-36.84c2.21-29.19,7.59-57.69,15.79-85.73c2.29-7.83,5.22-15.42,9.11-22.58
	c8.46-15.58,22.51-18.98,37.22-19.7c3.93-0.19,6,2.82,8.44,6.01C438.64,83.37,476.28,69.88,518,63.77z"/>
<path class="st7" d="M752.87,525.08c7.47-2.33,13.98-6.71,19.68-11.64c8.55-7.38,17.17-14.68,26.02-21.7
	c9.98-7.92,15.31-19.21,21.9-29.6c5.62-8.85,11.75-17.26,19.33-24.59c3.25-3.14,6.67-3.8,10.35-1.29c3.48,2.37,4.26,5.68,2.35,9.56
	c-0.94,1.9-1.71,3.88-2.56,5.83c-0.59-0.22-1.07-0.58-1.42-1.1c-1.64-2.4-1.71-6.81-4.96-6.94c-3.92-0.16-3.96,4.5-5.26,7.16
	c-10.37,21.19-26.04,37.99-43.16,53.82c-9.9,9.15-21.21,16.73-30.11,26.98c-6.66,6.76-10.43,14.59-11.54,24.28
	c-1.86,16.31-8.92,31.18-14.7,46.36c-3.23,8.49-3.07,8.75,6.29,8.77c1.68,0.02,3.37,0.05,4.99,0.59c0.66,0.26,1.17,0.69,1.55,1.29
	c-0.41,3.74-1.83,7.36-1.29,11.21c-0.51,0.59-1.16,0.95-1.93,1.07c-5.34-1-11.24,1.51-16.11-2.52c-0.61-1.25-3.37-0.03-2.26-3.7
	c6.51-21.4,9.19-43.69,14.25-65.45c1.06-4.58-0.31-9.71-0.55-14.59C745.14,533.21,748.49,528.8,752.87,525.08z"/>
<path class="st2" d="M250.26,143.52c4.28,0.44,8.56,0.87,12.84,1.31c2.1-0.76,3.67,0.06,5.01,1.63c5.42,3.43,9.59,8.48,16.75,9.58
	c5.96,0.92,6.35,5.73,1.49,9.78c-2.03,0.66-4.1,1.47-6.24,0.99c-8.93-1.99-16.68,0.77-24.44,5.04c-8.44,4.65-17.39,8.25-27.46,5.58
	c-4.73-0.92-7.9-4.05-10.52-7.73c-5.87-8.22-4.06-14.62,5.55-20.21C231.32,143.33,240.62,142.64,250.26,143.52z"/>
<path class="st2" d="M326.66,119.24c1.78,3.88,3.5,7.79,5.35,11.64c1.6,3.32,2.67,6.85-1.22,8.93c-3.49,1.86-5.25-1.49-7.1-3.78
	c-7.74-6.86-16.5-6.42-25.71-3.86c-3.05,0.85-6.35,0.94-9.26-1.01c-8.73-2.68-13.13-7.49-12.69-13.89
	c0.45-6.59,6.05-11.85,14.28-13.56c12.32-2.57,22.77,1.22,32,9.26C325,114.19,326.45,116.28,326.66,119.24z"/>
<path class="st8" d="M228.21,177.43c10.45,0.55,19.98-2.96,28.58-8.14c7.94-4.78,15.76-5.91,24.47-3.69
	c1.61,0.41,3.39,0.16,5.09,0.22c-0.02,0.85-3.01,1.22-0.46,2.42c0.91,0.43,2.14,0.13,3.15,0.42c0.74,0.22,1.35,0.88,2.11,1.4
	c-3.28,4.11-7.3,0.33-10.99,1.6c-7.11,2.45-12.58,6.88-18.22,11.44c-7.03,5.68-18.22,5.31-24.23-1.31
	C234.85,178.64,231.06,179.46,228.21,177.43z"/>
<path class="st9" d="M286.58,503.05c4.96,1.58,4.64,4.23,1.52,7.46c-4.04,4.2-8.77,5.87-14.78,5.74c-8.28-0.18-16.59,0.8-24.89,1.2
	c-2.98,0.14-5.88-0.06-8.8-1.13c-2.4-0.88-5.59-0.81-5.62-4.05c-0.02-2.8,2.53-4.28,5.06-5.09c1.59-0.52,3.29-0.71,4.94-1.04
	c2.34,2.78,5.62,1.88,8.38,1.61C263.84,506.6,275.27,505.27,286.58,503.05z"/>
<path class="st5" d="M288.71,131.17c5.81,0.23,11.43-0.92,17.03-2.26c7.64-1.82,13.85-0.01,17.94,7.12
	c-2.3,5.35-6.2,7.56-12.04,6.43c-5.08-0.98-10,1.55-15.3,0.43c-5.24-1.11-8.71-2.38-6.84-8.68
	C289.75,133.36,289,132.19,288.71,131.17z"/>
<path class="st10" d="M323.73,478.81c-15.63,0.24-31.13,2.96-46.79,2.55c-4.07-0.11-8.15-0.09-12.21-0.31
	c-1.58-0.09-3.96,0.03-3.9-2.26c0.05-1.98,2.23-1.49,3.6-1.54c12.2-0.41,24.42-0.46,36.6-1.21c15.78-0.97,31.64-1.19,47.27-4.01
	c2.02,3.72-1.18,3.87-3.18,4.16C338,477.22,330.86,477.96,323.73,478.81z"/>
<path class="st2" d="M318.39,876.79c4.7,2.43,2.26,6.92,2.85,10.44c2.3,13.81,2.65,27.63,1.57,41.68
	c-0.69,8.98,1.06,18.39,5.6,26.61c2.27,4.1,2.24,6.85-2.19,8.92c-0.65,0.42-1.22,0.33-1.7-0.28c-0.21-1.64-0.43-3.29,0.21-4.89
	c0.06-7.78-4.89-14.34-5.24-22.11c-0.38-8.63-1.37-17.24-2.1-25.86C316.06,899.74,316.74,888.25,318.39,876.79z"/>
<path class="st11" d="M286.58,503.05c-0.24,1.31-0.59,2.49-2.23,2.67c-12.32,1.32-24.63,2.69-36.95,3.95
	c-2.39,0.24-5.3,0.54-3.39-3.54c11.36-1.36,22.71-2.79,34.08-4.04C280.93,501.78,283.99,500.68,286.58,503.05z"/>
<path class="st12" d="M325.21,964.21c0.35,0.04,0.69,0.11,1.02,0.22c0.23,14.41-2.03,28.52-5.04,42.54
	c0.05-2.75-0.25-5.56,0.24-8.23c0.5-2.73,0.46-4.82-1.87-6.77c-3.4-2.84-2.57-7.15-0.08-9.01c4.98-3.71,4.2-8.83,5.17-13.61
	C324.41,967.6,323.67,965.78,325.21,964.21z"/>
<path class="st13" d="M211.56,683.48c-0.15,2.87,1.61,1.71,2.95,1.39c3.31-0.8,6.33-2.71,9.88-2.57c-0.1,4.96-1.26,9.33-6.37,11.52
	c-2.23-3.89-6.04-2.09-9.22-2.57C206.37,685.34,207.12,683.24,211.56,683.48z"/>
<path class="st14" d="M318.39,876.79c-0.33,11.5-0.66,23-0.99,34.51c-3.32,0.02-1.34-2.46-1.36-3.49
	c-0.16-12.42-0.1-24.83-0.1-37.25c0.4-0.2,0.81-0.22,1.22-0.05C317.39,872.63,316.69,874.94,318.39,876.79z"/>
<path class="st15" d="M250.26,143.52c-9.36,0.38-18.39,2.29-27.03,5.97c1.45-4.34,4.99-5.31,8.99-5.81
	c5.66-0.7,11.29-1.68,16.93-2.47C251.73,140.85,252.38,141.57,250.26,143.52z"/>
<path class="st16" d="M928.22,571.41c-3.3-0.46-6.6-0.92-9.9-1.38c0.02-0.33,0.04-0.66,0.05-0.99c4.54-0.36,9.08-0.71,13.63-1.07
	C930.82,569.2,928.8,569.51,928.22,571.41z"/>
<path class="st17" d="M624,60.09c-4.69,0-9.38,0.01-14.07,0.01c-1.22-0.12-2.44-0.25-3.66-0.37C612.21,59.46,618.18,57.27,624,60.09
	z"/>
<path class="st18" d="M541.49,62.36c-6.42,0.64-12.85,0.73-19.29,0.2C528.61,60.46,535.04,60.76,541.49,62.36z"/>
<path class="st19" d="M326.66,119.24c-1.45-2.09-2.91-4.18-4.37-6.27C325.87,113.59,328.53,114.84,326.66,119.24z"/>
<path class="st20" d="M831.54,510.59c-1.6,0.1-3.21,0.19-5.28,0.31c1.51-2.34,2.85-3.87,5.1-4.3
	C831.42,507.93,831.48,509.26,831.54,510.59z"/>
<path class="st21" d="M325.21,964.21c-0.19,1.72-0.38,3.43-0.57,5.14c-1.5-3.38-1.65-6.75,0.09-10.1
	C324.89,960.91,325.05,962.56,325.21,964.21z"/>
<path class="st22" d="M451.37,476.07c4.43,0.2,1.44,2.42,1.07,3.93C451.61,478.81,447.53,478.51,451.37,476.07z"/>
<path class="st23" d="M268.11,146.46c-1.67-0.54-3.34-1.09-5.01-1.63C265.29,143.78,267.76,141.88,268.11,146.46z"/>
<path class="st9" d="M283.83,486.17c1.93-1.75,4.28-0.75,6.44-0.96C288.32,486.83,286.04,486.27,283.83,486.17z"/>
<path class="st0" d="M524.81,74.34c0.42-0.06,0.84-0.18,1.23-0.34c15.46,0.59,30.84-1.69,46.27-1.58
	c25.42,0.19,51.36-3.92,76.1,3.34c35.57,10.45,65.28,29.28,86.09,61.85c21.48,33.61,32.76,70.09,37.16,108.96
	c2.48,21.92-2.25,43.51-7.51,64.82c-3.57,14.47-9.88,27.76-16.59,40.92c-2.46,0.13-1.59-1.36-1.27-2.59
	c0.72-8.41,0.46-16.69-2.9-24.62c-2.7-6.36-7.17-11.14-13.24-14.33c-1.61-0.84-3.86-3.73-5.27-0.97c-1.22,2.38-3.42,5.3-0.13,8.66
	c11.56,11.81,13.74,28.11,6.12,42.14c-3.9,7.19-8.26,9.38-16.29,8.16c-1.91-0.29-3.89-0.42-5.68-1.06c-3.1-1.11-6.03-1.37-8.14,1.49
	c-1.89,2.56-1.42,5.25,0.83,7.51c2.23,2.24,0.18,4.18-0.75,5.72c-10.22,16.81-19.8,34-33.35,48.61
	c-21.07,22.71-47.86,34.4-77.44,39.72c-40.45,7.27-80.95,6.11-121.19-2.84c-18.17-4.04-36.18-8.51-53.65-14.99
	c-11-5.58-19.63-13.72-25.65-24.45c-8.44-15.06-18.58-29.2-22.71-46.5c-3.66-15.33-2.93-30.33,2.21-44.85
	c5.42-15.29,12.4-30.03,14.55-46.33c2.15-2.23,4.73-1.26,7.23-0.95c9.35,1.17,14.34-0.24,21.99-6.43
	c-7.21,3.19-14.59,3.38-22.07,1.45c-2.48-0.64-5.06-1.18-6.17-4c0.42-5.06-0.81-10.4,2.56-14.95c3.98,0.08,6.68,3.31,10.59,4
	c14.99,2.65,29.58-10.01,28.58-25.19c-0.39-5.83-4.86-10.63-11.92-12.63c-7.58-2.14-15.17-4.23-23.04-5.14
	c-3.37-2.74-1.51-6.14-1.1-9.31c0.32-2.48,0.88-4.94,1.56-7.35c0.4-1.25,1.03-2.47,2.24-3.01c11.91-5.3,20.63-15.38,32.08-21.4
	c1.82-0.96,5.35-2.03,3.82-4.79c-1.17-2.11-4.41-0.96-6.56-0.12c-7.14,2.81-12.49,8.21-18.22,13.04c-2.09,1.76-3.65,4.33-6.81,4.47
	c-3.52-1.49-2.31-4.28-1.47-6.55c5.04-13.65,13.63-24.66,25.41-33.17c3.65-2.63,5.58-1.35,8,2.43c8.95,14.02,16.8,29.07,31.61,38.28
	c9.56,8.7,16.45,19.45,22.86,30.47c2.7,4.63,5.81,7.13,11.24,5.82c3.69-0.03,2.02-2.47,1.6-3.98c-1.51-5.4-5.01-9.73-8.06-14.3
	c-1.38-2.07-3.45-3.85-3.01-6.74c1.42-3.29,4.09-2.51,6.54-1.86c8.66,2.29,17.49,3.6,26.35,4.75c3.25,0.42,6.34,0.46,9.32-1.02
	c1.76-0.95,4.74-0.41,4.98-3.2c0.21-2.51-2.21-3.51-4.01-4.54c-7.07-4.04-13.71-8.74-20.13-13.69c-6.05-4.67-11.8-9.84-12.52-18.3
	c2.23-2.5,4.42-0.64,6.35,0.31c5.19,2.56,10.68,4.45,15.81,7.15c3.94,2.08,6.94,1.39,9.01-2.75c0.67-1.33,1.5-2.59,2.34-3.84
	c2.55-3.8,5.85-4.99,9.89-2.5c5.39,3.31,11.37,4.94,17.42,6.4c6.66,1.61,13.4,2.87,19.71,5.7c2.39,1.08,4.97,1.25,7.56,0.82
	c3.99-0.1,6.89,3.41,10.89,3.38c1.13-2.03-0.57-2.81-1.58-3.65c-11.35-9.41-23.64-17.05-38.45-19.77c-1.48-0.27-2.93-0.67-4.42-0.87
	c-20.88-2.78-38.49-11.37-51.24-28.66c-0.04-0.07-0.15-0.24-0.34-0.51c-0.23-0.34-0.44-0.69-0.61-1.06
	c-0.4,0.51,0.44,0.54,0.39,0.95c7.48,9.86,14.91,19.71,25.27,26.81c-2.49,3.62-6.92,3.8-10.32,5.8
	c-9.43-1.32-16.14-7.41-23.09-13.12c-2.39-1.96-4.57-6.6-7.45-4.93c-3.37,1.96-0.17,6.18,0.34,9.36c0.94,5.79,3.61,10.97,6.15,16.19
	c0.81,1.66,2.21,3.84,0.34,5.29s-3.57-0.59-5.05-1.64c-8.71-6.17-14.61-15.02-21.56-22.87c-1.68-1.89-3.21-4.01-4.61-6.16
	c-0.84-1.52-1.91-2.89-2.84-4.28c-0.23-0.22-0.35-0.54-0.32-0.9c-0.34,0.58,0.27,0.86,0.44,1.31c1.09,1.35,1.92,2.83,2.84,4.26
	c5.32,7.54,11.52,14.37,17.44,21.42c4.43,5.27,9.44,9.91,15.87,12.88c5.05,2.33,7.61,7.41,11.34,11.2c0.71,0.72,1.32,1.87,0.72,2.92
	c-0.79,1.38-2.21,1.08-3.46,0.82c-2.53-0.53-4.97-1.38-7.33-2.42c-19.19-8.52-35.12-21.33-48.71-37.17
	c-2.08-2.43-3.89-5.14-4.75-8.32c-0.85-2.98,0.68-7.14-4.09-8.16c-2.13-1.03-2.35-3.35-3.51-5.02c-1.52-2.18-1.16,1.03-2.07,1.05
	c-6.79,1.56-13.61,2.92-19.04,7.88c-1.88,1.72-3.85,3.39-5.8,5.05c-1.61,1.37-3.22,3.01-5.66,1.69c1.82-10.62,9.4-16.3,18.28-20.44
	c9.69-4.52,19.89-7.87,29.18-13.37c5.96-3.53,11.1-7.61,15.82-12.8C480.45,88.49,500.99,78.21,524.81,74.34z"/>
<path class="st0" d="M486.94,950c-6.68,0.55-13.37,1.1-20.05,1.65c-11.97,0.51-23.09-4.23-34.74-5.7
	c-4.04-0.51-8.04-1.39-12.05-2.15c-37.93-7.2-64.35-28.1-79.21-64.24c-6.22-15.13-8.51-28.93-2.73-44.9
	c6.68-18.44,14.08-36.41,23.35-53.64c3.11-5.78,8.13-9.34,14.12-11.62c9.5-3.62,13.43-10.74,13.34-20.57
	c-0.06-6.25-0.9-12.44-1.9-18.55c-1.08-6.58-3.97-12.37-11.4-14.09c-3.82-0.89-4.44-3.41-3.89-6.83c3.32-20.54,3.6-41.47,7.91-61.89
	c1.56-7.4,2.33-14.84,0.52-22.35c-0.35-1.45-0.47-2.98,0.38-4.38c8.04-1.66,12.29-7.37,15.08-14.43c1.96-4.96,4-9.97,5.17-15.14
	c1.27-5.56,3.73-5.21,7.58-2.74c3.95,2.54,8.34,4.34,11.75,7.75c5.11,5.12,8.29,5.07,12.18-1.34c6.19-10.19,14.4-18.53,23.21-27.37
	c0.75,3,1.49,5.75,2.12,8.52c0.58,2.5,0.48,5.33,1.65,7.49c8.18,15.24,6.3,31.08,3.41,47.1c-3.38,18.75-1.31,37.63-0.8,56.46
	c0.36,13.4,3.8,26.67,1.1,40.23c-0.79,3.95,1.1,8.22,5.76,8.64c5.48,0.49,6.69-4.05,6.65-8.28c-0.14-16.93-0.67-33.86-0.88-50.79
	c-0.2-16.48-2-33.21,0.26-49.36c2.02-14.42,2.92-28.72,3.48-43.16c4.74,0.75,5.77,5.31,6.62,8.39c2.53,9.08,7.24,16.67,13.19,23.7
	c0.08,0.64-0.05,1.23-0.41,1.77c-0.86,0.69-1.89,0.92-2.94,1.17c-5.98,1.4-7.56,3.39-6.89,8.6c0.68,5.25,4.46,8.77,9.41,8.77
	c4.65-0.01,8.98-3.62,9.66-7.9c0.35-2.2-0.65-3.62-2.14-5.03c-1.08-1.02-3.31-1.82-1.54-4.03c8.97-1.69,18.19-1.39,27.13-3.57
	c4.34-1.06,8.84-1.55,12.95-3.4c5.15-2.31,5.53-4.24,1.78-8.42c-2.23-2.48-4.15-4.95-2.42-8.51c3.61-2.88,2.42-7.02,2.9-12.37
	c7.26,10.7,14.97,4.8,22.43,2c13.39-5.02,13.47-5.13,11.48,9.32c-3.24,23.54-2.75,47.02,0.54,70.49c1.16,8.27,3.82,16.17,6.72,24.37
	c-2.87,0.31-5.37,0.6-7.88,0.86c-12.33,1.29-12.27,1.29-12.92-11.46c-1.37-26.99-2.43-53.96,2.16-80.79c0.39-2.3-0.1-4.43-2.58-5.19
	c-2.6-0.79-4.25,0.97-4.83,3.1c-1.05,3.9-2,7.91-2.32,11.92c-2.14,26.59-1.38,53.07,3.63,79.34c0.51,2.67,1.05,4.56-2.92,5.38
	c-5.6,1.14-8.48,5.56-9.24,11.1c-1.72,12.47-0.66,24.89,2.2,37.02c1.58,6.7,7.84,8.24,13.82,8.19c5.01-0.04,7.05,1.61,7.75,6.64
	c3.38,24.38,12.77,46.03,29.85,64.11c9.11,9.65,16.9,20.56,27.54,28.75c1.75,1.35,2.86,3.1,3.28,5.34
	c4.33,22.91,9.9,45.5,17.65,67.52c1.33,3.77-0.18,5.32-3.76,6.37c-23.53,6.87-47.41,11.05-72.01,12.05
	C546.27,941.15,516.55,945.29,486.94,950z"/>
<path class="st0" d="M694.79,700.37c-2.26,10.91-6.24,21.27-10.01,31.71c-0.79,2.19-1.13,4.53-1.68,6.81
	c0.61,6.22-2.75,12.02-1.99,18.25c0.23,1.84-0.94,4.65,2.69,4.55c3.39,1.48,4.04,4.82,5.13,7.78c3.1,8.43,6.12,16.9,8.81,25.6
	c11.25-12.15,14.66-27.92,21.02-42.22c1.39-3.13,2.42-6.42,3.93-9.5c1.18-2.41,2.68-4.54,5.96-3.36
	c13.76,1.08,26.34,4.86,36.78,14.59c4.83,4.5,10.45,8.16,15.78,12.09c2.54,1.88,3.33,4.05,2.44,7.14
	c-8.06,27.94-13.92,56.42-21.06,84.59c-2.34,9.23-6.44,17.61-12.62,24.97c-11.33,13.5-30.59,18.52-45.72,2.13
	c-16.56-17.94-32.46-36.46-39.42-60.8c-3.22-11.27-9.84-21.32-12.63-32.8c0.79-9.58,2.93-18.9,4.71-28.31
	c2.38-12.53,9.17-22.91,13.07-34.58c3.75-11.22,11.84-19.2,20.25-26.92C691.49,700.95,692.82,699.72,694.79,700.37z"/>
<path class="st0" d="M751.62,612.87c-0.34-0.21-0.71-0.36-1.1-0.45c-1.65-6.97,0.41-13.56,2.18-20.14
	c1.11-4.13,3.02-8.06,3.95-12.22c4.69-20.93,15.52-38.32,30.51-53.29c12.59-12.57,23.43-26.7,35.47-39.76
	c3.2-3.47,6.79-6.53,10.16-9.82c5.14-5.02,9.29-10.58,11.87-17.35c0.91-2.37,1.34-5.6,5.04-5.7c-0.59,14.6-6.73,26.61-17.57,36.1
	c-4.19,3.67-8.73,6.95-12.19,11.34c-3.01,3.83-5.88,7.83-3.87,13.19c-1.16,3.81-0.89,7.42,2,10.37c1.86,1.9,0.56,4.46,1.74,6.44
	c0.58,12.85-2.75,24.02-13.58,32.1c-1.36,1.02-3.63,2.26-2.16,4.6c1.28,2.05,3.39,1.24,5.26,0.84c5.31-1.14,8.31-4.95,10.62-9.42
	c4.32-8.38,5.73-17.35,4.95-26.69c-1.38-4.64,0.01-6.79,5.19-6.65c14.36,0.4,26.97-4.33,37.85-13.67c0.65-0.56-0.26-0.05,0.51-0.39
	c11.75-5.22,22.86-11.6,33.76-18.37c1.08-0.67,2.45-0.77,3.73-0.22c1.77,1.89-0.41,2.94-0.92,4.35
	c-5.73,3.72-11.56,7.29-17.14,11.23c-2.96,2.09-6.08,4.69-4.54,9.02c1.6,4.51,5.77,4.78,9.66,4.66c6.94-0.21,13.36-2.81,19.88-4.92
	c11.5-3.73,22.95-8.18,36.99-3.84c-18.47,8.49-35.32,17.23-54.55,19.59c-3.53,0.43-7.3,0.63-7.46,5.26
	c-0.16,4.6,3.56,5.17,7.05,5.82c12.75,2.37,25.66,1.63,38.51,2.11c4.74,0.18,9.36,0.96,13.87,2.44c1.23,0.4,2.8,0.6,2.91,2.04
	c0.11,1.42-1.46,2.02-2.53,2.66c-2.97,1.78-6.24,2.82-9.68,3.16c-12.8,1.28-25.61,2.51-38.41,3.75c-1.71,0.16-3.44,0.16-5.14,0.38
	c-3.07,0.39-6.4,1.03-6.98,4.58c-0.61,3.73,2.12,5.78,5.29,7.11c9.57,3.99,19.79,5.33,29.82,7.49c4.86,1.05,10.29,1.09,14.55,5.95
	c-6.99,2.2-13.71,2.63-20.38,2.9c-23.17,0.93-46.09,2.63-68.47,9.82c-16.08,5.16-26.31,15.41-32.39,30.51
	c-3.68,9.14-5.6,18.82-8.87,29.22C801.65,627.35,780.09,615.84,751.62,612.87z"/>
<path class="st0" d="M690.89,633.32c1.29,5.62,4.94,12.2,3.17,16.59c-1.67,4.15-9.8,3.15-15.09,4.13
	c-25.21,4.68-43.38,20.31-60.3,38.01c-1,1.05-1.4,2.73-3.47,3.12c-4.17-13.17-8.41-26.39-16.93-37.63c-2.71-3.57-4.92-7.63-9-9.9
	c-3.5-1.95-2.15-5.35-2.35-8.05c-1.15-15.25,0.91-30.35,2.73-45.45c0.38-3.19,0.67-6.39,0.87-9.59c0.25-4.14,0.8-7.51,5.33-9.92
	c5.88-3.12,6.61-8.72,2.89-14.95c-3.92-6.58-8.13-13-12.53-19.98c8.63-1.97,16.68-3.82,24.73-5.66c10.43-3.34,21.46-3.51,31.6-1.14
	c13.99,3.27,26,10.8,31.11,25.76c1.16,3.39,2.04,6.87,3.31,10.22c2.94,4.81,1.57,10.65,3.72,15.64c3.55,12.63,5.18,25.62,6.98,38.57
	C688.16,626.75,689.27,630.08,690.89,633.32z"/>
<path class="st0" d="M330.13,684.83c0.77,9.58,1.55,19.16,2.32,28.74c0.62,7.62-0.47,14.37-8.52,17.98
	c-1.46,0.65-2.89,2.04-3.66,3.46c-9.67,18.02-24.61,32.23-35.56,49.35c-6.07,9.51-11.55,19.48-19.2,27.98
	c-12.36,13.72-27.64,16.66-44.93,12.91c-1.78-0.92-2.73-2.4-2.94-4.37c-2.08-12.44-4.52-24.75-4.27-37.55
	c0.23-11.74,1.63-23.11,5.94-33.95c5.77-14.52,11.08-29.24,17.69-43.42c5.75-12.32,2.99-12.07,19.87-11.06
	c13.52,1.24,23.03,9.48,32.28,18.28c1.93,1.84,1.29,3.18,0.12,4.96c-10.23,15.58-18.88,32.04-27.24,48.67
	c-0.68,1.36-1.3,2.48-2.89,3.17c-4.04,1.76-4.47,5-2.43,8.46c2.06,3.48,5.05,5.11,9.24,3.3c3.65-1.57,5.43-4.71,7.1-7.96
	c6.42-12.54,11.76-25.65,19.54-37.49c8.29-12.37,17.46-24.09,26.1-36.21c2.6-3.65,5.05-7.36,7.18-11.31
	C326.79,687.05,327.19,684.47,330.13,684.83z"/>
<path class="st0" d="M402.52,512c0.31,0.13,0.64,0.22,0.98,0.25c4.25,6.16,8.37,12.42,12.82,18.44c2.3,3.1,4.88,7.57,1.8,9.42
	c-2.79,1.67-8.11,3.23-12.01-0.32c-4.28-3.9-9.05-7.38-12.78-11.74c-3.82-4.47-8.27-5.06-13.29-4.04
	c-6.93,1.41-13.77,3.23-20.67,4.79c-2.49,0.56-4.92,1.41-4.35,4.42c0.58,3.05,3.21,2.91,5.68,2.44c4.84-0.91,9.61-2.12,14.59-2.34
	c8.96-0.4,14.03,4.93,12.76,13.56c-0.56,3.8-1.94,4.9-5.35,2.65c-2.01-1.32-4.17-2.41-6.26-3.6c-0.3,0.47-0.61,0.93-0.91,1.4
	c4.71,3.66,9.44,7.28,14.1,10.99c2.17,1.72,0.73,12.59-1.84,12.79c-3.08,0.24-4.79-3.15-7.4-4.43c-1.57-0.77-2.39-4.89-4.8-1.8
	c-1.69,2.16,0.86,3.81,2.41,5.2c4.31,3.87,8.71,7.63,12.96,11.55c1.56,1.44,3.06,3.06,2.02,5.6c-2.35,5.74-4.54,11.54-6.92,17.26
	c-2.58,6.19-7.5,7.72-13.66,6.5c-3.79-0.75-7.59-1.75-11.25,0.5c-0.49,0.47-0.95,0.47-1.37-0.08c2.89-9.26,5.78-18.52,8.87-28.43
	c-4.39,0.69-4.78,4.09-5.63,6.45c-6.88,19.16-18.6,34.94-33.69,48.97c-6.59-15.28-16.97-26.31-33.92-29.68
	c1.01-10.45,3.78-20.52,8.21-29.94c3.95-8.41,7.36-16.78,8.19-26.15c0.59-6.61,2.26-13.07,4.49-19.35c1.29-3.64,3.53-6,7.39-7.32
	c20.96-7.16,42.67-10.97,64.36-14.9C392.9,510.18,397.82,509.7,402.52,512z"/>
<path class="st3" d="M380.58,620.73c3.99,9.14,2.83,18.55,0.77,27.74c-3.54,15.73-3.8,31.83-6.11,47.69
	c-0.37,2.54-0.97,5.05-1.16,7.6c-0.37,5.12-3.05,10.53,6.02,12.22c6.28,1.18,8.06,8.59,9.02,14.52c1.09,6.74,1.39,13.64,1.56,20.48
	c0.23,9.04-5.06,16.82-13.7,19.69c-7.43,2.47-12.22,7.26-15.77,14.04c-10.58,20.2-18.89,41.2-24.85,63.25
	c-1.74,6.42-1.41,11.44,1.13,17.55c6.51,15.63,11.87,31.68,23.62,44.58c14.95,16.42,33.18,26.87,54.9,31.07
	c17.01,3.29,34.05,6.34,50.88,10.49c-9.44,2.12-19.11,2.18-28.69,2.89c-21.14,1.55-42.15,5.14-63.46,4.24
	c-11.57-0.49-23.14-0.89-34.71-1.29c-1.84-0.06-3.3-0.21-3.73-2.51c-1.54-8.2-5.75-15.7-6.43-24.14c-1.02-2.05,0.39-4.48-1.02-6.47
	c-0.53-5.58-1.06-11.15-1.59-16.73c-1.07-2.93,0.54-6.15-0.99-9.03c-0.09-3-0.18-5.99-0.27-8.99c-1.08-2.49,0.47-5.32-1.02-7.76
	c-6.63-18.58,1.94-35.23,6.95-52.22c3.12-10.57,7.39-20.8,11.14-31.18c3.78-9.31,7.46-18.65,12.59-27.34
	c1.21-1.38,2.21-2.99,4.04-3.7c2.43-0.69,4.88-1.31,7.28-2.09c9.41-3.03,10.84-4.92,11.33-14.74c0.58-0.08,0.75-0.39,0.49-0.93
	c-0.14-0.28-0.31-0.41-0.49-0.41c-0.13-3.02-0.27-6.04-0.4-9.06c1.28-4.03-0.74-7.69-1.3-11.51c-0.42-2.09-0.88-4.18-1.25-6.28
	c-0.84-4.75-3.19-7.92-8.42-7.93c-2.79-0.01-3.81-1.16-3.37-3.94c2.63-16.69,1.13-33.66,3.6-50.39c1.4-9.54,3.3-18.88,6.45-27.98
	c1.24-3.59,2.44-7.2,0.76-11.41C376.8,620.73,378.69,620.73,380.58,620.73z"/>
<path class="st3" d="M384.25,290.7c-0.23,11.74-3.36,22.75-8.37,33.28c-10.04,21.11-14.05,43.4-5.03,65.19
	c9.42,22.74,19.6,45.81,41.32,60.57c1.19,0.81,2.02,2.13,3.02,3.21c-7.48-1.08-13.01-5.96-19.05-9.82
	c-4.83-3.08-9.52-6.39-14.27-9.59c-5.9-0.88-8.57-6.2-12.4-9.63c-10.52-9.44-16.61-21.64-19.19-35.57
	c0.72-9.14,1.55-18.26,2.26-27.39c0.93-11.95-0.68-23.81-2.18-35.64c1.18-8.85,5.59-16.62,8.67-24.81c2.7-7.18,5.78-14.24,8.5-21.43
	c2.5-6.69,3.37-13.76,4.78-20.71c-0.67-6.03,1.6-11.7,2.18-17.59c0.3-3.03,11.31-6.43,13.97-4.8c1.38,0.85,1.46,2.16,1.01,3.32
	c-3.19,8.31-2.23,16.74-0.93,25.2c0.1,0.66-0.3,1.22-0.61,1.77c-1.95,4.88-0.87,10.22-2.31,15.17c-1.46,1.7-3.09,0.69-4.68,0.3
	c-1.62-0.39-3.66-1.36-4.44,0.76c-0.85,2.31,1.37,3.14,2.97,4.2C381.22,287.84,384.43,287.3,384.25,290.7z"/>
<path class="st3" d="M256.87,694.89c-10.68-2.19-15.7,3.32-18.96,12.78c-6.94,20.17-18.2,38.85-21.55,60.25
	c-2.48,15.78-1.52,31.55,2.17,47.13c0.49,2.05,0.48,4.22,0.7,6.34c-11.11-1.23-20.97-4.73-27.68-14.51
	c-8.17-11.91-8.44-25.16-7.16-38.77c0.67-7.05,2.4-13.81,5.12-20.34c5.86-12.53,13.7-23.94,20.46-35.97
	c4.69-6.15,9.24-12.4,14.34-18.22c0.68-0.63,1.39-1.16,2.4-0.77c3.24,2.84,7.05,2.14,10.85,1.81
	C244,694.06,250.47,692.47,256.87,694.89z"/>
<path class="st7" d="M387.95,266.26c-3.54-9.81-4.52-19.54,1.17-29.39c-4.2-0.32-7.64,2.51-11.69,2.28c-1.9-0.11-1.83,1.99-2.1,3.44
	c-0.99,5.26-2,10.51-3.01,15.76c-2.77-5.51,0.2-10.98,0.83-16.22c0.9-7.5,0.28-14.85,0.4-22.3c-2.55,4.75-3.05,9.92-3.52,15.15
	c-1,10.98-1.33,22.07-5.63,32.51c-0.78,1.88-0.74,4.18-0.74,6.28c0.01,6.46-3.59,11.2-7.58,15.61c-1.12,1.24-1.33-0.77-1.62-1.62
	c-1.78-2.33-0.37-4.63,0.07-6.94c5.46-21.44,9.53-43.09,11.34-65.19c1.8-21.94,10.39-40.99,25.98-56.68
	c2.53-2.55,5.11-5.3,9.13-5.53c3.94-1.47,5.96-5.29,9.28-7.55c6.32-4.31,12.44-9.01,20.72-8.51c0.73-0.31,1.29-0.13,1.7,0.55
	c1.18,2.6,1.05,5.24,0.2,7.9c-0.26,0.59-0.64,1.11-1.12,1.55c-8.15,6.25-17.66,10.33-25.79,16.74
	c-13.3,10.48-19.63,24.85-25.22,40.87c7.15-0.89,11.8-5.63,17.72-7.02c6.22-5.54,12.32-11.23,19.23-15.96
	c3.42-2.34,7.07-3.99,11.3-3.92c1.74,0.03,3.57,0.22,4.17,2.25c0.57,1.93-0.41,3.4-2.06,4.23c-13.59,6.85-23.69,18.99-37.89,24.89
	c-2.18,2.18-5.16,2.05-7.84,2.38c-4.57,0.56-6.36,2.87-5.91,7.32c0.3,2.93-0.37,5.91,0.2,9.29c4.12-1.6,8.18-2.82,12.49-1.94
	c9.51-1.43,18.04,2.62,26.64,5.36c6.91,2.2,9.71,8.5,9.02,15.91c-1.54,16.45-15.63,27.06-31.37,23.72
	C392.95,270.71,390.19,268.97,387.95,266.26z"/>
<path class="st0" d="M455.41,513.64c6.32,6.07,13.05,11.3,22.15,12.67c20.59,3.11,38.81-2.29,55.02-14.99
	c6.89-5.4,13.58-11.02,21.36-15.16c1.9-1.01,3.59-2.34,5.91-1.94c-0.12,0.84-0.23,1.68-0.35,2.52c0.32,6.77-2.19,13.2-2.24,20
	c-0.03,4.57,0.2,9.17-0.15,13.75c0.73,4.46-0.92,6.33-5.53,8.03c-20.85,7.72-42.43,12.51-63.99,17.51c-0.62,0.14-1.25,0.29-1.85,0.5
	c-16.29,5.39-17.48,7.13-16.26,23.61c0.16,1.52,1.66,3.41-1.12,4.13c-3.02-9.08-3.56-18.82-7.34-27.75c1.73-1.4,5.19-0.12,5.67-3.2
	c0.45-2.92-2.14-4-4.24-4.89c-2.06-0.87-2.02-2.27-2.1-4.07c-0.32-6.59-1.52-13.21-1.06-19.72
	C459.63,519.98,454.22,518.1,455.41,513.64z"/>
<path class="st0" d="M577.42,547.07c5.05,5.01,7.93,11.6,12.45,17.01c1.85,2.22,0.64,3.53-1.46,4.3
	c-10.24,3.72-20.54,7.27-30.73,11.11c-2.44,0.92-3.64-0.24-4.9-1.7c-2.38-2.75-4.67-5.58-6.99-8.38c-1.54-1.86-3.18-3.77-5.92-2.66
	c-2.44,0.99-3.4,3.21-3.42,5.71c-0.04,4.28-0.27,8.62,0.26,12.84c0.43,3.37-0.09,5.23-3.7,5.97c-6.28,1.28-12.5,2.85-18.74,4.33
	c-2.43,0.58-4.07-0.76-5.73-2.18c-8.02-6.86-14.38-15.28-21.53-22.95c-2.35-2.52-1.39-3.45,1.38-4.16c2.89-0.74,5.69-2.1,8.61-2.47
	c22.47-2.82,43.34-11.37,64.8-17.81c1.22-0.37,2.54-0.38,3.81-0.56C569.66,545.11,573.57,545.91,577.42,547.07z"/>
<path class="st3" d="M694.79,700.37c-10.3,8.57-19.4,17.95-24.13,31c-2.52,6.96-7.04,13.57-8.86,20.35
	c-2.56,9.53-6.6,18.95-6.84,29.08c-0.09,3.93-0.73,7.66-2.75,11.08c-5.82-17.38-10.38-35.21-18.34-51.82
	c-1.3-2.71,0.16-4.41,1.09-6.51c7.82-17.63,21.5-29.46,38.06-38.38c8.58-4.62,16.95-9.77,27.52-12.96
	C698.45,688.81,696.62,694.59,694.79,700.37z"/>
<path class="st0" d="M636.87,834.16c-1.41,1.31-1.12,3.75-3.21,4.79c-24.76-24-48.52-48.58-55.26-84.47
	c-0.83-4.44-0.19-5.34,4.08-5.58c4.89-0.27,9.73-1.47,14.58-2.33c1.94-0.34,3.24-0.87,3.98,2.14c6.16,25.11,20.43,45.93,35.58,66.26
	c0.25,0.33,0.38,0.76,0.57,1.14c-0.58,4.43-1.03,8.85,0.41,13.24C638.14,831.01,638.11,832.71,636.87,834.16z"/>
<path class="st0" d="M628.44,726.46c-1.95-4.62-3.25-9.02-5.54-12.82c-3.52-5.84-2.52-10.44,1.76-15.42
	c17.94-20.86,39.03-36.51,66.78-41.6c3.29-0.6,5.28-0.07,5.94,3.59c0.83,4.63,3.14,9.32,2.69,13.77c-0.61,6.01-7.49,3.47-11.25,5.73
	c-8.41,5.06-17.92,8.3-26.25,13.47C645.1,704.02,640.55,706.72,628.44,726.46z"/>
<path class="st24" d="M736.17,697.56c16.47,6.2,33.53,10.98,47.85,22.01c8.89,6.84,9.82,8.13,7.52,18.99
	c-0.97,4.58-1.86,9.17-3.02,13.7c-0.92,3.59-2.32,6.08-6.48,2.56c-3.91-3.3-8.45-5.85-12.32-9.19
	c-11.55-9.94-24.55-16.02-40.02-16.11c-1.43-1.31-1.56-3.03-1.32-4.75c1.1-7.87,2.47-15.69,4.75-23.31
	C733.63,699.79,734.35,698.23,736.17,697.56z"/>
<path class="st25" d="M743.96,655.11c19.68,8.87,39.28,17.86,53.72,34.82c2.55,2.99,3.14,5.94,2.04,9.99c-2,7.37-3.04,15-4.6,23.19
	c-5.08-5.59-9.71-10.81-14.47-15.89c-6.3-6.73-14.26-10.62-22.9-13.57c-6.43-2.19-12.6-5.16-18.88-7.78
	c-1.22-1.35-1.75-2.96-1.52-4.73c0.95-7.19,1.7-14.42,3.01-21.56C740.71,657.68,740.95,655.13,743.96,655.11z"/>
<path class="st3" d="M849.7,454.15c-3.78,4.25-4.74,9.95-7.64,14.69c-5.16,8.4-13.56,13.61-19.85,20.87
	c-17.36,20.06-34.8,40.05-52.15,60.11c-1.24,1.43-2.49,3.1-3.02,4.87c-5.43,18.15-14.4,35.31-15.59,54.68
	c-0.06,1.03-0.6,2.04-0.92,3.05c-1.8-0.01-3.59-0.02-5.39-0.03c-4.97-0.84-3.67-4.42-3.11-7.46c2.68-14.69,6.9-29.02,10.37-43.53
	c2.45-10.22,5.24-20.2,11.12-29.05c10.51-11.66,23.54-20.47,35.2-30.83c14.14-12.57,26.53-26.73,38.82-41.02
	c3.38-3.93,5.75-9.15,11.77-10.03c0.21,0.39,0.42,0.78,0.63,1.17C849.86,452.49,849.78,453.32,849.7,454.15z"/>
<path class="st26" d="M749.14,624.47c0.4-0.11,0.8-0.24,1.19-0.39c9.89-0.87,18.59,3.69,27.62,6.42
	c9.39,2.84,14.76,10.61,19.4,18.75c1.27,2.23,2.09,4.74,3.57,6.81c7.63,10.71,3,21.46,0.42,34.13
	c-13.57-23.34-32.92-37.41-56.07-46.76C743.2,636.42,745.29,630.27,749.14,624.47z"/>
<path class="st0" d="M359.6,616.67c1.75,3.74,5.64,2.21,8.48,3.45c-7.19,16.5-9.77,33.96-10.08,51.75
	c-0.21,12.19,0.29,24.41,0.79,36.6c0.17,4.09-1,5.98-5.21,5.79c-5.18-0.24-10.19,1.08-15.8,2.08c-0.13-34.72,2.01-68.66,19.52-99.69
	C358.07,615.81,358.84,615.78,359.6,616.67z"/>
<path class="st0" d="M415.17,544.41c13.31,1.98,25.77,7.42,39.41,9.14c-5.64,8.81-12.6,15.71-19.31,22.82
	c-0.44,0.47-0.78,1.03-1.24,1.48c-3.91,3.85-5.37,12.57-9.91,12.27c-7.5-0.51-14.82-4.87-22.03-8.04c-5.3-2.33-7.19-6.23-4.87-12.22
	c1.89-4.87,3.35-9.88-1.16-14.96c-1.69-1.9,0.05-6.16,1.31-9.17c0.4-0.62,0.85-0.71,1.38-0.15c4.53-1.78,9.27-1.13,13.94-1.18
	c0.85,3.74-3.13,4.52-4.15,6.77C410.7,549.12,413.04,546.87,415.17,544.41z"/>
<path class="st3" d="M402.52,512c-24.22,1.31-47.46,7.45-70.91,13.16c-12.14,2.96-15.71,10.11-16.86,20.28
	c-1.48,13.08-4.71,25.36-11,37.14c-4.27,8-4.35,17.78-8.35,26.14c-0.46,0.13-0.92,0.25-1.38,0.38c-1.3-0.18-2.61-0.36-3.91-0.54
	c-4.14-0.09-4.56-2.28-3.84-5.86c2.08-10.42,5.48-20.57,6.61-31.19c0.21-2.03,0.64-3.96,2.23-5.41c2.28-1.08,1.81-3.55,2.72-5.33
	c6.01-12.03,9.42-25.06,14.43-37.48c1.51-3.75,3.69-5.53,8-5.97c23.79-2.41,47.56-5.17,70.93-10.31
	C396.93,505.74,400.07,507.32,402.52,512z"/>
<path class="st3" d="M728.67,739.98c-3.23,0.11-4.11,2.59-5.07,5c-4.49,11.33-9.37,22.53-13.33,34.05
	c-2.57,7.47-9.18,12.15-12.04,20.74c-5.99-12.93-7.86-26.2-14.58-37.5c-1.46-8.7,1.11-16.34,6.15-23.32
	c1.24-1.74,2.62-3.21,5.05-2.86c0.64-0.59,1.38-1.19,2.22-1.18c10.17,0.15,20.4-0.2,30.08,3.84
	C727.65,739.17,728.16,739.57,728.67,739.98z"/>
<path class="st3" d="M542.73,595.86c0.74,3.25,1.18,6.3,4.95,8.14c3.86,1.89,3.66,6.05,0,8.76c-2.95,2.2-6.51,3.13-10.07,3.81
	c-11.67,2.24-23.31,4.82-35.34,3.97c-0.55,0.14-1.06,0.06-1.52-0.27c-1.43-0.87-2.04-2.47-3.19-3.59
	c-6.88-5.32-10.94-12.29-12.87-20.78c-0.99-4.33-3.65-8.05-6.37-11.59c-0.05-2.51-0.11-5.01-0.16-7.52
	c0.21-1.12,0.35-2.29,1.56-2.86c8.12,9.59,15.93,19.47,25.91,27.32c2.54,2,5.17,2.92,8.3,2.47
	C523.85,602.28,533.74,600.72,542.73,595.86z"/>
<path class="st27" d="M261.86,665.66c0.41-0.09,0.82-0.21,1.22-0.36c18.02,0.13,29.38,11.79,40.68,23.51
	c1.26,1.3,1.85,2.68,0.72,4.55c-3,4.91-5.9,9.87-8.71,14.89c-1.67,2.98-2.76,1.28-4.17-0.21c-4.12-4.34-8.14-8.79-12.52-12.86
	c-7.4-6.86-16.09-11.12-26.29-11.92C251.93,675.4,256.63,670.4,261.86,665.66z"/>
<path class="st28" d="M736.17,697.56c-3.4,10.41-5.37,21.1-6.46,31.97c0.2,0.2,0.22,0.41,0.08,0.65
	c-9.97,1.46-19.46-1.44-29.04-3.33c-2.11-0.42-4.7-1.82-3.85-4.25c2.91-8.35,4.3-17.32,9.75-24.67c2.43-5.36,5.58-7.93,12.19-5.78
	C724.56,694.01,730.89,694.04,736.17,697.56z"/>
<path class="st29" d="M605.91,733.58c-12.32,4.89-25.18,6.5-38.34,6.5c-4.81,0-7.51-1.87-7.86-6.98
	c-0.54-7.89-1.93-15.74-1.31-23.69c0.4-5.19-0.3-11.8,8.59-8.09c3.62-4.17,8.81-2.97,13.37-4.06c5.36-1.27,10.98,0.23,16.26-2.07
	c3.19-1.4,5.63-0.28,6.5,3.56c0.56,2.48,1.65,4.83,2.7,7.8c-8.28,0.95-16.44,1.75-24.56,2.87c-9.03,1.24-12.4,4.34-13.63,11.89
	c-1.1,6.75,1.92,10.9,8.87,11.16c7.48,0.28,14.99-0.08,22.48-0.16C601.36,732.37,604.17,730.08,605.91,733.58z"/>
<path class="st3" d="M906.36,493.88c-4.68,1.65-8.74,4.4-12.84,7.1c-12.21,8.04-25.87,13.46-38.09,21.63
	c-7.64,5.11-17.16,6.31-26.44,5.23c-5.08-0.59-3.39,2.97-4.1,5.18c-1.82-6.18-1.76-12.81-5.28-18.97
	c6.24,0.46,11.59,2.77,17.09,0.73c7.04,1.91,13.31,0.55,19.46-3.51c8.77-5.8,18.83-9.23,27.95-14.49
	c13.23-7.63,24.41-18.1,37.18-26.33c2.34-1.51,4.92-5.16,8.01-0.76c0.08,3.17,0.37,6.39-1.89,9.08c-0.29,0.02-0.58,0.05-0.87,0.07
	c-5.32,3.23-9.75,7.5-14.08,11.9C910.61,492.14,908.86,493.74,906.36,493.88z"/>
<path class="st29" d="M316.42,762.6c3.32-4.4,5.95-7.66,8.34-11.1c1.8-2.6,3.87-0.95,5.74-0.56c5.87,1.22,11.68,2.59,17.72,0.98
	c3.68-0.98,6.77-2.74,8.65-6.1c3.75-6.69,0.34-12.75-7.32-12.81c-4.05-0.03-8.11,0.54-12.17,0.78c-1.42,0.08-3.01,0.51-3.36-1.79
	c-0.26-1.66-0.86-2.94,0.82-4.5c5.01-4.65,11.23-4.96,17.4-5.23c14.52-0.64,15.53,0.38,16.49,14.75c0.18,2.77,0.45,5.54,0.74,8.3
	c1.03,9.8,0.78,10.55-8.74,12.6C346.55,760.96,332.07,761.26,316.42,762.6z"/>
<path class="st30" d="M295.48,620.25c15.46,4.19,31.23,18.51,30.63,36.35c-0.15,4.3-3.81,6.44-5.91,9.45
	c-1.46,2.09-2.74-0.09-3.5-1.72c-1.8-3.86-3.37-7.88-5.57-11.51c-6.15-10.1-15.07-16.02-27.05-17.02c-1.03-0.09-2.01-0.63-3.02-0.96
	l0.11-0.3c-0.94-6.97,3.64-10.84,8.26-14.69C291.44,619.91,293.5,619.44,295.48,620.25z"/>
<path class="st31" d="M273.51,645.22c0.81-0.12,1.63-0.23,2.44-0.35c7.09,2.07,14.63,2.01,21.41,5.83
	c8.34,4.7,13.44,11.72,16.78,20.23c2.15,5.49-2.7,9.01-4.88,13.12c-1.16,2.19-2.49-0.33-3.14-1.35
	c-5.26-8.26-12.93-14.15-20.1-20.52c-4.02-3.56-8.38-6.63-13.99-7.17C267.39,652.1,267.65,650.41,273.51,645.22z"/>
<path class="st3" d="M638.33,790.28c1.72,5.84,5.97,11.17,3.89,18.98c-1.91-2.35-3.32-3.79-4.39-5.45
	c-11.04-17-23.62-33.09-31.44-52.03c-2.8-6.78-1.72-9.38,5.28-9.52c3.42-0.07,5.29-1.82,8.1-3.26c1.76,3.97,3.48,7.84,5.19,11.71
	c-3.08,2.81-3.5,5.47-1.16,9.41c4.97,8.4,7.91,17.84,12.31,26.55C637.19,787.65,636.55,789.71,638.33,790.28z"/>
<path class="st29" d="M344.56,769.88c-9.96,20.71-16.05,42.88-24.28,64.35c-0.69-15.06-0.88-30.06,0.92-45.01
	c1.76-4.58,3.8-9.18,3.87-14.11c0.05-3.79,1.88-4.78,5-4.98c2.53-0.14,5.06-0.29,7.58-0.43
	C339.97,769.08,342.29,768.83,344.56,769.88z"/>
<path class="st32" d="M743.96,655.11c-3.91,9.89-3.61,20.47-5.09,30.76c-6.6-3.09-13.59-4.98-20.74-6.02
	c-3.28-0.48-3.82-1.3-2.74-4.38c2.1-6.01,3.78-12.18,5.6-18.29c0.92-3.07,3.11-4.85,6.13-4.61
	C732.77,653.02,738.49,653.36,743.96,655.11z"/>
<path class="st7" d="M706.63,697.93c-1.66,7.26-3.81,14.45-7.21,21.02c-2.76,5.35-0.72,6.42,4.01,7.08
	c8.8,1.23,17.57,2.76,26.35,4.16c-0.88,2.86-1.76,5.72-2.64,8.58c-10.76-0.89-21.53-1.77-32.29-2.66c-2.68-1.04-3.58-2.35-2.72-5.65
	c2.21-8.4,3.53-17.02,5.49-25.49C698.67,700.41,700.73,696.56,706.63,697.93z"/>
<path class="st3" d="M330.13,684.83c-10.03,17.42-22.51,33.09-34.83,48.88c-0.76,0.97-1.8,1.72-2.71,2.57
	c6.14-12.88,14.37-24.63,20.25-37.67c5.87-13.02,11.15-26.31,18.01-38.88c0.77-1.41,1.6-2.78,2.81-4.02
	C332.13,665.44,330.97,675.12,330.13,684.83z"/>
<path class="st8" d="M352,324.08c4.39,22.04,2.37,44.05-0.16,66.07c-6.76-6.48-8.47-14.63-7.79-23.57c0.06-1.8,0.19-3.62-0.97-5.2
	c-1.29-1.01-1.7-2.48-1.68-3.96c0.15-11.47,4.57-21.85,8.46-32.35C350.15,324.25,351.08,323.98,352,324.08z"/>
<path class="st7" d="M352,324.08c-4.23,12.14-9.39,24.05-8.93,37.3c-5.43,0.7-8.97-2.79-7.41-8.04
	c5.89-19.83,11.54-39.81,23.2-57.29c3.58-5.36,4.29-12.1,8.68-16.99c-1.88,12.79-8.29,24.02-12.41,36.04
	C354.1,318.09,353.04,321.08,352,324.08z"/>
<path class="st8" d="M189.51,747.76c-2.25,11.92-4.22,23.84-3.84,36.08c0.35,11.08,4.92,20.34,12.16,28.14
	c4.56,4.91,12.07,4.84,17.82,8c1.11,0.61,2.37,0.94,3.57,1.4c0.45,1.29,0.91,2.57,1.36,3.86c-20.14-1.62-42.73-22.71-42.15-40.42
	C178.87,771.7,182.21,759.04,189.51,747.76z"/>
<path class="st33" d="M613.58,723.57c-12.25,1.51-24.06,3.01-36.04,2.51c-1.74-0.07-3.63-0.06-3.59-2.55
	c0.05-2.85,0.41-5.94,3.44-6.98c9.33-3.2,19.13-4.27,28.84-5.71c2.11-0.31,2.39,1.47,2.97,2.72
	C610.65,716.64,611.94,719.79,613.58,723.57z"/>
<path class="st8" d="M929.3,469.69c-2.94-2.41-4.81,0.4-6.73,1.63c-12.94,8.29-23.9,19.36-37.52,26.69
	c-11.47,6.17-22.92,12.39-34.6,18.15c-4.49,2.22-9.52,2.55-13.75-1.37c30.65-9.77,57.1-27.23,83.21-45.31
	c1.23-0.85,2.47-1.7,3.67-2.61C927.41,463.95,929.3,464.91,929.3,469.69z"/>
<path class="st7" d="M344.04,366.58c2.01,8.05,3.75,16.19,7.79,23.57c3.12,10.2,7.17,20,14.36,28.02
	c4.88,5.43,10.43,10.26,15.68,15.36c-7.79,2.77-11.83,1.47-15.23-5.55c-4.39-9.05-11.31-16.44-16.2-25.11
	c-5.77-10.23-10.76-20.87-9.87-33.08C340.66,368.6,338.95,363.27,344.04,366.58z"/>
<path class="st34" d="M261.86,665.66c-3.08,5.84-7.66,10.91-9.08,17.61c-6.13-0.63-12.27-1.65-18.39,0.05
	c-2.46,1.98-4.71,2.62-6.34-0.95c2.76-6.9,8.45-11.67,12.78-17.43c0.34-0.45,1.3-1.07,1.38-0.99
	C248.33,669.71,255.46,663.63,261.86,665.66z"/>
<path class="st29" d="M452.22,517.38c-3.73,7.51-2.34,15.4-1.18,23.08c0.59,3.92-0.39,4.59-3.75,3.87
	c-0.63-0.13-1.28-0.16-1.91-0.28c-6.07-1.16-13.68-0.59-11.06-11c1.43-0.09,3.69-0.22,5.96-0.37c1.49-0.1,3.46-0.03,3.49-1.95
	c0.03-2.14-2.01-1.75-3.44-1.72c-1.92,0.04-3.85,0.2-5.77,0.35c-3.67,0.29-9.82-5.33-9.85-9.12c0-0.17,1.11-0.36,1.7-0.53
	c7.82,0.82,15.56,1.13,22.84-2.73C450.1,516.53,451.31,516.59,452.22,517.38z"/>
<path class="st35" d="M749.14,624.47c-1.29,6.32-2.58,12.64-3.88,18.97c-5.61-0.82-11.23-1.64-16.84-2.47
	c-1.44-0.21-3.63-0.33-3.07-2.23c1.64-5.62,1.09-12.28,6.94-16.1C737.83,623.99,743.75,621.78,749.14,624.47z"/>
<path class="st36" d="M697.35,410.48c1.86-4.21,3.49-7.34,4.64-10.65c1.26-3.61,2.47-7.32,3.01-11.08
	c1.29-9.02,1.13-9.18,10.79-8.67c2.83,0.15,7.18-1.87,8.17,0.76c1.06,2.83-3.12,5.05-5.1,7.45c-4.21,5.11-8.5,10.16-12.84,15.16
	C703.84,405.96,701.81,408.71,697.35,410.48z"/>
<path class="st37" d="M676.95,568.88c-2.22-5.24-3.58-11.08-6.82-15.59c-7.48-10.44-17.66-17.66-30.74-19.06
	c-9.41-1-18.97-1.09-28.46-0.19c9.61-3.59,19.12-7.1,29.8-5.76C662.17,530.96,674.94,552.04,676.95,568.88z"/>
<path class="st38" d="M273.51,645.22c0.16,3.37-6.68,5.67-1.49,9.8c-1.23-0.04-2.46-0.07-3.7-0.11c-6.15-2.27-12.49-0.55-19.27-0.89
	c0.76-1.11,1.33-1.95,1.92-2.78C259.69,638.92,259.69,638.92,273.51,645.22z"/>
<path class="st39" d="M635.63,787.86c-6.28-9.54-9.04-20.81-15.12-30.48c-3.05-4.85,1.45-5.44,4.45-6.69
	c4.85,11.65,9.12,23.5,12.01,35.81C637.49,787.92,636.82,788.14,635.63,787.86z"/>
<path class="st7" d="M689.8,738.96c-2.21,7.73-5.19,15.26-6.15,23.32c-2.61,2.94-4.24,2.08-4.11-1.48c0.26-7.43,0.01-15,3.58-21.92
	C685.34,738.91,687.57,738.93,689.8,738.96z"/>
<path class="st40" d="M690.89,633.32c-5.21-3.18-4.7-8.67-5.41-13.61c-1.68-11.72-3.21-23.46-4.81-35.19
	c5.66,12.51,6.67,26.08,8.99,39.35C690.21,627,690.49,630.17,690.89,633.32z"/>
<path class="st41" d="M452.22,517.38c-8.35,3.67-16.68,7.5-25.82,2.33c3.45-1.51,7.13-2.67,10.31-4.62
	C442.7,511.42,447.69,512.26,452.22,517.38z"/>
<path class="st42" d="M355.77,281.57c-0.43,2.06-0.87,4.12-1.3,6.18c-1.12,0.29-2.16,0.36-2.69-0.97
	c0.32-13.48-1.94-27.06,1.62-40.4c0.32-1.2,0.74-2.38,1.11-3.57c3.04,2.49,3.25,5.93,2.8,9.37
	C356.01,261.94,356.94,271.81,355.77,281.57z"/>
<path class="st43" d="M337.21,747.51c-1.32-0.14-3.46-0.24-5.52-0.66c-1.15-0.23-3.43,0.69-2.95-1.99c0.27-1.47,0.75-3.14,2.49-3.32
	c5.9-0.62,11.83-1.09,17.75-1.52c0.94-0.07,2.24-0.33,2.64,1.07c0.34,1.17-0.38,2.04-1.13,2.79
	C347,747.38,342.49,747.36,337.21,747.51z"/>
<path class="st44" d="M587.99,665.93c5.1,5.75,7.85,11.71,9.96,17.94c0.56,1.66,3.22,4.32-1.14,5.41c-3.74,0.93-5.67-0.19-6.15-4.05
	C589.89,679.11,588.98,673.01,587.99,665.93z"/>
<path class="st45" d="M228.05,682.37c1.88,1.86,4.18,0.92,6.34,0.95c0.83,0.48,3.21,0.3,1.34,2.09c-2.79,2.69-4.96,6.21-9.01,7.39
	c-0.37,0.27-0.74,0.54-1.11,0.8c-2.26,1.67-4.44,3.64-7.55,1.9c-0.01-0.56-0.03-1.13-0.04-1.69c3.02-3.35,4.16-7.73,6.37-11.52
	C225.61,682.32,226.83,682.35,228.05,682.37z"/>
<path class="st46" d="M557.11,530.49c-2.6-11.49-2.25-22.77,2.39-33.75C561.38,508.17,558.54,519.28,557.11,530.49z"/>
<path class="st47" d="M330.07,770.12c-2.14,1.19-3.64,1.98-3.54,5.46c0.13,4.85-0.96,10.11-5.33,13.63
	c-0.38-4.07,0.53-8.09,0.55-12.11C321.78,771.08,324.57,769.21,330.07,770.12z"/>
<path class="st6" d="M218.05,695.51c2.52-0.63,5.03-1.27,7.55-1.9c-4.71,6.5-9.09,13.27-15.63,18.19
	C212.67,706.37,215.36,700.94,218.05,695.51z"/>
<path class="st48" d="M636.87,834.16c0.15-5.22-4.19-10.05-1.37-15.48c0.47-0.91,1.12-1.72,1.69-2.57
	C640.28,820.05,640.11,829.57,636.87,834.16z"/>
<path class="st49" d="M906.36,493.88c1.08-1.99,3.23-2.5,4.96-3.6c5.67-3.05,9.15-9.03,15.29-11.46c0.28,0.12,0.54,0.1,0.8-0.05
	c-6.05,8.08-13.3,14.76-22.39,19.31C905.46,496.67,905.91,495.28,906.36,493.88z"/>
<path class="st50" d="M819.81,531.6c-1.26-2.55-1.76-5.26-4.33-7.4c-3.31-2.75-2.58-6.44,0.59-9.41
	C818.16,520.2,820.25,525.62,819.81,531.6z"/>
<path class="st51" d="M415.17,544.41c-0.71,6.34-6.28,7.63-10.51,10.36c0.97-4.87,6.46-6.07,8.03-10.38
	C413.51,544.4,414.34,544.4,415.17,544.41z"/>
<path class="st52" d="M577.42,547.07c-4.36,2.53-7.88-1.08-11.83-1.6c2.44-0.7,4.87-1.45,7.33-2.07
	C576.01,542.62,577.25,544.23,577.42,547.07z"/>
<path class="st53" d="M398.74,545.57c-0.46,0.05-0.92,0.1-1.38,0.15c-0.43-3.3-0.86-6.6-1.32-10.16c3.14,1.54,5.54,3.49,7.55,5.65
	C403.43,544.5,397.93,541.29,398.74,545.57z"/>
<path class="st54" d="M376.61,728.67c2.09,3.65,3.93,7.33,1.3,11.51C377.1,736.39,376.07,732.62,376.61,728.67z"/>
<path class="st55" d="M295.48,620.25c-2.21,0.08-4.42,0.16-6.63,0.24c-2.79,1.26-5.66,3.03-7.59-1.19
	c3.39-0.12,6.79-0.24,10.18-0.36C292.8,619.33,294.44,618.86,295.48,620.25z"/>
<path class="st56" d="M331.36,651.32c-0.46,0.66-1.15,1.95-1.35,1.88c-2.3-0.84-0.68-2.69-0.85-4.09c-0.19-1.52,0.02-2.98,2.25-2.85
	c2.09,0.12,3.72,0.29,1.38,2.64C331.37,649.15,330.56,649.76,331.36,651.32z"/>
<path class="st57" d="M605.91,733.58c-2.04-1.89-4.68-0.5-6.93-1.27c3.62-1.36,7.39-0.95,11.77-1.11
	C609.3,733.18,607.55,733.28,605.91,733.58z"/>
<path class="st58" d="M470.78,586.83c1.23,1.59,1.39,3.36,0.85,5.76c-1.62-1.26-2.39-2.57-2.25-4.41
	C469.85,587.74,469.96,586.91,470.78,586.83z"/>
<path class="st59" d="M470.78,586.83c-0.29,0.63-0.43,1.42-1.41,1.35c-0.33-1.3-0.67-2.61-1-3.91c1.25-1.14,0.71-2.76,1.12-4.13
	C471.01,582.15,470.4,584.59,470.78,586.83z"/>
<path class="st60" d="M344.56,769.88c-2.3-0.06-4.61-0.12-6.91-0.19c2.28-1.3,4.69-1.25,7.15-0.7c0.09,0.02,0.2,0.31,0.16,0.41
	C344.89,769.59,344.7,769.72,344.56,769.88z"/>
<path class="st61" d="M479.72,573.94c-0.1,1.18-0.06,2.44-1.56,2.86c-0.75-1.1-0.97-2.41-0.24-3.43
	C478.48,572.58,479.32,573.07,479.72,573.94z"/>
<path class="st62" d="M359.7,767.41c-0.96,1.66-2.06,3.16-4.04,3.7C355.75,768.51,356.46,766.58,359.7,767.41z"/>
<path class="st63" d="M658.91,941.34c-0.82,0.35-1.31,0.55-1.8,0.76c-0.28-0.73-0.72-1.44-0.77-2.19c-0.03-0.57,0.6-1.26,1.23-0.76
	C658.13,939.61,658.38,940.44,658.91,941.34z"/>
<path class="st64" d="M359.6,616.67c-0.77-0.01-1.53-0.02-2.3-0.02c0.54-1.88,0.75-3.91,2.47-5.23c0.46,0.03,0.91,0.06,1.37,0.08
	C359.96,613.02,359.6,614.79,359.6,616.67z"/>
<path class="st65" d="M378.31,749.24c1.11-0.56,2.15-0.85,2.03,0.97c-0.05,0.65,0.7,1.95-0.84,1.8c-0.44-0.04-0.8-0.93-1.19-1.43
	C378.31,750.13,378.31,749.69,378.31,749.24z"/>
<path class="st66" d="M635.63,787.86c0.45-0.45,0.89-0.9,1.34-1.35c1.15,1,1.35,2.35,1.36,3.77
	C635.54,791.59,636.67,788.51,635.63,787.86z"/>
<path class="st3" d="M746.29,349.73c0.42,0.86,0.85,1.73,1.27,2.59c-0.18,1.05-1.13,2.54-1.61,2.13
	C744.25,352.98,745.46,351.28,746.29,349.73z"/>
<path class="st67" d="M331.36,651.32c-1.2-0.9-1.44-2.12-0.48-3.15c0.67-0.71,1.44,0.02,1.91,0.74
	C332.31,649.71,331.84,650.52,331.36,651.32z"/>
<path class="st20" d="M366.2,970.82c2.11,0.05,4.23,0.11,6.34,0.16C370.39,972.49,368.26,972.99,366.2,970.82z"/>
<path class="st68" d="M371.7,993.2c-0.5,0.36-1.29,0.93-2.09,1.5c-0.15-0.48-0.58-1.17-0.4-1.41c0.45-0.6,1.12-1.15,1.81-1.43
	C371.53,991.66,372.27,991.87,371.7,993.2z"/>
<path class="st2" d="M326.28,898.6c1.32,2.9,0.95,5.99,0.99,9.03C325.27,904.8,326.62,901.61,326.28,898.6z"/>
<path class="st2" d="M324.99,881.85c1.4,2.45,1.05,5.12,1.02,7.76C324.07,887.23,325.28,884.44,324.99,881.85z"/>
<path class="st2" d="M328.85,924.36c1.27,2.01,1.09,4.25,1.02,6.47C328.07,928.91,329.07,926.54,328.85,924.36z"/>
<path class="st69" d="M281.26,619.3c2.27,2.08,5.08,0.66,7.59,1.19c-1.98,5-6.7,8.51-7.69,14.06c-5.43,0.88-9.73-2.73-14.7-3.69
	c-0.95-0.18-1.67-0.75-1.16-1.71c1.48-2.83,3.42-5.45,4.6-8.39c1.83-4.55,4.91-1.65,7.52-1.63
	C278.7,619.14,279.98,619.24,281.26,619.3z"/>
<path class="st5" d="M292.87,571.5c3.07,4.37,0.08,8.66-0.52,12.83c-0.93,6.45-2.69,12.82-4.65,19.06c-0.94,2.99,0.07,4.16,2.4,5.17
	c-4.07,0.2-8.11,0.16-12.9-1.75C286.39,596.57,286.13,582.59,292.87,571.5z"/>
<path class="st70" d="M297.82,560.76c-0.06,2.21,0.62,4.79-2.72,5.33C295.55,564.08,296.17,562.16,297.82,560.76z"/>
<path class="st3" d="M355.77,281.57c-2.67-8.48-1.21-17.2-0.8-25.71c0.21-4.45,0.42-8.72-0.46-13.05
	c2.19-33.5,8.54-66.15,21.04-97.37c5.58-13.94,18.44-21.37,33.26-20.64c0.21,0.01,0.54-0.11,0.62-0.01c6.5,7.43,7.75-1.45,9.92-3.8
	c10.45-11.27,21.91-20.51,36.29-26.84c19.09-8.41,38.16-16.25,58.95-19.21c3.41-0.49,6.79-0.84,10.22-0.58
	c-6.83,2.43-13.58,5.1-20.49,7.23c-15.21,4.69-27.96,13.48-38.11,25.21c-7.64,8.83-17.18,13.95-27.04,18.99
	c-5.7,2.91-11.72,5.27-17.72,7.53c-9.84,3.71-16.19,10.81-20.46,20.1c-21.6,16.62-31.61,38.92-33.72,65.76
	C365.61,240.29,361.88,261.19,355.77,281.57z"/>
<path class="st8" d="M849.31,450.49c-10.65,8.71-18.32,20.19-27.53,30.22c-12.35,13.45-25.88,25.28-40.12,36.51
	c-5.85,4.61-11.38,9.61-17.06,14.44c-0.41-0.27-0.55-0.54-0.42-0.83c0.13-0.28,0.26-0.42,0.4-0.42c2.88-4.32,6.79-7.58,10.76-10.86
	c18.84-15.54,37.02-31.76,51.31-51.83c4.87-6.83,8.61-14.27,12.17-21.81c1-2.11,1.43-5.17,3.95-5.31c3.27-0.18,4.15,3.22,5.36,5.63
	C848.78,447.52,848.93,449.06,849.31,450.49z"/>
<path class="st12" d="M764.57,530.41c-0.02,0.42-0.02,0.83,0.02,1.25c-11.34,23.93-15.51,49.87-21.29,75.38
	c-0.6,2.65-0.03,3.99,1.83,5.35c-12.75,0.16-12.25,0.36-7.57-11.44c6.76-17.02,13.88-34,15.55-52.58
	C753.83,540.5,759.31,535.48,764.57,530.41z"/>
<path class="st29" d="M270.01,154.52c-13.54,0.99-22.74,10.45-34.73,13.1c-5.55,1.23-8.55-0.73-11.12-4.96
	c-1.05-1.72-1.05-3.19,0.62-4.49C234.01,150.99,260.89,146.15,270.01,154.52z"/>
<path class="st71" d="M325.59,124.96c-8.03-6.36-15.97-5.18-23.89-3.91c-2.52,0.4-4.95,1.37-7.47,1.7
	c-4.21,0.56-8.94,0.34-10.01-4.48c-0.99-4.46,3.04-6.67,6.85-7.88c6.72-2.13,13.53-2.02,20.08,0.56
	C317.34,113.37,322.75,116.84,325.59,124.96z"/>
<path class="st2" d="M441,383.12c42.65,4.17,81.93-5.68,118.91-26.45c10.07-5.65,20.46-10.73,30.61-16.23
	c8.88-4.82,17.1-3.63,25.41,1.61c22.9,14.46,26.57,42.39,15.04,63.59c-11.86,21.8-30.21,37.06-55.74,41.58
	c-26.34,4.66-68.74-11.4-78.14-43.19c-0.36-1.23-0.87-2.42-1.23-3.64c-3.57-11.97-3.57-11.78-16.62-11.73
	c-11.74,0.04-23.64,0.92-34.85-3.96C443.24,384.2,442.13,383.64,441,383.12z"/>
<path class="st2" d="M695.11,311.35c-19.87,10.53-35.95,2.58-41.69-19.04c-6.88-25.93-3.61-50.94,1.61-76.66
	c4.47-22.06,10-43.63,17.23-64.87c1.72-5.06,3.52-10.34,3.14-15.64c-0.39-5.42,2.2-9.19,5.04-12.95c2.34-3.09,4.7-2.24,6.34,1.04
	c-2.03,3.57-5.07,6.68-5.12,11.17c-0.88,3.25-0.31,6.57-0.54,9.86c-1.79,15.6-7.23,30.47-9.52,45.89
	c-3.3,22.22-9.17,44.11-9.6,66.71c-0.23,12.33,3.54,24.12,6.35,35.98c1.04,4.38,3.92,7.96,8.73,8.4c6.99,0.64,13.27-1.61,17.76-7.13
	c4.7-5.77,7.38-12.67,8.1-20.03c0.83-8.52,1.33-17.18-0.52-25.62c-5.5-25.13-8.6-50.72-14.71-75.73c-0.56-2.29-1.15-4.62,0.33-6.83
	c2.44-1.14,3.03,1.02,3.67,2.36c3.01,6.37,6,12.73,7.83,19.62c6.01,22.67,7.38,45.99,9.97,69.14c0.64,5.74,1.54,11.44,2.3,17.17
	c0.69,5.26,0.65,10.88-3.37,14.5C701.48,294.95,697.96,302.87,695.11,311.35z"/>
<path class="st3" d="M688.26,124.63c4.23-0.24,5.1,3.28,6.61,5.99c7.86,14.12,11.99,29.72,17.53,44.75
	c6.43,17.42,13.31,34.8,15.35,53.45c1.42,12.98,1.45,26.04-0.1,39.07c-0.71,5.93-1.26,11.89-1.77,17.84
	c-0.82,9.5-5.23,17.03-12.45,23.07c-4.87,4.08-10.64,2.12-16.08,2.34c-0.15-2,1.33-3.07,2.52-4.25
	c13.62-13.46,18.32-30.7,15.79-48.52c-5.79-40.78-13.7-81.24-24.74-121.02C689.78,133.21,685.83,129.53,688.26,124.63z"/>
<path class="st2" d="M431.28,137.3l-0.3,0.04c0.48-1.71,0.96-3.43,1.68-5.99c1.64,3.77,2.99,6.85,4.33,9.94
	c3.08,2.25,4.08,5.67,5.1,9.08c15.18,23.29,36.81,38.04,63.1,48.07c-3.85-6.16-10.01-11.88-15.2-14.81
	c-8.41-4.75-14.2-12.28-20.13-19.58c-3.89-4.79-8.12-9.39-10.91-14.99c-0.68-1.39,0.08-1.52,1.18-1.35
	c9.56,11.14,18.38,23,31.63,32.73c-5.01-9.78-8.55-18.63-10.39-28.06c-0.44-2.23-1.66-4.75,1.09-6.33c2.85-1.64,4.35,0.87,5.87,2.45
	c7.41,7.66,16.14,13.3,25.94,17.38c4.45-0.32,8.35,1.46,12.24,3.23c2.2,1,4.6,2.2,3.8,5.14c-0.73,2.7-3.31,3.12-5.75,3.23
	c-7.43,0.34-13.7-3.11-20.05-6.24c-2.67-1.32-5-3.27-8.38-4.55c0.4,2.54,1.27,4.65,1.38,6.87c5.7,13.75,18.31,20.18,29.65,27.95
	c1.57,1.08,3.27,1.98,4.94,2.91c2.41,1.34,5.34,2.39,4.58,5.97c-0.79,3.71-3.9,3.27-6.67,3.23c-12.04,0.26-23.12-3.64-34.14-7.82
	c-12.77-4.85-24.78-11.61-34.64-20.67c-12.01-11.04-24.34-22.59-27.98-39.83C432.32,142.7,433.75,139.52,431.28,137.3z"/>
<path class="st2" d="M632.42,265.42c-5.52-10.77-15.38-15.04-25.94-18.81c-1.2,12.34,1.31,26.44-12.8,32.27
	c-8.5,3.51-18.64,2.28-24.74-5.63c-6.89-8.94-9.27-19.35-0.81-30.33c-10.61,0.77-19.23,3.95-27.22,9.08
	c-3.05,1.96-5.82,4.36-9.36,5.53c-2.39,0.79-4.83,1.34-6.29-1.22c-1.39-2.44,0.16-4.66,1.79-6.34c6.27-6.44,14.05-10.74,22.5-13.15
	c24.04-6.84,47.38-5.77,69.29,7.69C628.05,250.19,632.43,256.36,632.42,265.42z"/>
<path class="st4" d="M688.26,124.63c14.38,39.18,19.25,80.58,28.07,121.04c3.4,15.61,2.64,31.55-4.07,46.61
	c-3.36,7.53-7.86,14.21-14.91,18.85c-0.75,0.07-1.5,0.15-2.25,0.22c-0.06-5.26,0.5-10.45,3.69-14.81c1.75-2.4,4.05-4.45,6.33-6.39
	c5-4.24,6.07-9.83,5.04-15.73c-3.15-18.05-3.84-36.38-6.35-54.48c-2.6-18.74-5.58-37.5-15.36-54.26c-4.39-3.16-3.8-8.45-5.49-12.77
	c-0.84-6.32-3.54-12.41-2.4-18.99c-0.11-4.83,1.31-8.77,6.22-10.68C687.28,123.7,687.77,124.16,688.26,124.63z"/>
<path class="st3" d="M398.48,197.93c-5.16,5.14-11.95,7.11-19.31,10.11c0.87-9.27,5.06-16.62,8.63-24.14
	c6.74-14.2,18.84-22.96,31.74-30.86c3.64-2.23,7.3-4.41,10.95-6.62c1.48,1.06,2.23,2.61,2.53,4.31
	c3.21,18.33,14.27,31.97,26.74,44.76c1.04,1.06,2.27,1.97,2.5,3.59c-0.01,0.68-0.26,1.25-0.76,1.71
	c-5.72-3.09-10.89-7.06-14.57-12.32c-6.58-9.39-14.61-17.87-18.87-28.77c-0.74-1.9-1.62-1.33-2.89-0.87
	c-9.22,3.33-27.42,27.87-27.85,37.74C397.29,197.01,398.07,197.48,398.48,197.93z"/>
<path class="st2" d="M614.76,225.48c-18.61-0.01-33.08-6.78-45.54-18.01c-6.98-6.29-14.35-11.38-23.92-12.7
	c-2.84-0.39-5.62-1.64-5.07-5.34c0.5-3.36,3.43-3.38,5.97-3.63c9.8-0.96,18.04,2.61,25.22,8.96c10.15,8.98,20.56,17.39,34.34,20.31
	c6.3,1.34,12.57,2.47,19.04,2.39c1.78-0.02,4.31-0.81,4.74,1.87c0.39,2.49-2.22,2.8-3.81,3.68
	C621.86,225.18,617.57,225.39,614.76,225.48z"/>
<path class="st2" d="M524.53,160.85c-12.44-5.55-18.94-16.8-26.2-27.32c0.62-0.56,1.26-0.57,1.91-0.04
	c5.79,5.4,11.24,11.23,17.45,16.1c10.1,7.92,22.55,9.99,34.77,12.09c17,2.92,31.36,10.92,44.3,21.88c1.73,1.47,4.38,3.03,2.46,5.71
	c-1.69,2.36-3.91,0.31-5.77-0.44c-2.76-1.12-5.43-2.45-8.13-3.68c-0.85-0.13-1.83-0.02-2.51-0.49
	c-15.44-10.54-33.67-13.57-51.02-18.96C528.92,164.81,526.01,163.87,524.53,160.85z"/>
<path class="st3" d="M434.36,145.23c3.45,11.38,10.42,20.5,18.37,29.08c18.03,19.43,40.28,31.12,66.04,36.56
	c3.77,0.8,7.49,1.83,11.24,2.75c-7.04,5.23-14.36,0.62-21.47,0.3c-5.8-0.26-11.53-2.41-17.25-3.89c-2.13-0.55-3.81-0.94-3.93,2.05
	c-1.91,0.75-3.35-0.38-4.72-1.35c-14.92-10.55-29.74-21.21-39.86-36.94c-5.35-8.33-10.21-16.82-10.3-27.13
	C432.77,145.73,433.01,144.75,434.36,145.23z"/>
<path class="st72" d="M629.37,292.2c-10.99,7.07-21.86,11.59-33.73,13.79c-17.6,3.27-35.05,0.72-52.47-1.58
	c-3.09-0.41-6.16-1.82-8.98-3.28c-2.46-1.27-5.08-3.33-3.86-6.55c1.25-3.29,4.56-2.89,7.26-2.2c5.39,1.37,10.76,2.71,16.24,3.78
	c24.62,4.8,48.91,5.55,72.63-4.32C626.93,291.64,627.61,291.96,629.37,292.2z"/>
<path class="st3" d="M524.53,160.85c8.63,4.48,17.99,6.7,27.4,8.7c12.35,2.62,23.32,8.15,33.39,15.59c-1.8,1.88-4.11,1.51-5.96,0.63
	c-9.2-4.36-19.36-5.26-28.9-8.35c-2.64-0.86-5.35-1.66-7.8-2.92c-8.69-4.48-9.18-4.78-13.09,4.26c-2.61,6.04-5.7,5.52-10.51,3.46
	c-7.12-3.04-13.62-7.67-21.56-8.67c-1.68-3.11-3.36-6.23-4.95-9.19c1.84-2.15,2.99-0.56,4.11,0.17c6.25,4.11,12.73,7.74,19.82,10.24
	c2.66,0.94,5.37,1.38,8.16,1.29c1.85-0.06,4.34,0.42,4.93-1.89c0.66-2.55-1.9-2.87-3.61-3.57c-3.89-1.59-7.8-3.16-11.7-4.73
	C517.22,163.25,520.85,161.99,524.53,160.85z"/>
<path class="st2" d="M432.99,146.53c3.31,18.84,14.27,33.17,27.94,45.47c8.2,7.37,17.58,13.43,26.43,20.08
	c5.25,6.94,10.41,13.94,12.91,22.45c0.4,1.35,1.09,3.13-0.49,4.05c-1.8,1.05-2.29-1.38-3.58-1.88c-1.38-0.68-2.68-1.53-3.32-2.94
	c-5.41-11.94-14.89-20.26-24.95-28.05c-2.4-1.86-4.42-4.05-6.42-6.29c-9.13-8.74-17.29-18.22-23.49-29.34
	c-4.13-7.42-5.97-15.47-7.56-23.64c0.45-0.01,0.89-0.02,1.34-0.03C432.31,145.58,432.7,145.63,432.99,146.53z"/>
<path class="st73" d="M501.35,330.85c-9.48-4.82-16.99,0.34-24.8,4c-10.48,4.9-19.51,1.6-27.92-4.97c-1.5-1.17-3.29-2.68-2.19-4.81
	c1.14-2.21,3.38-1.09,5.19-0.82c0.82,0.12,1.71,0.43,2.37,0.93c8.74,6.65,17.29,4.6,26.36,0.29
	C489.22,321.25,495.03,322.95,501.35,330.85z"/>
<path class="st72" d="M384.25,290.7c-2.48-1.17-5.01-2.23-7.42-3.53c-2.25-1.22-3.81-3.26-2.74-5.79c1.14-2.67,3.71-2.4,6.1-1.67
	c1.82,0.56,3.63,1.15,5.45,1.73c9.53,3.88,18.96,4.96,28.22-0.82c1.04-0.65,2.35-1.75,3.33-0.29c0.96,1.42-0.67,2.22-1.47,3.07
	c-7.08,7.49-15.91,9.56-25.81,8.2C388.02,291.33,386.14,291,384.25,290.7z"/>
<path class="st3" d="M461.52,199.41c14.2,9.98,27.81,20.5,34.69,37.28c-5.18,2.76-8.58,1.3-11.47-3.84
	c-6.51-11.55-13.99-22.47-23.25-32.07C461.5,200.33,461.51,199.87,461.52,199.41z"/>
<path class="st50" d="M392.18,226.47c-4.86,1.3-9.77,2.43-14.79,5.02c0.15-2.73,0.27-4.8,0.38-6.88
	c0.71-14.53,0.71-14.53,15.47-15.18c-0.65,3.96-1.22,7.94-1.97,11.89C390.91,223.21,390.1,225.06,392.18,226.47z"/>
<path class="st74" d="M442.09,150.38c-2.28-2.7-4.05-5.69-5.1-9.08C444.43,141.11,441.41,146.78,442.09,150.38z"/>
<path class="st75" d="M649.3,392.35c-3.47-1.1-3.57-3.02-3.14-5.48C648.3,388.02,648.66,389.86,649.3,392.35z"/>
<path class="st76" d="M456.3,145.32c-1.42-1.44-2.62-3-2.96-5.62c2.63,0.53,3.19,2.56,4.15,4.16
	C457.23,144.46,457.12,145.18,456.3,145.32z"/>
<path class="st77" d="M456.3,145.32c0.4-0.49,0.79-0.97,1.19-1.46c0.88,1.28,1.76,2.56,2.64,3.85c-0.39,0.45-0.79,0.9-1.18,1.35
	C457.49,148.22,456.87,146.79,456.3,145.32z"/>
<path class="st78" d="M500.24,133.49c-0.64,0.01-1.27,0.03-1.91,0.04c-1.23-0.82-2.15-1.84-2.38-3.79
	C498.41,130.02,499.3,131.79,500.24,133.49z"/>
<path class="st72" d="M512.38,725.49c-0.08,5.15-1.78,9.02-6.69,10.8c-6.01,2.18-11.71,2.26-16.6-2.64
	c-3.87-3.88-5.83-8.38-4.21-13.89c0.28-0.97,0.92-2.04,1.72-2.62c4.3-3.14,9.35-5.02,13.98-7.57c3.8-2.09,7.02,1.86,9.19,5.14
	C511.95,718.01,512.1,721.94,512.38,725.49z"/>
<path class="st73" d="M510.31,672.6c0.14,6.81-5.79,14.57-10.85,15.16c-5.89,0.69-12.89-4.93-14.18-11.47
	c-0.2-1.02-0.32-2.17-0.07-3.15c0.7-2.7,2.5-4.88,5.3-4.74c6.01,0.3,11.98-9.02,17.94-0.18
	C509.49,669.76,509.94,671.68,510.31,672.6z"/>
<path class="st79" d="M501.55,620.42l0.31,0.34c0,0,0.41-0.22,0.41-0.21c7.78,4.16,8.75,6.88,4.65,12.97
	c-3.59,5.34-11.34,6.7-16.4,2.88c-4.83-3.65-6.11-12.62-2.42-16.7c2.79-3.09,6.16-2.25,9.53-1.46
	C499.4,618.13,500.65,618.96,501.55,620.42z"/>
<path class="st80" d="M501.55,620.42c-1.31-0.73-2.61-1.45-3.92-2.18c-0.03-0.52-0.05-1.04-0.08-1.55
	C499.36,617.42,501.46,617.85,501.55,620.42z"/>
<path class="st29" d="M408.48,237.81c6.97,0.02,10.77,2.85,10.75,8c-0.03,6.71-3.02,11.28-7.41,11.33
	c-7.87,0.09-15.4-5.12-15.46-10.7C396.3,241.2,401.09,237.8,408.48,237.81z"/>
<path class="st81" d="M432.99,146.53c-0.39-0.05-0.78-0.09-1.17-0.14c-0.11-3.03,0.82-6.13-0.54-9.09c2.97,1.89,2.18,5.23,3.07,7.93
	C433.9,145.66,433.44,146.09,432.99,146.53z"/>
<path class="st82" d="M409.14,569.59c5.85-6.45,11.7-12.91,17.55-19.36c0.63,0.56,1.25,1.12,1.88,1.67
	c-5.74,6.61-10.13,14.38-17.58,19.5C410.38,570.8,409.76,570.2,409.14,569.59z"/>
<path class="st83" d="M926.61,478.82c-5.14,3.76-8.43,9.98-15.29,11.46c3.43-4.62,7.94-8.09,12.46-11.53
	C924.62,478.1,925.73,476.68,926.61,478.82z"/>
<path class="st0" d="M514.41,418.35c-6.01-8.65-10.51-17.95-13.24-28.2c-0.72-2.71-0.4-3.46,1.9-3.84
	c30.18-4.97,56.32-19.75,82.68-34c1.51-0.81,3.03-1.6,4.57-2.36c14.58-7.27,32.53,1.89,35.85,18.05c0.71,3.46-1.66,3.47-3.41,4.23
	c-12.36,5.37-24.76,10.62-37.12,15.98c-2.94,1.27-5.77,2.79-8.64,4.23c-1.44,0.73-2.57,1.77-1.86,3.55
	c0.74,1.85,2.27,1.51,3.82,1.13c7.11-1.75,13.81-4.6,20.41-7.67c9.27-4.31,18.52-8.68,28.4-13.31c0.87,9.1,0.45,17.5-3.9,24.77
	c-10.19,17.02-23.86,30.51-43.36,36.23c-13.47,3.95-27.22,3.25-40.19-2.72c-7.75-3.57-15.7-6.9-22.33-12.51
	c6.42-3.75,13.54-5.96,20.18-9.23c3.2-1.57,6.69-2.59,9.19-5.49c-9.98,4.37-21.44,4.64-30.55,11.38
	C516.07,419.11,515.18,418.77,514.41,418.35z"/>
<path class="st84" d="M514.41,418.35c9.73-8.29,22.82-8.25,33.72-13.64c1.15-0.57,2.08-0.21,2.77,0.77
	c1.09,1.54-0.03,2.49-1.15,3.04c-10.32,5.08-20.13,11.39-31.76,13.38C516.8,420.71,515.6,419.53,514.41,418.35z"/>
<path class="st0" d="M684.56,152.84c1.3,4.28,2.6,8.56,3.9,12.85c4.94,25.62,9.95,51.23,14.79,76.87
	c3.14,16.63,4.24,33.05-4.27,48.83c-4.15,7.68-10.68,10.84-18.59,12.02c-7.03,1.05-11.65-2.61-13.98-10.33
	c-6.94-23.05-6.56-45.96-2.47-69.77c4.57-26.61,11.09-52.77,15.64-79.35C683.67,145.55,682.42,150.14,684.56,152.84z"/>
<path class="st85" d="M684.56,152.84c-1.66-2.96-3.32-5.92-4.98-8.88c0.05-3.37-1.23-6.87,0.99-10.03
	C681.9,140.23,683.23,146.53,684.56,152.84z"/>
<path class="st29" d="M582.32,244.45c5.34-0.26,9.79,1.28,14.19,2.91c1.86,0.69,4.41,0.72,4.45,3.73c0.04,3.03,0.09,6.04-2.84,7.99
	c-3.78,2.52-8.03,4.15-12.41,4.85c-5.1,0.82-8.82-4.94-9.31-12.87C576.1,246.17,576.84,242.9,582.32,244.45z"/>
<path class="st86" d="M495.79,717.05c6.42,0.1,9.38,2.83,9.51,8.29c0.12,5.13-3.84,5.2-7.02,5.56c-4.08,0.46-9.22-5.23-8.96-9.28
	C489.51,718.55,491.73,716.98,495.79,717.05z"/>
<path class="st87" d="M501.86,676.21c-0.94,2.33-2.17,4.67-4.44,4.25c-3.29-0.6-5.65-3.05-6.38-6.45c-0.51-2.4,1.55-2.26,2.93-2
	C497.02,672.57,500.2,673.1,501.86,676.21z"/>
<path class="st43" d="M500.64,626.19c0.42,2.35-0.07,4.64-3.64,4.71c-4.07,0.07-4.62-3.14-5.11-6.05c-0.35-2.07,0.42-4.2,2.96-3.74
	C497.33,621.57,501.07,621.14,500.64,626.19z"/>
<path class="st73" d="M691.3,281.61c-0.11,2.9,0.85,5.81-2.03,6.72c-2.63,0.83-5.74,0.59-7.84-1.55
	c-9.07-9.26-13.86-20.48-13.52-33.43c0.15-5.49,7.04-11.15,11.75-10.91c5,0.26,8.73,4.55,9.37,11.09
	C689.97,263.09,689.72,272.75,691.3,281.61z"/>
<path class="st33" d="M688.5,284.4c-9.02-4.74-17.67-22.27-15.49-30.54c0.89-3.36,3.13-6.71,6.8-6.58c3.32,0.12,5.29,2.98,5.63,6.69
	C686.33,263.91,687.42,273.83,688.5,284.4z"/>
</svg>
